# This file uses centimeters as units for non-parametric coordinates.

mtllib CryoOrbGear.mtl
g default
v 0.412254 1.166387 -0.354851
v 0.253328 0.996612 -0.491069
v 0.036326 0.838244 -0.512669
v -0.189037 0.727564 -0.414701
v -0.371135 0.689926 -0.219611
v -0.468250 0.733954 0.027910
v -0.458136 0.849560 0.271157
v -0.343107 1.010261 0.454406
v -0.149518 1.179243 0.535676
v 0.078284 1.317793 0.496349
v 0.288112 1.394171 0.345435
v 0.431896 1.390881 0.117507
v 0.476698 1.308675 -0.135221
v 0.349592 1.257820 -0.395700
v 0.190666 1.088045 -0.531918
v -0.026336 0.929678 -0.553518
v -0.251699 0.818997 -0.455551
v -0.433797 0.781360 -0.260460
v -0.530912 0.825387 -0.012939
v -0.520797 0.940993 0.230308
v -0.405770 1.101695 0.413557
v -0.212180 1.270676 0.494827
v 0.015622 1.409226 0.455501
v 0.225450 1.485604 0.304586
v 0.369234 1.482314 0.076658
v 0.414036 1.400108 -0.176071
v 0.215344 1.109975 -0.179062
v 0.133592 1.022642 -0.249133
v 0.021966 0.941177 -0.260243
v -0.093962 0.884243 -0.209849
v -0.187634 0.864882 -0.109494
v -0.237591 0.887530 0.017832
v -0.232387 0.946998 0.142959
v -0.173216 1.029663 0.237223
v -0.073634 1.116588 0.279029
v 0.043549 1.187858 0.258799
v 0.151485 1.227148 0.181168
v 0.225448 1.225455 0.063921
v 0.248494 1.183168 -0.066083
v 0.152682 1.201408 -0.219911
v 0.070930 1.114075 -0.289982
v -0.040696 1.032610 -0.301092
v -0.156624 0.975676 -0.250698
v -0.250296 0.956315 -0.150343
v -0.300252 0.978963 -0.023017
v -0.295049 1.038431 0.102110
v -0.235878 1.121096 0.196374
v -0.136296 1.208021 0.238179
v -0.019113 1.279292 0.217950
v 0.088823 1.318581 0.140319
v 0.162786 1.316888 0.023072
v 0.185832 1.274601 -0.106932
v 0.244311 1.067708 -0.160178
v 0.162559 0.980375 -0.230249
v 0.207865 1.057266 -0.127641
v 0.140396 0.985193 -0.185469
v 0.277461 1.140901 -0.047200
v 0.235222 1.117671 -0.034403
v 0.254415 1.183188 0.082804
v 0.216203 1.152569 0.072886
v 0.180452 1.184881 0.200052
v 0.155163 1.153966 0.169647
v 0.072516 1.145591 0.277682
v 0.066086 1.121541 0.233713
v -0.044667 1.074321 0.297912
v -0.030621 1.062724 0.250409
v -0.144250 0.987396 0.256106
v -0.112804 0.990987 0.215908
v -0.203420 0.904731 0.161842
v -0.161636 0.922766 0.138114
v -0.208623 0.845263 0.036715
v -0.165930 0.873688 0.034850
v -0.158667 0.822615 -0.090610
v -0.124702 0.854998 -0.070228
v -0.064995 0.841976 -0.190965
v -0.047398 0.870976 -0.153049
v 0.050932 0.898910 -0.241360
v 0.048274 0.917962 -0.194638
v 0.123715 1.243675 -0.238794
v 0.041963 1.156342 -0.308865
v 0.019801 1.161160 -0.264084
v 0.087269 1.233233 -0.206257
v 0.156865 1.316868 -0.125816
v 0.114627 1.293638 -0.113019
v 0.133819 1.359155 0.004188
v 0.095607 1.328537 -0.005730
v 0.059856 1.360848 0.121436
v 0.034567 1.329933 0.091031
v -0.048080 1.321559 0.199066
v -0.054510 1.297509 0.155097
v -0.165262 1.250288 0.219296
v -0.151217 1.238691 0.171793
v -0.264845 1.163363 0.177490
v -0.233400 1.166955 0.137292
v -0.324016 1.080698 0.083226
v -0.282232 1.098733 0.059498
v -0.329219 1.021230 -0.041901
v -0.286526 1.049656 -0.043766
v -0.279263 0.998582 -0.169226
v -0.245298 1.030965 -0.148844
v -0.185591 1.017943 -0.269581
v -0.167994 1.046943 -0.231665
v -0.069663 1.074878 -0.319976
v -0.072322 1.093930 -0.273254
v 0.436716 1.130694 -0.338905
v 0.277789 0.960919 -0.475123
v 0.060788 0.802552 -0.496722
v -0.164576 0.691871 -0.398755
v -0.346673 0.654234 -0.203665
v -0.443789 0.698261 0.043856
v -0.433674 0.813867 0.287103
v -0.318646 0.974569 0.470352
v -0.125057 1.143550 0.551622
v 0.102745 1.282100 0.512296
v 0.312573 1.358478 0.361382
v 0.456358 1.355188 0.133453
v 0.501160 1.272982 -0.119275
v 0.325131 1.293513 -0.411647
v 0.166204 1.123738 -0.547864
v -0.050797 0.965370 -0.569464
v -0.276161 0.854690 -0.471497
v -0.458258 0.817052 -0.276407
v -0.555374 0.861080 -0.028885
v -0.545259 0.976686 0.214362
v -0.430231 1.137387 0.397611
v -0.236641 1.306369 0.478881
v -0.008839 1.444919 0.439554
v 0.200988 1.521297 0.288640
v 0.344773 1.518007 0.060711
v 0.389575 1.435801 -0.192017
v 0.538218 1.171844 -0.337583
v 0.478947 1.089038 -0.432007
v 0.402818 1.369412 -0.425849
v 0.343547 1.286607 -0.520273
v 0.375950 0.979011 -0.520287
v 0.276197 0.891939 -0.562163
v 0.140798 1.089507 -0.650430
v 0.240550 1.176579 -0.608553
v 0.135563 0.789304 -0.576161
v 0.018182 0.717912 -0.555897
v -0.117217 0.915480 -0.644164
v 0.000164 0.986872 -0.664428
v -0.127871 0.646182 -0.492407
v -0.235991 0.606826 -0.414645
v -0.371390 0.804395 -0.502911
v -0.263271 0.843751 -0.580673
v -0.354005 0.582434 -0.288210
v -0.428093 0.584130 -0.170764
v -0.563493 0.781698 -0.259030
v -0.489404 0.780002 -0.376477
v -0.491032 0.612663 -0.010351
v -0.514117 0.655022 0.119874
v -0.649517 0.852590 0.031608
v -0.626431 0.810231 -0.098617
v -0.507562 0.729944 0.277518
v -0.474356 0.803262 0.390688
v -0.609756 1.000830 0.302422
v -0.642962 0.927512 0.189251
v -0.399808 0.907409 0.509448
v -0.317917 0.994890 0.579638
v -0.453317 1.192458 0.491371
v -0.535208 1.104977 0.421181
v -0.192456 1.104403 0.632308
v -0.080640 1.186006 0.643437
v -0.216040 1.383574 0.555171
v -0.327855 1.301972 0.544041
v 0.066994 1.275798 0.617950
v 0.183118 1.332829 0.567470
v 0.047719 1.530397 0.479204
v -0.068406 1.473366 0.529684
v 0.319103 1.382328 0.469666
v 0.412934 1.401722 0.369140
v 0.277534 1.599290 0.280874
v 0.183704 1.579896 0.381399
v 0.506118 1.399590 0.221424
v 0.556159 1.376903 0.093882
v 0.420760 1.574471 0.005616
v 0.370718 1.597158 0.133157
v 0.585195 1.323627 -0.069906
v 0.579983 1.264058 -0.195245
v 0.444583 1.461626 -0.283512
v 0.449795 1.521195 -0.158172
v 0.424753 0.993859 -0.626835
v 0.313169 1.156678 -0.699576
v 0.434554 1.286348 -0.595536
v 0.546138 1.123529 -0.522794
v 0.141453 0.770285 -0.692685
v 0.029868 0.933104 -0.765426
v 0.195609 1.054061 -0.748929
v 0.307194 0.891243 -0.676187
v -0.169011 0.601613 -0.593978
v -0.280596 0.764432 -0.666719
v -0.108468 0.848967 -0.741544
v 0.003116 0.686148 -0.668803
v -0.435515 0.526484 -0.353327
v -0.547099 0.689303 -0.426069
v -0.408017 0.718050 -0.575075
v -0.296432 0.555231 -0.502333
v -0.597004 0.562110 -0.025863
v -0.708589 0.724928 -0.098604
v -0.634415 0.691301 -0.287655
v -0.522830 0.528483 -0.214914
v -0.616486 0.700328 0.313397
v -0.728071 0.863147 0.240655
v -0.735796 0.774849 0.054868
v -0.624211 0.612030 0.127610
v -0.489496 0.909475 0.586732
v -0.601080 1.072293 0.513990
v -0.688936 0.949553 0.374029
v -0.577351 0.786735 0.446771
v -0.245126 1.141637 0.731524
v -0.356710 1.304456 0.658783
v -0.504570 1.175392 0.596711
v -0.392985 1.012573 0.669452
v 0.060642 1.343630 0.714604
v -0.050943 1.506449 0.641863
v -0.224933 1.400627 0.671900
v -0.113348 1.237808 0.744641
v 0.357759 1.469178 0.539848
v 0.246175 1.631997 0.467106
v 0.085913 1.573661 0.582371
v 0.197497 1.410842 0.655112
v 0.578160 1.489521 0.247289
v 0.466576 1.652340 0.174547
v 0.356756 1.654853 0.348634
v 0.468341 1.492034 0.421376
v 0.671354 1.399998 -0.096050
v 0.559769 1.562816 -0.168792
v 0.525550 1.625603 0.024236
v 0.637135 1.462785 0.096978
v 0.615991 1.221117 -0.411514
v 0.504406 1.383936 -0.484256
v 0.553627 1.492613 -0.316507
v 0.665211 1.329794 -0.243766
v -0.177870 1.242579 0.379306
v -0.170606 1.236118 0.353700
v -0.000009 1.350755 0.348601
v -0.003482 1.337763 0.324849
v -0.312387 1.112359 0.294179
v -0.329261 1.110432 0.315751
v -0.194029 1.266158 0.368772
v -0.186765 1.259696 0.343166
v -0.328546 1.135938 0.283645
v -0.345420 1.134011 0.305217
v -0.016168 1.374333 0.338067
v -0.019642 1.361341 0.314315
vt 0.526649 0.281341
vt 0.485521 0.410111
vt 0.408507 0.404463
vt 0.384574 0.270665
vt 0.337635 0.435267
vt 0.253584 0.327330
vt 0.289150 0.495512
vt 0.163771 0.438572
vt 0.274203 0.571477
vt 0.135900 0.579055
vt 0.296324 0.645707
vt 0.176584 0.716549
vt 0.350436 0.701185
vt 0.276876 0.819098
vt 0.424153 0.725008
vt 0.413402 0.863092
vt 0.500469 0.711772
vt 0.554539 0.838430
vt 0.561825 0.664637
vt 0.667826 0.751122
vt 0.594210 0.594477
vt 0.727440 0.621420
vt 0.590297 0.517365
vt 0.719979 0.479138
vt 0.551118 0.450834
vt 0.647443 0.356658
vt 0.719739 0.479269
vt 0.726833 0.621964
vt 0.594012 0.594657
vt 0.590317 0.517301
vt 0.667027 0.751901
vt 0.561510 0.664959
vt 0.553752 0.839210
vt 0.500149 0.712099
vt 0.412817 0.863631
vt 0.423953 0.725207
vt 0.276687 0.819185
vt 0.350463 0.701153
vt 0.177088 0.715806
vt 0.296716 0.645495
vt 0.136882 0.577637
vt 0.792103 0.943964
vt 0.779016 0.943949
vt 0.274398 0.571014
vt 0.254912 0.325922
vt 0.385566 0.269563
vt 0.409552 0.403531
vt 0.338307 0.433932
vt 0.590678 0.943739
vt 0.577668 0.943725
vt 0.527339 0.280518
vt 0.486156 0.409459
vt 0.647670 0.356289
vt 0.551418 0.450481
vt 0.412888 0.429419
vt 0.477851 0.434242
vt 0.869214 0.187660
vt 0.868799 0.239155
vt 0.566153 0.524777
vt 0.569169 0.590023
vt 0.546109 0.585161
vt 0.997607 0.188318
vt 0.533125 0.468673
vt 0.864235 0.805592
vt 0.533425 0.468327
vt 0.992628 0.806249
vt 0.566088 0.524865
vt 0.864649 0.754098
vt 0.478418 0.433639
vt 0.993042 0.754755
vt 0.569291 0.589907
vt 0.865064 0.702604
vt 0.413711 0.428568
vt 0.993457 0.703261
vt 0.541876 0.649028
vt 0.865479 0.651109
vt 0.353696 0.454250
vt 0.993872 0.651767
vt 0.490065 0.688693
vt 0.865894 0.599615
vt 0.312542 0.505258
vt 0.994287 0.600272
vt 0.425683 0.699755
vt 0.866309 0.548121
vt 0.299750 0.569637
vt 0.994702 0.548778
vt 0.363615 0.679542
vt 0.866724 0.496626
vt 0.318378 0.632477
vt 0.995117 0.497283
vt 0.318079 0.632730
vt 0.867139 0.445132
vt 0.363673 0.679476
vt 0.995532 0.445789
vt 0.299487 0.570127
vt 0.867554 0.393638
vt 0.425565 0.699878
vt 0.995947 0.394295
vt 0.312152 0.506097
vt 0.867969 0.342143
vt 0.489838 0.688928
vt 0.996362 0.342800
vt 0.353075 0.455357
vt 0.868384 0.290649
vt 0.541651 0.649264
vt 0.996777 0.291306
vt 0.289535 0.494550
vt 0.533853 0.259237
vt 0.380753 0.247723
vt 0.982733 0.020899
vt 0.509284 0.205644
vt 0.749647 0.626189
vt 0.741906 0.472432
vt 0.735668 0.130255
vt 0.799807 0.595299
vt 0.239562 0.308780
vt 0.331328 0.020274
vt 0.333771 0.211519
vt 0.685286 0.766276
vt 0.084177 0.129630
vt 0.744240 0.762520
vt 0.142737 0.428670
vt 0.331154 0.023711
vt 0.180798 0.298422
vt 0.563257 0.860468
vt 0.083899 0.133068
vt 0.617454 0.884916
vt 0.112671 0.580101
vt 0.656882 0.023711
vt 0.085563 0.446709
vt 0.411331 0.886896
vt 0.409530 0.133068
vt 0.448226 0.934148
vt 0.156558 0.728391
vt 0.982678 0.023711
vt 0.070138 0.622626
vt 0.264496 0.839046
vt 0.735258 0.133068
vt 0.275247 0.898364
vt 0.264747 0.838962
vt 0.330788 0.022773
vt 0.138605 0.785895
vt 0.157065 0.727577
vt 0.083343 0.132130
vt 0.138883 0.785115
vt 0.411961 0.886296
vt 0.656584 0.022773
vt 0.275687 0.898100
vt 0.113718 0.578683
vt 0.409164 0.132130
vt 0.071177 0.621228
vt 0.564105 0.859618
vt 0.982312 0.022773
vt 0.448988 0.933342
vt 0.144147 0.427178
vt 0.734961 0.132130
vt 0.087035 0.445070
vt 0.686157 0.765429
vt 0.331352 0.021836
vt 0.618433 0.883905
vt 0.240972 0.307273
vt 0.084098 0.131192
vt 0.182384 0.296716
vt 0.750321 0.625589
vt 0.656879 0.021836
vt 0.745217 0.761576
vt 0.381857 0.246529
vt 0.409728 0.131192
vt 0.335159 0.210068
vt 0.742188 0.472267
vt 0.982321 0.021836
vt 0.800522 0.594678
vt 0.534591 0.258387
vt 0.735256 0.131192
vt 0.510246 0.204632
vt 0.663989 0.340362
vt 0.331897 0.020899
vt 0.772083 0.421597
vt 0.664213 0.339999
vt 0.084881 0.130255
vt 0.667476 0.281226
vt 0.657291 0.020899
vt 0.667106 0.281703
vt 0.410274 0.130255
vt 0.771851 0.421705
vt 0.917279 0.020899
vt 0.861144 0.599004
vt 0.801103 0.130255
vt 0.521260 0.145398
vt 0.265826 0.020274
vt 0.796932 0.794396
vt 0.149651 0.129630
vt 0.316386 0.152586
vt 0.265599 0.023711
vt 0.649427 0.937771
vt 0.149424 0.133068
vt 0.137973 0.254304
vt 0.591281 0.023711
vt 0.452072 0.995909
vt 0.475106 0.133068
vt 0.027077 0.427580
vt 0.917049 0.023711
vt 0.249896 0.954747
vt 0.800874 0.133068
vt 0.009432 0.633040
vt 0.265153 0.022773
vt 0.090111 0.822770
vt 0.148978 0.132130
vt 0.089953 0.823795
vt 0.590968 0.022773
vt 0.010582 0.631492
vt 0.474794 0.132130
vt 0.250401 0.954394
vt 0.165125 0.437170
vt 0.916736 0.022773
vt 0.028715 0.425754
vt 0.800561 0.132130
vt 0.452924 0.994930
vt 0.265827 0.021836
vt 0.139760 0.252383
vt 0.149652 0.131192
vt 0.650554 0.936568
vt 0.591405 0.021836
vt 0.318025 0.150924
vt 0.475230 0.131192
vt 0.798085 0.793272
vt 0.916886 0.021836
vt 0.522398 0.144287
vt 0.800711 0.131192
vt 0.862009 0.598244
vt 0.266480 0.020899
vt 0.706037 0.233346
vt 0.150305 0.130255
vt 0.828219 0.396391
vt 0.591866 0.020899
vt 0.827914 0.396570
vt 0.475691 0.130255
vt 0.705622 0.233828
vt 0.893893 0.997170
vt 0.833156 0.246430
vt 0.780339 0.997042
vt 0.793427 0.997056
vt 0.578991 0.996817
vt 0.592002 0.996832
vt 0.684928 0.943844
vt 0.892569 0.944077
vt 0.475691 0.020899
vt 0.611594 0.174910
vt 0.410274 0.020899
vt 0.771453 0.300882
vt 0.591866 0.130255
vt 0.722776 0.338317
vt 0.657291 0.130255
vt 0.585160 0.230475
vt 0.150305 0.020899
vt 0.771394 0.301085
vt 0.084881 0.020899
vt 0.612398 0.174033
vt 0.266480 0.130255
vt 0.585868 0.229674
vt 0.331897 0.130255
vt 0.722689 0.338539
vt 0.800711 0.021836
vt 0.855713 0.487347
vt 0.735256 0.021836
vt 0.411953 0.135212
vt 0.916886 0.131192
vt 0.413957 0.196944
vt 0.006503 0.130255
vt 0.795222 0.498005
vt 0.475230 0.021836
vt 0.844015 0.692033
vt 0.409728 0.021836
vt 0.215950 0.194390
vt 0.591405 0.131192
vt 0.246240 0.248182
vt 0.656879 0.131192
vt 0.785480 0.673359
vt 0.149652 0.021836
vt 0.738348 0.868227
vt 0.084098 0.021836
vt 0.069483 0.338672
vt 0.265827 0.131192
vt 0.121228 0.372151
vt 0.331352 0.131192
vt 0.695198 0.824426
vt 0.800561 0.022773
vt 0.562526 0.975306
vt 0.734961 0.022773
vt 0.006410 0.535022
vt 0.916736 0.132130
vt 0.067732 0.540478
vt 0.005721 0.131192
vt 0.544748 0.916390
vt 0.474794 0.022773
vt 0.356557 0.988277
vt 0.409164 0.022773
vt 0.041546 0.738786
vt 0.590968 0.132130
vt 0.098364 0.714953
vt 0.656584 0.132130
vt 0.368423 0.927831
vt 0.148978 0.022773
vt 0.168004 0.903403
vt 0.083343 0.022773
vt 0.167503 0.903084
vt 0.265153 0.132130
vt 0.206581 0.855317
vt 0.330788 0.132130
vt 0.206830 0.855503
vt 0.800874 0.023711
vt 0.040792 0.739964
vt 0.735258 0.023711
vt 0.355765 0.989005
vt 0.917049 0.133068
vt 0.367766 0.928438
vt 0.004966 0.132130
vt 0.097681 0.716028
vt 0.475106 0.023711
vt 0.004971 0.536682
vt 0.409530 0.023711
vt 0.561472 0.976421
vt 0.591281 0.133068
vt 0.543830 0.917333
vt 0.656882 0.133068
vt 0.066460 0.542022
vt 0.149424 0.023711
vt 0.067712 0.340541
vt 0.083899 0.023711
vt 0.737146 0.869404
vt 0.265599 0.133068
vt 0.694174 0.825426
vt 0.331154 0.133068
vt 0.119653 0.373821
vt 0.149651 0.020274
vt 0.214173 0.196278
vt 0.084177 0.020274
vt 0.842960 0.692980
vt 0.265826 0.129630
vt 0.784604 0.674151
vt 0.005523 0.133068
vt 0.244705 0.249826
vt 0.801103 0.020899
vt 0.410529 0.136671
vt 0.735668 0.020899
vt 0.855108 0.487803
vt 0.917279 0.130255
vt 0.794744 0.498358
vt 0.005800 0.129630
vt 0.412752 0.198219
vt 0.005523 0.023711
vt 0.331328 0.129630
vt 0.997192 0.239812
vt 0.523397 0.634051
vt 0.480637 0.666785
vt 0.427605 0.675849
vt 0.376527 0.658960
vt 0.339075 0.620128
vt 0.323821 0.568258
vt 0.334343 0.515238
vt 0.368294 0.473181
vt 0.417735 0.451888
vt 0.471219 0.456072
vt 0.516630 0.484705
vt 0.543604 0.531326
vt 0.417104 0.452662
vt 0.367708 0.474102
vt 0.333963 0.515951
vt 0.323519 0.568767
vt 0.338849 0.620415
vt 0.376449 0.659062
vt 0.427649 0.675799
vt 0.480774 0.666638
vt 0.523534 0.633903
vt 0.546163 0.585108
vt 0.543501 0.531433
vt 0.516328 0.485041
vt 0.470726 0.456635
vt 0.004966 0.022773
vt 0.982678 0.133068
vt 0.005721 0.021836
vt 0.982312 0.132130
vt 0.006503 0.020899
vt 0.982321 0.131192
vt 0.005800 0.020274
vt 0.982733 0.130255
vt 0.301344 0.385943
vt 0.234300 0.469221
vt 0.221953 0.463293
vt 0.292878 0.375191
vt 0.199503 0.575002
vt 0.213215 0.574369
vt 0.869628 0.136166
vt 0.998022 0.136823
vt 0.831606 0.418113
vt 0.686251 0.996937
vt 0.864094 0.409234
vt 0.863671 0.226498
vt 0.758515 0.135724
vt 0.736550 0.159972
vt 0.992874 0.944189
vt 0.994197 0.997283
vn 0.530440 -0.773991 0.345792
vn 0.530440 -0.773991 0.345792
vn 0.530440 -0.773991 0.345792
vn 0.530440 -0.773991 0.345792
vn 0.530440 -0.773991 0.345792
vn 0.530440 -0.773991 0.345792
vn 0.530440 -0.773991 0.345792
vn 0.530440 -0.773991 0.345792
vn 0.530440 -0.773991 0.345792
vn 0.530440 -0.773991 0.345792
vn 0.530440 -0.773991 0.345792
vn 0.530440 -0.773991 0.345792
vn 0.530440 -0.773991 0.345792
vn 0.530440 -0.773991 0.345792
vn 0.530440 -0.773991 0.345792
vn 0.530440 -0.773991 0.345792
vn 0.530440 -0.773991 0.345792
vn 0.530440 -0.773991 0.345792
vn 0.530440 -0.773991 0.345792
vn 0.530440 -0.773991 0.345792
vn 0.530440 -0.773991 0.345792
vn 0.530440 -0.773991 0.345792
vn 0.530440 -0.773991 0.345792
vn 0.530440 -0.773991 0.345792
vn 0.530440 -0.773991 0.345792
vn 0.530440 -0.773991 0.345792
vn 0.530440 -0.773991 0.345792
vn 0.530440 -0.773991 0.345792
vn 0.530440 -0.773991 0.345792
vn 0.530440 -0.773991 0.345792
vn 0.530440 -0.773991 0.345792
vn 0.530440 -0.773991 0.345792
vn 0.530440 -0.773991 0.345792
vn 0.530440 -0.773991 0.345792
vn 0.530440 -0.773991 0.345792
vn 0.530440 -0.773991 0.345792
vn 0.530440 -0.773991 0.345792
vn 0.530440 -0.773991 0.345792
vn 0.530440 -0.773991 0.345792
vn 0.530440 -0.773991 0.345792
vn 0.530440 -0.773991 0.345792
vn 0.530440 -0.773991 0.345792
vn 0.530440 -0.773991 0.345792
vn 0.530440 -0.773991 0.345792
vn 0.530440 -0.773991 0.345792
vn 0.530440 -0.773991 0.345792
vn 0.530440 -0.773991 0.345792
vn 0.530440 -0.773991 0.345792
vn 0.530440 -0.773991 0.345792
vn 0.530440 -0.773991 0.345792
vn 0.530440 -0.773991 0.345792
vn 0.530440 -0.773991 0.345792
vn -0.530440 0.773991 -0.345792
vn -0.530440 0.773991 -0.345792
vn -0.530440 0.773991 -0.345792
vn -0.530440 0.773991 -0.345792
vn -0.530440 0.773991 -0.345792
vn -0.530440 0.773991 -0.345792
vn -0.530440 0.773991 -0.345792
vn -0.530440 0.773991 -0.345792
vn -0.530440 0.773991 -0.345792
vn -0.530440 0.773991 -0.345792
vn -0.530440 0.773991 -0.345792
vn -0.530440 0.773991 -0.345792
vn -0.530440 0.773991 -0.345792
vn -0.530440 0.773991 -0.345792
vn -0.530440 0.773991 -0.345792
vn -0.530440 0.773991 -0.345792
vn -0.530440 0.773991 -0.345792
vn -0.530440 0.773991 -0.345792
vn -0.530440 0.773991 -0.345792
vn -0.530440 0.773991 -0.345792
vn -0.530440 0.773991 -0.345792
vn -0.530440 0.773991 -0.345792
vn -0.530440 0.773991 -0.345792
vn -0.530440 0.773991 -0.345792
vn -0.530440 0.773991 -0.345792
vn -0.530440 0.773991 -0.345792
vn -0.530440 0.773991 -0.345792
vn -0.530440 0.773991 -0.345792
vn -0.530440 0.773991 -0.345792
vn -0.530440 0.773991 -0.345792
vn -0.530440 0.773991 -0.345792
vn -0.530440 0.773991 -0.345792
vn -0.530440 0.773991 -0.345792
vn -0.530440 0.773991 -0.345792
vn -0.530440 0.773991 -0.345792
vn -0.530440 0.773991 -0.345792
vn -0.530440 0.773991 -0.345792
vn -0.530440 0.773991 -0.345792
vn -0.530440 0.773991 -0.345792
vn -0.530440 0.773991 -0.345792
vn -0.530440 0.773991 -0.345792
vn -0.530440 0.773991 -0.345792
vn -0.530440 0.773991 -0.345792
vn -0.530440 0.773991 -0.345792
vn -0.530440 0.773991 -0.345792
vn -0.530440 0.773991 -0.345792
vn -0.530440 0.773991 -0.345792
vn -0.530440 0.773991 -0.345792
vn 0.530440 -0.773991 0.345792
vn 0.530440 -0.773991 0.345792
vn 0.530440 -0.773991 0.345792
vn 0.530440 -0.773991 0.345792
vn -0.530440 0.773991 -0.345792
vn -0.530440 0.773991 -0.345792
vn -0.530440 0.773991 -0.345792
vn -0.530440 0.773991 -0.345792
vn 0.530440 -0.773991 0.345792
vn 0.530440 -0.773991 0.345792
vn 0.530440 -0.773991 0.345792
vn 0.530440 -0.773991 0.345792
vn -0.530440 0.773991 -0.345792
vn -0.530440 0.773991 -0.345792
vn -0.530440 0.773991 -0.345792
vn -0.530440 0.773991 -0.345792
vn 0.530440 -0.773991 0.345792
vn 0.530440 -0.773991 0.345792
vn 0.530440 -0.773991 0.345792
vn 0.530440 -0.773991 0.345792
vn -0.530440 0.773991 -0.345792
vn -0.530440 0.773991 -0.345792
vn -0.530440 0.773991 -0.345792
vn -0.530440 0.773991 -0.345792
vn 0.530440 -0.773991 0.345792
vn 0.530440 -0.773991 0.345792
vn 0.530440 -0.773991 0.345792
vn 0.530440 -0.773991 0.345792
vn -0.530440 0.773991 -0.345792
vn -0.530440 0.773991 -0.345792
vn -0.530440 0.773991 -0.345792
vn -0.530440 0.773991 -0.345792
vn 0.530440 -0.773991 0.345792
vn 0.530440 -0.773991 0.345792
vn 0.530440 -0.773991 0.345792
vn 0.530440 -0.773991 0.345792
vn -0.530440 0.773991 -0.345792
vn -0.530440 0.773991 -0.345792
vn -0.530440 0.773991 -0.345792
vn -0.530440 0.773991 -0.345792
vn 0.530440 -0.773991 0.345792
vn 0.530440 -0.773991 0.345792
vn 0.530440 -0.773991 0.345792
vn 0.530440 -0.773991 0.345792
vn -0.530440 0.773991 -0.345791
vn -0.530440 0.773991 -0.345791
vn -0.530440 0.773991 -0.345791
vn -0.530440 0.773991 -0.345791
vn 0.530440 -0.773991 0.345792
vn 0.530440 -0.773991 0.345792
vn 0.530440 -0.773991 0.345792
vn 0.530440 -0.773991 0.345792
vn -0.530440 0.773991 -0.345792
vn -0.530440 0.773991 -0.345792
vn -0.530440 0.773991 -0.345792
vn -0.530440 0.773991 -0.345792
vn 0.530440 -0.773991 0.345792
vn 0.530440 -0.773991 0.345792
vn 0.530440 -0.773991 0.345792
vn 0.530440 -0.773991 0.345792
vn -0.530440 0.773991 -0.345792
vn -0.530440 0.773991 -0.345792
vn -0.530440 0.773991 -0.345792
vn -0.530440 0.773991 -0.345792
vn 0.530440 -0.773991 0.345792
vn 0.530440 -0.773991 0.345792
vn 0.530440 -0.773991 0.345792
vn 0.530440 -0.773991 0.345792
vn -0.530440 0.773991 -0.345792
vn -0.530440 0.773991 -0.345792
vn -0.530440 0.773991 -0.345792
vn -0.530440 0.773991 -0.345792
vn 0.530440 -0.773991 0.345792
vn 0.530440 -0.773991 0.345792
vn 0.530440 -0.773991 0.345792
vn 0.530440 -0.773991 0.345792
vn -0.530440 0.773991 -0.345792
vn -0.530440 0.773991 -0.345792
vn -0.530440 0.773991 -0.345792
vn -0.530440 0.773991 -0.345792
vn 0.530440 -0.773991 0.345792
vn 0.530440 -0.773991 0.345792
vn 0.530440 -0.773991 0.345792
vn 0.530440 -0.773991 0.345792
vn -0.530440 0.773991 -0.345792
vn -0.530440 0.773991 -0.345792
vn -0.530440 0.773991 -0.345792
vn -0.530440 0.773991 -0.345792
vn 0.530440 -0.773991 0.345792
vn 0.530440 -0.773991 0.345792
vn 0.530440 -0.773991 0.345792
vn 0.530440 -0.773991 0.345792
vn -0.530440 0.773991 -0.345791
vn -0.530440 0.773991 -0.345791
vn -0.530440 0.773991 -0.345791
vn -0.530440 0.773991 -0.345791
vn 0.530440 -0.773991 0.345792
vn 0.530440 -0.773991 0.345792
vn 0.530440 -0.773991 0.345792
vn 0.530440 -0.773991 0.345792
vn -0.530440 0.773991 -0.345792
vn -0.530440 0.773991 -0.345792
vn -0.530440 0.773991 -0.345792
vn -0.530440 0.773991 -0.345792
vn 0.609019 0.064188 -0.790554
vn 0.609019 0.064188 -0.790554
vn 0.609019 0.064188 -0.790554
vn 0.609019 0.064188 -0.790554
vn -0.450202 0.088430 0.888537
vn -0.732444 -0.213077 0.646625
vn -0.732444 -0.213077 0.646625
vn -0.450202 0.088430 0.888537
vn 0.813302 0.349584 -0.465115
vn 0.813302 0.349584 -0.465115
vn 0.813302 0.349584 -0.465115
vn 0.813302 0.349584 -0.465115
vn -0.732444 -0.213077 0.646625
vn -0.846891 -0.465770 0.256579
vn -0.846891 -0.465770 0.256579
vn -0.732444 -0.213077 0.646625
vn 0.831264 0.554889 -0.033133
vn 0.831264 0.554889 -0.033133
vn 0.831264 0.554889 -0.033133
vn 0.831264 0.554889 -0.033133
vn -0.846891 -0.465770 0.256579
vn -0.767326 -0.611761 -0.192246
vn -0.767326 -0.611761 -0.192246
vn -0.846891 -0.465770 0.256579
vn 0.658793 0.633079 0.406451
vn 0.658793 0.633079 0.406451
vn 0.658793 0.633079 0.406451
vn 0.658793 0.633079 0.406451
vn -0.767326 -0.611761 -0.192246
vn -0.511975 -0.617605 -0.597031
vn -0.511975 -0.617605 -0.597031
vn -0.767326 -0.611761 -0.192246
vn 0.335403 0.566238 0.752914
vn 0.335403 0.566238 0.752914
vn 0.335403 0.566238 0.752914
vn 0.335403 0.566238 0.752914
vn -0.511975 -0.617605 -0.597031
vn -0.139338 -0.481963 -0.865041
vn -0.139338 -0.481963 -0.865041
vn -0.511975 -0.617605 -0.597031
vn -0.064824 0.369678 0.926896
vn -0.064824 0.369678 0.926896
vn -0.064824 0.369678 0.926896
vn -0.064824 0.369678 0.926896
vn -0.139338 -0.481963 -0.865041
vn 0.265220 -0.235909 -0.934883
vn 0.265220 -0.235909 -0.934883
vn -0.139338 -0.481963 -0.865041
vn -0.450202 0.088430 0.888537
vn -0.450202 0.088430 0.888537
vn -0.450202 0.088430 0.888537
vn -0.450202 0.088430 0.888537
vn 0.265220 -0.235909 -0.934883
vn 0.609021 0.064190 -0.790553
vn 0.609021 0.064190 -0.790553
vn 0.265220 -0.235909 -0.934883
vn -0.732445 -0.213078 0.646624
vn -0.732445 -0.213078 0.646624
vn -0.732445 -0.213078 0.646624
vn -0.732445 -0.213078 0.646624
vn 0.609021 0.064190 -0.790553
vn 0.813301 0.349582 -0.465118
vn 0.813301 0.349582 -0.465118
vn 0.609021 0.064190 -0.790553
vn -0.846891 -0.465770 0.256581
vn -0.846891 -0.465770 0.256581
vn -0.846891 -0.465770 0.256581
vn -0.846891 -0.465770 0.256581
vn 0.813301 0.349582 -0.465118
vn 0.831264 0.554890 -0.033130
vn 0.831264 0.554890 -0.033130
vn 0.813301 0.349582 -0.465118
vn -0.767326 -0.611761 -0.192246
vn -0.767326 -0.611761 -0.192246
vn -0.767326 -0.611761 -0.192246
vn -0.767326 -0.611761 -0.192246
vn 0.831264 0.554890 -0.033130
vn 0.658794 0.633079 0.406449
vn 0.658794 0.633079 0.406449
vn 0.831264 0.554890 -0.033130
vn -0.511976 -0.617605 -0.597031
vn -0.511976 -0.617605 -0.597031
vn -0.511976 -0.617605 -0.597031
vn -0.511976 -0.617605 -0.597031
vn 0.658794 0.633079 0.406449
vn 0.335403 0.566237 0.752914
vn 0.335403 0.566237 0.752914
vn 0.658794 0.633079 0.406449
vn -0.139338 -0.481963 -0.865042
vn -0.139338 -0.481963 -0.865042
vn -0.139338 -0.481963 -0.865042
vn -0.139338 -0.481963 -0.865042
vn 0.335403 0.566237 0.752914
vn -0.064825 0.369678 0.926896
vn -0.064825 0.369678 0.926896
vn 0.335403 0.566237 0.752914
vn 0.265221 -0.235909 -0.934883
vn 0.265221 -0.235909 -0.934883
vn 0.265221 -0.235909 -0.934883
vn 0.265221 -0.235909 -0.934883
vn -0.064825 0.369678 0.926896
vn -0.450202 0.088430 0.888537
vn -0.450202 0.088430 0.888537
vn -0.064825 0.369678 0.926896
vn 0.609019 0.064188 -0.790554
vn 0.609019 0.064188 -0.790554
vn 0.609019 0.064188 -0.790554
vn 0.609019 0.064188 -0.790554
vn 0.813302 0.349584 -0.465115
vn 0.813302 0.349584 -0.465115
vn 0.813302 0.349584 -0.465115
vn 0.813302 0.349584 -0.465115
vn 0.831264 0.554889 -0.033133
vn 0.831264 0.554889 -0.033133
vn 0.831264 0.554889 -0.033133
vn 0.831264 0.554889 -0.033133
vn 0.658793 0.633079 0.406451
vn 0.658793 0.633079 0.406451
vn 0.658793 0.633079 0.406451
vn 0.658793 0.633079 0.406451
vn 0.335403 0.566238 0.752914
vn 0.335403 0.566238 0.752914
vn 0.335403 0.566238 0.752914
vn 0.335403 0.566238 0.752914
vn -0.064824 0.369678 0.926896
vn -0.064824 0.369678 0.926896
vn -0.064824 0.369678 0.926896
vn -0.064824 0.369678 0.926896
vn -0.450202 0.088430 0.888537
vn -0.450202 0.088430 0.888537
vn -0.450202 0.088430 0.888537
vn -0.450202 0.088430 0.888537
vn -0.732445 -0.213078 0.646624
vn -0.732445 -0.213078 0.646624
vn -0.732445 -0.213078 0.646624
vn -0.732445 -0.213078 0.646624
vn -0.846891 -0.465770 0.256581
vn -0.846891 -0.465770 0.256581
vn -0.846891 -0.465770 0.256581
vn -0.846891 -0.465770 0.256581
vn -0.767326 -0.611761 -0.192246
vn -0.767326 -0.611761 -0.192246
vn -0.767326 -0.611761 -0.192246
vn -0.767326 -0.611761 -0.192246
vn -0.511976 -0.617605 -0.597031
vn -0.511976 -0.617605 -0.597031
vn -0.511976 -0.617605 -0.597031
vn -0.511976 -0.617605 -0.597031
vn -0.139338 -0.481963 -0.865042
vn -0.139338 -0.481963 -0.865042
vn -0.139338 -0.481963 -0.865042
vn -0.139338 -0.481963 -0.865042
vn 0.265220 -0.235909 -0.934883
vn 0.265220 -0.235909 -0.934883
vn 0.265220 -0.235909 -0.934883
vn 0.265220 -0.235909 -0.934883
vn 0.350731 -0.802254 0.483091
vn 0.415078 -0.734368 0.537042
vn 0.380614 -0.763810 0.521275
vn 0.372692 -0.772223 0.514561
vn -0.618508 0.773788 -0.136749
vn -0.682595 0.705523 -0.190530
vn -0.659878 0.734451 -0.158567
vn -0.651969 0.742883 -0.151862
vn 0.415078 -0.734368 0.537042
vn 0.502106 -0.671786 0.544603
vn 0.461432 -0.695816 0.550382
vn 0.450668 -0.703616 0.549384
vn -0.531841 0.836896 -0.129423
vn -0.618508 0.773788 -0.136749
vn -0.582223 0.803525 -0.123954
vn -0.571477 0.811353 -0.122967
vn 0.502106 -0.671786 0.544603
vn 0.591435 -0.628824 0.504763
vn 0.553849 -0.641943 0.530245
vn 0.542740 -0.647345 0.535144
vn -0.442888 0.880408 -0.169508
vn -0.531841 0.836896 -0.129423
vn -0.490533 0.860355 -0.138443
vn -0.479443 0.865785 -0.143354
vn 0.591435 -0.628824 0.504763
vn 0.662815 -0.614875 0.427324
vn 0.636571 -0.614201 0.466406
vn 0.627648 -0.615995 0.476033
vn -0.371814 0.894803 -0.247146
vn -0.442888 0.880408 -0.169508
vn -0.405980 0.892223 -0.197785
vn -0.397073 0.894041 -0.207423
vn 0.662815 -0.614875 0.427324
vn 0.700568 -0.632653 0.330083
vn 0.691256 -0.618327 0.373948
vn 0.686519 -0.616136 0.386093
vn -0.334231 0.877274 -0.344499
vn -0.371814 0.894803 -0.247146
vn -0.347359 0.892447 -0.287888
vn -0.342631 0.890270 -0.300040
vn 0.700568 -0.632653 0.330083
vn 0.696603 -0.677978 0.234713
vn 0.706187 -0.652999 0.273664
vn 0.706683 -0.647334 0.285585
vn -0.338197 0.831949 -0.439869
vn -0.334231 0.877274 -0.344499
vn -0.327288 0.861385 -0.388457
vn -0.327784 0.855719 -0.400378
vn 0.696603 -0.677978 0.234713
vn 0.651795 -0.740820 0.162322
vn 0.678267 -0.710456 0.187635
vn 0.683884 -0.702589 0.196652
vn -0.382834 0.768858 -0.512149
vn -0.338197 0.831949 -0.439869
vn -0.350003 0.806008 -0.477336
vn -0.355611 0.798127 -0.486347
vn 0.651795 -0.740820 0.162322
vn 0.575819 -0.807298 0.129234
vn 0.613464 -0.778111 0.134925
vn 0.622956 -0.769810 0.138988
vn -0.458503 0.701933 -0.545037
vn -0.382834 0.768858 -0.512149
vn -0.410688 0.738431 -0.534841
vn -0.420164 0.730107 -0.538894
vn 0.575819 -0.807298 0.129234
vn 0.485427 -0.862423 0.143485
vn 0.525800 -0.840959 0.127759
vn 0.537036 -0.834110 0.125906
vn -0.548520 0.646260 -0.530541
vn -0.458503 0.701933 -0.545037
vn -0.496257 0.673618 -0.547694
vn -0.507473 0.666740 -0.545828
vn 0.485427 -0.862423 0.143485
vn 0.401171 -0.893318 0.202594
vn 0.434834 -0.884585 0.168607
vn 0.445249 -0.880775 0.161210
vn -0.632415 0.614838 -0.471196
vn -0.548520 0.646260 -0.530541
vn -0.587660 0.626394 -0.512140
vn -0.598056 0.622556 -0.504730
vn 0.401171 -0.893318 0.202594
vn 0.342846 -0.892377 0.293463
vn 0.361646 -0.898471 0.248921
vn 0.368821 -0.898608 0.237646
vn -0.690480 0.615400 -0.380158
vn -0.632415 0.614838 -0.471196
vn -0.663763 0.608085 -0.435491
vn -0.670924 0.608202 -0.424207
vn 0.342846 -0.892377 0.293463
vn 0.324529 -0.859462 0.394975
vn 0.323812 -0.878852 0.350378
vn 0.326057 -0.882926 0.337828
vn -0.708702 0.648176 -0.278584
vn -0.690480 0.615400 -0.380158
vn -0.706337 0.623489 -0.335185
vn -0.708577 0.627557 -0.322632
vn 0.324529 -0.859462 0.394975
vn 0.350731 -0.802254 0.483091
vn 0.330679 -0.830092 0.448996
vn 0.327460 -0.837162 0.438098
vn -0.682595 0.705523 -0.190530
vn -0.708702 0.648176 -0.278584
vn -0.704929 0.669247 -0.234912
vn -0.701714 0.676324 -0.224017
vn -0.609020 -0.064189 0.790553
vn -0.609020 -0.064189 0.790553
vn -0.609020 -0.064189 0.790553
vn -0.609020 -0.064189 0.790553
vn -0.265221 0.235908 0.934883
vn -0.265221 0.235908 0.934883
vn -0.265221 0.235908 0.934883
vn -0.265221 0.235908 0.934883
vn 0.139338 0.481963 0.865041
vn 0.139338 0.481963 0.865041
vn 0.139338 0.481963 0.865041
vn 0.139338 0.481963 0.865041
vn 0.511976 0.617605 0.597030
vn 0.511976 0.617605 0.597030
vn 0.511976 0.617605 0.597030
vn 0.511976 0.617605 0.597030
vn 0.767326 0.611761 0.192246
vn 0.767326 0.611761 0.192246
vn 0.767326 0.611761 0.192246
vn 0.767326 0.611761 0.192246
vn 0.846892 0.465770 -0.256579
vn 0.846892 0.465770 -0.256579
vn 0.846892 0.465770 -0.256579
vn 0.846892 0.465770 -0.256579
vn 0.732444 0.213077 -0.646625
vn 0.732444 0.213077 -0.646625
vn 0.732444 0.213077 -0.646625
vn 0.732444 0.213077 -0.646625
vn 0.450202 -0.088429 -0.888537
vn 0.450202 -0.088429 -0.888537
vn 0.450202 -0.088429 -0.888537
vn 0.450202 -0.088429 -0.888537
vn 0.064825 -0.369678 -0.926896
vn 0.064825 -0.369678 -0.926896
vn 0.064825 -0.369678 -0.926896
vn 0.064825 -0.369678 -0.926896
vn -0.335404 -0.566238 -0.752914
vn -0.335404 -0.566238 -0.752914
vn -0.335404 -0.566238 -0.752914
vn -0.335404 -0.566238 -0.752914
vn -0.658795 -0.633079 -0.406449
vn -0.658795 -0.633079 -0.406449
vn -0.658795 -0.633079 -0.406449
vn -0.658795 -0.633079 -0.406449
vn -0.831264 -0.554890 0.033129
vn -0.831264 -0.554890 0.033129
vn -0.831264 -0.554890 0.033129
vn -0.831264 -0.554890 0.033129
vn -0.813301 -0.349582 0.465117
vn -0.813301 -0.349582 0.465117
vn -0.813301 -0.349582 0.465117
vn -0.813301 -0.349582 0.465117
vn -0.609020 -0.064189 0.790553
vn -0.609020 -0.064189 0.790553
vn -0.609020 -0.064189 0.790553
vn -0.609020 -0.064189 0.790553
vn 0.609020 0.064189 -0.790553
vn 0.609020 0.064189 -0.790553
vn 0.609020 0.064189 -0.790553
vn 0.609020 0.064189 -0.790553
vn -0.265221 0.235908 0.934883
vn -0.265221 0.235908 0.934883
vn -0.265221 0.235908 0.934883
vn -0.265221 0.235908 0.934883
vn 0.265221 -0.235908 -0.934883
vn 0.265221 -0.235908 -0.934883
vn 0.265221 -0.235908 -0.934883
vn 0.265221 -0.235908 -0.934883
vn 0.139338 0.481963 0.865041
vn 0.139338 0.481963 0.865041
vn 0.139338 0.481963 0.865041
vn 0.139338 0.481963 0.865041
vn -0.139338 -0.481963 -0.865042
vn -0.139338 -0.481963 -0.865042
vn -0.139338 -0.481963 -0.865042
vn -0.139338 -0.481963 -0.865042
vn 0.511976 0.617605 0.597030
vn 0.511976 0.617605 0.597030
vn 0.511976 0.617605 0.597030
vn 0.511976 0.617605 0.597030
vn -0.511976 -0.617605 -0.597030
vn -0.511976 -0.617605 -0.597030
vn -0.511976 -0.617605 -0.597030
vn -0.511976 -0.617605 -0.597030
vn 0.767326 0.611761 0.192246
vn 0.767326 0.611761 0.192246
vn 0.767326 0.611761 0.192246
vn 0.767326 0.611761 0.192246
vn -0.767326 -0.611761 -0.192246
vn -0.767326 -0.611761 -0.192246
vn -0.767326 -0.611761 -0.192246
vn -0.767326 -0.611761 -0.192246
vn 0.846892 0.465770 -0.256579
vn 0.846892 0.465770 -0.256579
vn 0.846892 0.465770 -0.256579
vn 0.846892 0.465770 -0.256579
vn -0.846892 -0.465771 0.256579
vn -0.846892 -0.465771 0.256579
vn -0.846892 -0.465771 0.256579
vn -0.846892 -0.465771 0.256579
vn 0.732444 0.213077 -0.646625
vn 0.732444 0.213077 -0.646625
vn 0.732444 0.213077 -0.646625
vn 0.732444 0.213077 -0.646625
vn -0.732444 -0.213077 0.646625
vn -0.732444 -0.213077 0.646625
vn -0.732444 -0.213077 0.646625
vn -0.732444 -0.213077 0.646625
vn 0.450202 -0.088429 -0.888537
vn 0.450202 -0.088429 -0.888537
vn 0.450202 -0.088429 -0.888537
vn 0.450202 -0.088429 -0.888537
vn -0.450202 0.088429 0.888537
vn -0.450202 0.088429 0.888537
vn -0.450202 0.088429 0.888537
vn -0.450202 0.088429 0.888537
vn 0.064825 -0.369678 -0.926896
vn 0.064825 -0.369678 -0.926896
vn 0.064825 -0.369678 -0.926896
vn 0.064825 -0.369678 -0.926896
vn -0.064825 0.369678 0.926896
vn -0.064825 0.369678 0.926896
vn -0.064825 0.369678 0.926896
vn -0.064825 0.369678 0.926896
vn -0.335404 -0.566238 -0.752914
vn -0.335404 -0.566238 -0.752914
vn -0.335404 -0.566238 -0.752914
vn -0.335404 -0.566238 -0.752914
vn 0.335403 0.566238 0.752914
vn 0.335403 0.566238 0.752914
vn 0.335403 0.566238 0.752914
vn 0.335403 0.566238 0.752914
vn -0.658795 -0.633079 -0.406449
vn -0.658795 -0.633079 -0.406449
vn -0.658795 -0.633079 -0.406449
vn -0.658795 -0.633079 -0.406449
vn 0.658795 0.633079 0.406449
vn 0.658795 0.633079 0.406449
vn 0.658795 0.633079 0.406449
vn 0.658795 0.633079 0.406449
vn -0.831264 -0.554890 0.033129
vn -0.831264 -0.554890 0.033129
vn -0.831264 -0.554890 0.033129
vn -0.831264 -0.554890 0.033129
vn 0.831264 0.554890 -0.033129
vn 0.831264 0.554890 -0.033129
vn 0.831264 0.554890 -0.033129
vn 0.831264 0.554890 -0.033129
vn -0.813301 -0.349582 0.465117
vn -0.813301 -0.349582 0.465117
vn -0.813301 -0.349582 0.465117
vn -0.813301 -0.349582 0.465117
vn 0.813301 0.349582 -0.465117
vn 0.813301 0.349582 -0.465117
vn 0.813301 0.349582 -0.465117
vn 0.813301 0.349582 -0.465117
vn 0.732444 0.213077 -0.646625
vn 0.732444 0.213077 -0.646625
vn 0.732444 0.213077 -0.646625
vn 0.732444 0.213077 -0.646625
vn 0.450202 -0.088429 -0.888537
vn 0.450202 -0.088429 -0.888537
vn 0.450202 -0.088429 -0.888537
vn 0.450202 -0.088429 -0.888537
vn 0.064825 -0.369678 -0.926896
vn 0.064825 -0.369678 -0.926896
vn 0.064825 -0.369678 -0.926896
vn 0.064825 -0.369678 -0.926896
vn -0.335403 -0.566238 -0.752914
vn -0.335403 -0.566238 -0.752914
vn -0.335403 -0.566238 -0.752914
vn -0.335403 -0.566238 -0.752914
vn -0.658795 -0.633079 -0.406449
vn -0.658795 -0.633079 -0.406449
vn -0.658795 -0.633079 -0.406449
vn -0.658795 -0.633079 -0.406449
vn -0.831264 -0.554890 0.033129
vn -0.831264 -0.554890 0.033129
vn -0.831264 -0.554890 0.033129
vn -0.831264 -0.554890 0.033129
vn -0.813301 -0.349582 0.465118
vn -0.813301 -0.349582 0.465118
vn -0.813301 -0.349582 0.465118
vn -0.813301 -0.349582 0.465118
vn -0.609020 -0.064189 0.790553
vn -0.609020 -0.064189 0.790553
vn -0.609020 -0.064189 0.790553
vn -0.609020 -0.064189 0.790553
vn -0.265220 0.235909 0.934883
vn -0.265220 0.235909 0.934883
vn -0.265220 0.235909 0.934883
vn -0.265220 0.235909 0.934883
vn 0.139338 0.481963 0.865041
vn 0.139338 0.481963 0.865041
vn 0.139338 0.481963 0.865041
vn 0.139338 0.481963 0.865041
vn 0.511976 0.617605 0.597030
vn 0.511976 0.617605 0.597030
vn 0.511976 0.617605 0.597030
vn 0.511976 0.617605 0.597030
vn 0.767327 0.611761 0.192246
vn 0.767327 0.611761 0.192246
vn 0.767327 0.611761 0.192246
vn 0.767327 0.611761 0.192246
vn 0.846891 0.465770 -0.256579
vn 0.846891 0.465770 -0.256579
vn 0.846891 0.465770 -0.256579
vn 0.846891 0.465770 -0.256579
vn 0.330679 -0.830092 0.448996
vn 0.350731 -0.802254 0.483091
vn 0.372692 -0.772223 0.514561
vn -0.701714 0.676324 -0.224017
vn -0.659878 0.734451 -0.158567
vn -0.682595 0.705523 -0.190530
vn 0.380614 -0.763810 0.521275
vn 0.415078 -0.734368 0.537042
vn 0.450668 -0.703616 0.549384
vn -0.582223 0.803525 -0.123954
vn -0.618508 0.773788 -0.136749
vn -0.651969 0.742883 -0.151862
vn 0.461432 -0.695816 0.550382
vn 0.502106 -0.671786 0.544603
vn 0.542740 -0.647345 0.535144
vn -0.490533 0.860355 -0.138443
vn -0.531841 0.836896 -0.129423
vn -0.571477 0.811353 -0.122967
vn 0.553849 -0.641943 0.530245
vn 0.591435 -0.628824 0.504763
vn 0.627648 -0.615995 0.476033
vn -0.405980 0.892223 -0.197785
vn -0.442888 0.880408 -0.169508
vn -0.479443 0.865785 -0.143354
vn 0.636571 -0.614201 0.466406
vn 0.662815 -0.614875 0.427324
vn 0.686519 -0.616136 0.386093
vn -0.347359 0.892447 -0.287888
vn -0.371814 0.894803 -0.247146
vn -0.397073 0.894041 -0.207423
vn 0.691256 -0.618327 0.373948
vn 0.700568 -0.632653 0.330083
vn 0.706683 -0.647334 0.285585
vn -0.327288 0.861385 -0.388457
vn -0.334231 0.877274 -0.344499
vn -0.342631 0.890270 -0.300040
vn 0.706187 -0.652999 0.273664
vn 0.696603 -0.677978 0.234713
vn 0.683884 -0.702589 0.196652
vn -0.350003 0.806008 -0.477336
vn -0.338197 0.831949 -0.439869
vn -0.327784 0.855719 -0.400378
vn 0.678267 -0.710456 0.187635
vn 0.651795 -0.740820 0.162322
vn 0.622956 -0.769810 0.138988
vn -0.410688 0.738431 -0.534841
vn -0.382834 0.768858 -0.512149
vn -0.355611 0.798127 -0.486347
vn 0.613464 -0.778111 0.134925
vn 0.575819 -0.807298 0.129234
vn 0.537036 -0.834110 0.125906
vn -0.496257 0.673618 -0.547694
vn -0.458503 0.701933 -0.545037
vn -0.420164 0.730107 -0.538894
vn 0.525800 -0.840959 0.127759
vn 0.485427 -0.862423 0.143485
vn 0.445249 -0.880775 0.161210
vn -0.587660 0.626394 -0.512140
vn -0.548520 0.646260 -0.530541
vn -0.507473 0.666740 -0.545828
vn 0.434834 -0.884585 0.168607
vn 0.401171 -0.893318 0.202594
vn 0.368821 -0.898608 0.237646
vn -0.663763 0.608085 -0.435491
vn -0.632415 0.614838 -0.471196
vn -0.598056 0.622556 -0.504730
vn 0.361646 -0.898471 0.248921
vn 0.342846 -0.892377 0.293463
vn 0.326057 -0.882926 0.337828
vn -0.706337 0.623489 -0.335185
vn -0.690480 0.615400 -0.380158
vn -0.670924 0.608202 -0.424207
vn 0.323812 -0.878852 0.350378
vn 0.324529 -0.859462 0.394975
vn 0.327460 -0.837162 0.438098
vn -0.704929 0.669247 -0.234912
vn -0.708702 0.648176 -0.278584
vn -0.708577 0.627557 -0.322632
vn -0.666789 -0.632822 -0.393609
vn -0.666789 -0.632822 -0.393609
vn -0.666789 -0.632822 -0.393609
vn -0.666789 -0.632822 -0.393609
vn -0.403828 0.771938 -0.490953
vn -0.403828 0.771938 -0.490953
vn -0.403828 0.771938 -0.490953
vn -0.403828 0.771938 -0.490953
vn 0.503198 0.615748 0.606339
vn 0.503198 0.615748 0.606339
vn 0.503198 0.615748 0.606339
vn 0.503198 0.615748 0.606339
vn 0.637369 -0.747324 0.187800
vn 0.637369 -0.747324 0.187800
vn 0.637369 -0.747324 0.187800
vn 0.637369 -0.747324 0.187800
vn -0.833739 -0.550099 0.047648
vn -0.833739 -0.550099 0.047648
vn -0.833739 -0.550099 0.047648
vn -0.833739 -0.550099 0.047648
vn -0.469792 0.714447 -0.518519
vn -0.469792 0.714447 -0.518519
vn -0.469792 0.714446 -0.518519
vn -0.469792 0.714447 -0.518519
vn 0.762803 0.613738 0.203611
vn 0.762803 0.613738 0.203611
vn 0.762803 0.613738 0.203611
vn 0.762803 0.613738 0.203611
vn 0.571431 -0.804852 0.160250
vn 0.571431 -0.804852 0.160250
vn 0.571431 -0.804852 0.160250
vn 0.571431 -0.804852 0.160250
vn -0.809503 -0.341370 0.477673
vn -0.809503 -0.341370 0.477673
vn -0.809503 -0.341370 0.477673
vn -0.809503 -0.341370 0.477673
vn -0.547305 0.667393 -0.505019
vn -0.547305 0.667393 -0.505019
vn -0.547305 0.667393 -0.505019
vn -0.547305 0.667393 -0.505019
vn 0.847286 0.470965 -0.245558
vn 0.847286 0.470964 -0.245558
vn 0.847286 0.470964 -0.245558
vn 0.847286 0.470964 -0.245558
vn 0.493948 -0.851950 0.173770
vn 0.493948 -0.851950 0.173770
vn 0.493948 -0.851950 0.173770
vn 0.493948 -0.851950 0.173770
vn -0.600051 -0.054674 0.798092
vn -0.600051 -0.054674 0.798092
vn -0.600051 -0.054674 0.798092
vn -0.600051 -0.054674 0.798092
vn -0.618595 0.641529 -0.453631
vn -0.618595 0.641529 -0.453631
vn -0.618595 0.641529 -0.453631
vn -0.618595 0.641529 -0.453631
vn 0.737668 0.220438 -0.638164
vn 0.737668 0.220438 -0.638164
vn 0.737668 0.220438 -0.638164
vn 0.737668 0.220438 -0.638164
vn 0.422687 -0.877856 0.225177
vn 0.422687 -0.877856 0.225177
vn 0.422687 -0.877856 0.225177
vn 0.422687 -0.877856 0.225177
vn -0.253575 0.244363 0.935942
vn -0.253575 0.244363 0.935942
vn -0.253575 0.244363 0.935942
vn -0.253575 0.244363 0.935942
vn -0.667384 0.642722 -0.376173
vn -0.667384 0.642722 -0.376173
vn -0.667384 0.642722 -0.376173
vn -0.667384 0.642722 -0.376173
vn 0.459426 -0.080338 -0.884575
vn 0.459426 -0.080338 -0.884575
vn 0.459426 -0.080338 -0.884575
vn 0.459426 -0.080338 -0.884575
vn 0.373918 -0.876693 0.302648
vn 0.373918 -0.876693 0.302648
vn 0.373918 -0.876693 0.302648
vn 0.373918 -0.876693 0.302648
vn 0.150727 0.487518 0.860005
vn 0.150727 0.487518 0.860005
vn 0.150727 0.487518 0.860005
vn 0.150727 0.487518 0.860005
vn -0.682573 0.670662 -0.290357
vn -0.682573 0.670662 -0.290357
vn -0.682573 0.670662 -0.290357
vn -0.682573 0.670662 -0.290357
vn 0.076344 -0.362634 -0.928800
vn 0.076344 -0.362634 -0.928800
vn 0.076344 -0.362634 -0.928800
vn 0.076344 -0.362634 -0.928800
vn 0.358737 -0.848764 0.388468
vn 0.358737 -0.848764 0.388468
vn 0.358737 -0.848764 0.388468
vn 0.358737 -0.848764 0.388468
vn 0.520645 0.619354 0.587647
vn 0.520645 0.619354 0.587647
vn 0.520645 0.619354 0.587647
vn 0.520645 0.619354 0.587647
vn -0.660714 0.718961 -0.215758
vn -0.660714 0.718962 -0.215759
vn -0.660714 0.718961 -0.215759
vn -0.660714 0.718961 -0.215759
vn -0.324134 -0.562089 -0.760916
vn -0.324134 -0.562089 -0.760916
vn -0.324134 -0.562089 -0.760916
vn -0.324134 -0.562089 -0.760916
vn 0.380588 -0.800454 0.463062
vn 0.380588 -0.800454 0.463062
vn 0.380588 -0.800454 0.463062
vn 0.380588 -0.800454 0.463062
vn 0.771725 0.609693 0.180870
vn 0.771725 0.609693 0.180870
vn 0.771725 0.609693 0.180870
vn 0.771725 0.609693 0.180870
vn -0.606776 0.776611 -0.169404
vn -0.606776 0.776611 -0.169404
vn -0.606776 0.776611 -0.169404
vn -0.606776 0.776611 -0.169404
vn -0.650667 -0.633191 -0.419167
vn -0.650667 -0.633191 -0.419167
vn -0.650667 -0.633191 -0.419167
vn -0.650667 -0.633191 -0.419167
vn 0.434506 -0.742774 0.509403
vn 0.434506 -0.742774 0.509403
vn 0.434506 -0.742774 0.509403
vn 0.434506 -0.742774 0.509403
vn 0.846371 0.460507 -0.267562
vn 0.846371 0.460507 -0.267562
vn 0.846371 0.460507 -0.267562
vn 0.846371 0.460507 -0.267562
vn -0.533038 0.830452 -0.161927
vn -0.533038 0.830452 -0.161927
vn -0.533038 0.830452 -0.161927
vn -0.533038 0.830452 -0.161927
vn -0.828592 -0.559544 0.018614
vn -0.828592 -0.559544 0.018614
vn -0.828592 -0.559544 0.018614
vn -0.828592 -0.559544 0.018614
vn 0.508215 -0.688892 0.516862
vn 0.508215 -0.688892 0.516862
vn 0.508215 -0.688892 0.516862
vn 0.508215 -0.688892 0.516862
vn 0.727099 0.205673 -0.655000
vn 0.727099 0.205673 -0.655000
vn 0.727099 0.205673 -0.655000
vn 0.727099 0.205673 -0.655000
vn -0.456344 0.868147 -0.195117
vn -0.456344 0.868147 -0.195117
vn -0.456344 0.868147 -0.195117
vn -0.456344 0.868147 -0.195117
vn -0.816907 -0.357717 0.452441
vn -0.816907 -0.357717 0.452441
vn -0.816907 -0.357717 0.452441
vn -0.816907 -0.357717 0.452441
vn 0.584878 -0.651152 0.483652
vn 0.584878 -0.651152 0.483652
vn 0.584878 -0.651152 0.483652
vn 0.584878 -0.651152 0.483652
vn 0.440878 -0.096528 -0.892361
vn 0.440878 -0.096528 -0.892361
vn 0.440878 -0.096528 -0.892362
vn 0.440878 -0.096528 -0.892361
vn -0.394285 0.881014 -0.261446
vn -0.394285 0.881014 -0.261446
vn -0.394285 0.881014 -0.261446
vn -0.394285 0.881014 -0.261446
vn -0.617870 -0.073711 0.782817
vn -0.617870 -0.073711 0.782817
vn -0.617870 -0.073711 0.782817
vn -0.617870 -0.073711 0.782817
vn 0.646912 -0.638248 0.417307
vn 0.646912 -0.638248 0.417306
vn 0.646912 -0.638248 0.417306
vn 0.646912 -0.638248 0.417306
vn 0.053255 -0.376676 -0.924813
vn 0.053255 -0.376676 -0.924813
vn 0.053255 -0.376676 -0.924813
vn 0.053255 -0.376676 -0.924813
vn -0.361151 0.866050 -0.345726
vn -0.361151 0.866050 -0.345726
vn -0.361151 0.866051 -0.345726
vn -0.361151 0.866050 -0.345726
vn -0.276847 0.227378 0.933624
vn -0.276847 0.227378 0.933625
vn -0.276847 0.227378 0.933625
vn -0.276847 0.227378 0.933625
vn 0.680031 -0.653190 0.333017
vn 0.680031 -0.653190 0.333017
vn 0.680031 -0.653190 0.333017
vn 0.680031 -0.653190 0.333017
vn -0.346637 -0.570280 -0.744730
vn -0.346637 -0.570280 -0.744730
vn -0.346637 -0.570280 -0.744730
vn -0.346637 -0.570280 -0.744730
vn -0.364597 0.826672 -0.428583
vn -0.364597 0.826672 -0.428583
vn -0.364597 0.826672 -0.428583
vn -0.364597 0.826672 -0.428583
vn 0.127885 0.476299 0.869934
vn 0.127885 0.476299 0.869934
vn 0.127885 0.476299 0.869934
vn 0.127885 0.476299 0.869934
vn 0.676586 -0.692569 0.250160
vn 0.676586 -0.692569 0.250160
vn 0.676585 -0.692569 0.250160
vn 0.676586 -0.692569 0.250160
vn -0.530440 0.773991 -0.345792
vn -0.530440 0.773991 -0.345792
vn -0.530440 0.773991 -0.345792
vn -0.530440 0.773991 -0.345792
vn -0.530440 0.773991 -0.345792
vn -0.530440 0.773991 -0.345792
vn -0.530440 0.773991 -0.345792
vn -0.530440 0.773991 -0.345792
vn -0.530440 0.773991 -0.345792
vn -0.530440 0.773991 -0.345792
vn -0.530440 0.773991 -0.345792
vn -0.530440 0.773991 -0.345792
vn -0.530440 0.773991 -0.345792
vn -0.530440 0.773991 -0.345792
vn -0.530440 0.773991 -0.345792
vn -0.530440 0.773991 -0.345792
vn -0.530440 0.773991 -0.345792
vn -0.530440 0.773991 -0.345792
vn -0.530440 0.773991 -0.345792
vn -0.530440 0.773991 -0.345792
vn -0.530440 0.773991 -0.345792
vn -0.530440 0.773991 -0.345792
vn -0.530440 0.773991 -0.345792
vn -0.530440 0.773991 -0.345792
vn 0.450202 -0.088429 -0.888537
vn 0.450202 -0.088429 -0.888537
vn 0.450202 -0.088429 -0.888537
vn 0.450202 -0.088429 -0.888537
vn -0.583853 -0.629295 -0.512937
vn -0.583853 -0.629295 -0.512937
vn -0.583853 -0.629295 -0.512937
vn -0.583853 -0.629295 -0.512937
vn -0.450202 0.088429 0.888537
vn -0.450202 0.088429 0.888537
vn -0.450202 0.088429 0.888537
vn -0.450202 0.088429 0.888537
vn -0.064825 0.369678 0.926896
vn -0.064825 0.369678 0.926896
vn -0.064825 0.369678 0.926896
vn -0.064825 0.369678 0.926896
vn 0.838119 0.417591 -0.350963
vn 0.838119 0.417591 -0.350963
vn 0.838119 0.417591 -0.350963
vn 0.838119 0.417591 -0.350963
vn 0.064825 -0.369678 -0.926896
vn 0.064825 -0.369678 -0.926896
vn 0.064825 -0.369678 -0.926896
vn 0.064825 -0.369678 -0.926896
s off
g SM_Gear
usemtl SM_GearSG
f 1/1/1 27/2/2 28/3/3 2/4/4
f 2/4/5 28/3/6 29/5/7 3/6/8
f 3/6/9 29/5/10 30/7/11 4/8/12
f 4/8/13 30/7/14 31/9/15 5/10/16
f 5/10/17 31/9/18 32/11/19 6/12/20
f 6/12/21 32/11/22 33/13/23 7/14/24
f 7/14/25 33/13/26 34/15/27 8/16/28
f 8/16/29 34/15/30 35/17/31 9/18/32
f 9/18/33 35/17/34 36/19/35 10/20/36
f 10/20/37 36/19/38 37/21/39 11/22/40
f 11/22/41 37/21/42 38/23/43 12/24/44
f 12/24/45 38/23/46 39/25/47 13/26/48
f 13/26/49 39/25/50 27/2/51 1/1/52
f 14/27/53 15/28/54 41/29/55 40/30/56
f 15/28/57 16/31/58 42/32/59 41/29/60
f 16/31/61 17/33/62 43/34/63 42/32/64
f 17/33/65 18/35/66 44/36/67 43/34/68
f 18/35/69 19/37/70 45/38/71 44/36/72
f 19/37/73 20/39/74 46/40/75 45/38/76
f 20/39/77 21/41/78 240/391/79 239/392/80 47/44/81 46/40/82
f 23/45/83 24/46/84 50/47/85 49/48/86 238/387/87 237/390/88
f 24/46/89 25/51/90 51/52/91 50/47/92
f 25/51/93 26/53/94 52/54/95 51/52/96
f 26/53/97 14/27/98 40/30/99 52/54/100
f 54/55/101 53/56/102 55/378/103 56/366/104
f 79/59/105 80/60/106 81/61/107 82/365/108
f 53/56/109 57/63/110 58/377/111 55/378/112
f 83/65/113 79/59/114 82/365/115 84/364/116
f 57/63/117 59/67/118 60/376/119 58/377/120
f 85/69/121 83/65/122 84/364/123 86/363/124
f 59/67/125 61/71/126 62/375/127 60/376/128
f 87/73/129 85/69/130 86/363/131 88/362/132
f 61/71/133 63/75/134 64/374/135 62/375/136
f 89/77/137 87/73/138 88/362/139 90/361/140
f 63/75/141 65/79/142 66/373/143 64/374/144
f 91/81/145 89/77/146 90/361/147 92/360/148
f 65/79/149 67/83/150 68/372/151 66/373/152
f 93/85/153 91/81/154 92/360/155 94/359/156
f 67/83/157 69/87/158 70/371/159 68/372/160
f 95/89/161 93/85/162 94/359/163 96/358/164
f 69/87/165 71/91/166 72/370/167 70/371/168
f 97/93/169 95/89/170 96/358/171 98/357/172
f 71/91/173 73/95/174 74/369/175 72/370/176
f 99/97/177 97/93/178 98/357/179 100/356/180
f 73/95/181 75/99/182 76/368/183 74/369/184
f 101/101/185 99/97/186 100/356/187 102/355/188
f 75/99/189 77/103/190 78/367/191 76/368/192
f 103/105/193 101/101/194 102/355/195 104/354/196
f 77/103/197 54/55/198 56/366/199 78/367/200
f 80/60/201 103/105/202 104/354/203 81/61/204
f 28/3/205 27/2/206 53/56/207 54/55/208
f 56/58/209 55/57/210 82/62/211 81/353/212
f 27/2/213 39/25/214 57/63/215 53/56/216
f 55/57/217 58/393/218 84/394/219 82/62/220
f 39/25/221 38/23/222 59/67/223 57/63/224
f 58/64/225 60/68/226 86/70/227 84/66/228
f 38/23/229 37/21/230 61/71/231 59/67/232
f 60/68/233 62/72/234 88/74/235 86/70/236
f 37/21/237 36/19/238 63/75/239 61/71/240
f 62/72/241 64/76/242 90/78/243 88/74/244
f 36/19/245 35/17/246 65/79/247 63/75/248
f 64/76/249 66/80/250 92/82/251 90/78/252
f 35/17/253 34/15/254 67/83/255 65/79/256
f 66/80/257 68/84/258 94/86/259 92/82/260
f 34/15/261 33/13/262 69/87/263 67/83/264
f 68/84/265 70/88/266 96/90/267 94/86/268
f 33/13/269 32/11/270 71/91/271 69/87/272
f 70/88/273 72/92/274 98/94/275 96/90/276
f 32/11/277 31/9/278 73/95/279 71/91/280
f 72/92/281 74/96/282 100/98/283 98/94/284
f 31/9/285 30/7/286 75/99/287 73/95/288
f 74/96/289 76/100/290 102/102/291 100/98/292
f 30/7/293 29/5/294 77/103/295 75/99/296
f 76/100/297 78/104/298 104/106/299 102/102/300
f 29/5/301 28/3/302 54/55/303 77/103/304
f 78/104/305 56/58/306 81/353/307 104/106/308
f 40/30/309 41/29/310 80/60/311 79/59/312
f 52/54/313 40/30/314 79/59/315 83/65/316
f 51/52/317 52/54/318 83/65/319 85/69/320
f 50/47/321 51/52/322 85/69/323 87/73/324
f 49/48/325 50/47/326 87/73/327 89/77/328
f 48/107/329 49/48/330 89/77/331 91/81/332
f 47/44/333 48/107/334 91/81/335 93/85/336
f 46/40/337 47/44/338 93/85/339 95/89/340
f 45/38/341 46/40/342 95/89/343 97/93/344
f 44/36/345 45/38/346 97/93/347 99/97/348
f 43/34/349 44/36/350 99/97/351 101/101/352
f 42/32/353 43/34/354 101/101/355 103/105/356
f 41/29/357 42/32/358 103/105/359 80/60/360
f 105/108/361 106/109/362 135/350/363 132/111/364
f 119/112/365 118/113/366 134/348/367 138/115/368
f 106/109/369 107/116/370 139/342/371 136/118/372
f 120/119/373 119/112/374 137/340/375 142/121/376
f 107/116/377 108/122/378 143/334/379 140/124/380
f 121/125/381 120/119/382 141/332/383 146/127/384
f 108/122/385 109/128/386 147/326/387 144/130/388
f 122/131/389 121/125/390 145/324/391 150/133/392
f 109/128/393 110/134/394 151/318/395 148/136/396
f 123/137/397 122/131/398 149/316/399 154/139/400
f 110/134/401 111/140/402 155/310/403 152/142/404
f 124/143/405 123/137/406 153/308/407 158/145/408
f 111/140/409 112/146/410 159/302/411 156/148/412
f 125/149/413 124/143/414 157/300/415 162/151/416
f 112/146/417 113/152/418 163/294/419 160/154/420
f 126/155/421 125/149/422 161/292/423 166/157/424
f 113/152/425 114/158/426 167/286/427 164/160/428
f 127/161/429 126/155/430 165/284/431 170/163/432
f 114/158/433 115/164/434 171/278/435 168/166/436
f 128/167/437 127/161/438 169/276/439 174/169/440
f 115/164/441 116/170/442 175/270/443 172/172/444
f 129/173/445 128/167/446 173/268/447 178/175/448
f 116/170/449 117/176/450 179/262/451 176/178/452
f 130/179/453 129/173/454 177/260/455 182/181/456
f 117/176/457 105/108/458 131/254/459 180/183/460
f 118/113/461 130/179/462 181/252/463 133/185/464
f 1/1/465 2/4/466 106/109/467 105/108/468
f 2/4/469 3/6/470 107/116/471 106/109/472
f 3/6/473 4/8/474 108/122/475 107/116/476
f 4/8/477 5/10/478 109/128/479 108/122/480
f 5/10/481 6/12/482 110/134/483 109/128/484
f 6/12/485 7/14/486 111/140/487 110/134/488
f 7/14/489 8/16/490 112/146/491 111/140/492
f 8/16/493 9/18/494 113/152/495 112/146/496
f 9/18/497 10/20/498 114/158/499 113/152/500
f 10/20/501 11/22/502 115/164/503 114/158/504
f 11/22/505 12/24/506 116/170/507 115/164/508
f 12/24/509 13/26/510 117/176/511 116/170/512
f 13/26/513 1/1/514 105/108/515 117/176/516
f 15/28/517 14/27/518 118/113/519 119/112/520
f 183/186/521 184/347/522 185/188/523 186/343/524
f 16/31/525 15/28/526 119/112/527 120/119/528
f 187/190/529 188/339/530 189/192/531 190/335/532
f 17/33/533 16/31/534 120/119/535 121/125/536
f 191/194/537 192/331/538 193/196/539 194/327/540
f 18/35/541 17/33/542 121/125/543 122/131/544
f 195/198/545 196/323/546 197/200/547 198/319/548
f 19/37/549 18/35/550 122/131/551 123/137/552
f 199/202/553 200/315/554 201/204/555 202/311/556
f 20/39/557 19/37/558 123/137/559 124/143/560
f 203/206/561 204/307/562 205/208/563 206/303/564
f 21/41/565 20/39/566 124/143/567 125/149/568
f 207/210/569 208/299/570 209/212/571 210/295/572
f 22/214/573 21/41/574 125/149/575 126/155/576
f 211/215/577 212/291/578 213/217/579 214/287/580
f 23/45/581 22/214/582 126/155/583 127/161/584
f 215/219/585 216/283/586 217/221/587 218/279/588
f 24/46/589 23/45/590 127/161/591 128/167/592
f 219/223/593 220/275/594 221/225/595 222/271/596
f 25/51/597 24/46/598 128/167/599 129/173/600
f 223/227/601 224/267/602 225/229/603 226/263/604
f 26/53/605 25/51/606 129/173/607 130/179/608
f 227/231/609 228/259/610 229/233/611 230/255/612
f 14/27/613 26/53/614 130/179/615 118/113/616
f 231/235/617 232/251/618 233/237/619 234/247/620
f 131/182/621 132/345/622 134/114/623 133/253/624
f 135/385/625 136/337/626 137/120/627 138/349/628
f 139/351/629 140/329/630 141/126/631 142/341/632
f 143/123/633 144/321/634 145/132/635 146/333/636
f 147/129/637 148/313/638 149/138/639 150/325/640
f 151/379/641 152/305/642 153/144/643 154/317/644
f 155/141/645 156/297/646 157/150/647 158/309/648
f 159/147/649 160/289/650 161/156/651 162/301/652
f 163/381/653 164/281/654 165/162/655 166/293/656
f 167/159/657 168/273/658 169/168/659 170/285/660
f 171/165/661 172/265/662 173/174/663 174/277/664
f 175/383/665 176/257/666 177/180/667 178/269/668
f 179/177/669 180/249/670 181/184/671 182/261/672
f 131/254/673 105/108/674 132/111/675
f 133/185/676 134/348/677 118/113/678
f 135/350/679 106/109/680 136/118/681
f 137/340/682 119/112/683 138/115/684
f 139/342/685 107/116/686 140/124/687
f 141/332/688 120/119/689 142/121/690
f 143/334/691 108/122/692 144/130/693
f 145/324/694 121/125/695 146/127/696
f 147/326/697 109/128/698 148/136/699
f 149/316/700 122/131/701 150/133/702
f 151/318/703 110/134/704 152/142/705
f 153/308/706 123/137/707 154/139/708
f 155/310/709 111/140/710 156/148/711
f 157/300/712 124/143/713 158/145/714
f 159/302/715 112/146/716 160/154/717
f 161/292/718 125/149/719 162/151/720
f 163/294/721 113/152/722 164/160/723
f 165/284/724 126/155/725 166/157/726
f 167/286/727 114/158/728 168/166/729
f 169/276/730 127/161/731 170/163/732
f 171/278/733 115/164/734 172/172/735
f 173/268/736 128/167/737 174/169/738
f 175/270/739 116/170/740 176/178/741
f 177/260/742 129/173/743 178/175/744
f 179/262/745 117/176/746 180/183/747
f 181/252/748 130/179/749 182/181/750
f 135/110/751 138/386/752 184/347/753 183/186/754
f 138/115/755 134/348/756 185/346/757 184/187/758
f 134/114/759 132/345/760 186/343/761 185/188/762
f 132/111/763 135/350/764 183/344/765 186/189/766
f 139/117/767 142/352/768 188/339/769 187/190/770
f 142/121/771 137/340/772 189/338/773 188/191/774
f 137/120/775 136/337/776 190/335/777 189/192/778
f 136/118/779 139/342/780 187/336/781 190/193/782
f 143/123/783 146/333/784 192/331/785 191/194/786
f 146/127/787 141/332/788 193/330/789 192/195/790
f 141/126/791 140/329/792 194/327/793 193/196/794
f 140/124/795 143/334/796 191/328/797 194/197/798
f 147/129/799 150/325/800 196/323/801 195/198/802
f 150/133/803 145/324/804 197/322/805 196/199/806
f 145/132/807 144/321/808 198/319/809 197/200/810
f 144/130/811 147/326/812 195/320/813 198/201/814
f 151/135/815 154/380/816 200/315/817 199/202/818
f 154/139/819 149/316/820 201/314/821 200/203/822
f 149/138/823 148/313/824 202/311/825 201/204/826
f 148/136/827 151/318/828 199/312/829 202/205/830
f 155/141/831 158/309/832 204/307/833 203/206/834
f 158/145/835 153/308/836 205/306/837 204/207/838
f 153/144/839 152/305/840 206/303/841 205/208/842
f 152/142/843 155/310/844 203/304/845 206/209/846
f 159/147/847 162/301/848 208/299/849 207/210/850
f 162/151/851 157/300/852 209/298/853 208/211/854
f 157/150/855 156/297/856 210/295/857 209/212/858
f 156/148/859 159/302/860 207/296/861 210/213/862
f 163/153/863 166/382/864 212/291/865 211/215/866
f 166/157/867 161/292/868 213/290/869 212/216/870
f 161/156/871 160/289/872 214/287/873 213/217/874
f 160/154/875 163/294/876 211/288/877 214/218/878
f 167/159/879 170/285/880 216/283/881 215/219/882
f 170/163/883 165/284/884 217/282/885 216/220/886
f 165/162/887 164/281/888 218/279/889 217/221/890
f 164/160/891 167/286/892 215/280/893 218/222/894
f 171/165/895 174/277/896 220/275/897 219/223/898
f 174/169/899 169/276/900 221/274/901 220/224/902
f 169/168/903 168/273/904 222/271/905 221/225/906
f 168/166/907 171/278/908 219/272/909 222/226/910
f 175/171/911 178/384/912 224/267/913 223/227/914
f 178/175/915 173/268/916 225/266/917 224/228/918
f 173/174/919 172/265/920 226/263/921 225/229/922
f 172/172/923 175/270/924 223/264/925 226/230/926
f 179/177/927 182/261/928 228/259/929 227/231/930
f 182/181/931 177/260/932 229/258/933 228/232/934
f 177/180/935 176/257/936 230/255/937 229/233/938
f 176/178/939 179/262/940 227/256/941 230/234/942
f 131/182/943 133/253/944 232/251/945 231/235/946
f 133/185/947 181/252/948 233/250/949 232/236/950
f 181/184/951 180/249/952 234/247/953 233/237/954
f 180/183/955 131/254/956 231/248/957 234/238/958
f 241/398/959 242/240/960 243/400/961 244/399/962
f 242/240/963 241/398/964 245/397/965 246/395/966
f 239/392/967 236/388/968 48/107/969 47/44/970
f 236/388/971 238/387/972 49/48/973 48/107/974
f 22/214/975 23/45/976 237/390/977 235/389/978
f 21/41/979 22/214/980 235/389/981 240/391/982
f 236/245/983 239/43/984 243/241/985 242/396/986
f 239/43/987 240/42/988 244/242/989 243/241/990
f 240/42/991 235/246/992 241/239/993 244/242/994
f 235/246/995 237/401/996 245/402/997 241/239/998
f 237/50/999 238/49/1000 246/244/1001 245/243/1002
f 238/49/1003 236/245/1004 242/396/1005 246/244/1006
g default
v 0.270598 0.076120 -0.270598
v 0.000000 0.076120 -0.382683
v -0.270598 0.076120 -0.270598
v -0.382683 0.076120 0.000000
v -0.270598 0.076120 0.270598
v 0.000000 0.076120 0.382683
v 0.270598 0.076120 0.270598
v 0.382683 0.076120 0.000000
v 0.500000 0.292893 -0.500000
v 0.000000 0.292893 -0.707107
v -0.500000 0.292893 -0.500000
v -0.707107 0.292893 0.000000
v -0.500000 0.292893 0.500000
v 0.000000 0.292893 0.707107
v 0.500000 0.292893 0.500000
v 0.707107 0.292893 0.000000
v 0.653281 0.617317 -0.653281
v 0.000000 0.617317 -0.923879
v -0.653281 0.617317 -0.653281
v -0.923879 0.617317 0.000000
v -0.653281 0.617317 0.653281
v 0.000000 0.617317 0.923879
v 0.653281 0.617317 0.653281
v 0.923880 0.617317 0.000000
v 0.707107 1.000000 -0.707107
v 0.000000 1.000000 -1.000000
v -0.707107 1.000000 -0.707107
v -1.000000 1.000000 0.000000
v -0.707107 1.000000 0.707107
v 0.000000 1.000000 1.000000
v 0.707107 1.000000 0.707107
v 1.000000 1.000000 0.000000
v 0.653281 1.382683 -0.653281
v 0.000000 1.382683 -0.923879
v -0.653281 1.382683 -0.653281
v -0.923879 1.382683 0.000000
v -0.653281 1.382683 0.653281
v 0.000000 1.382683 0.923879
v 0.653281 1.382683 0.653281
v 0.923880 1.382683 0.000000
v 0.500000 1.707107 -0.500000
v 0.000000 1.707107 -0.707107
v -0.500000 1.707107 -0.500000
v -0.707107 1.707107 0.000000
v -0.500000 1.707107 0.500000
v 0.000000 1.707107 0.707107
v 0.500000 1.707107 0.500000
v 0.707107 1.707107 0.000000
v 0.270598 1.923880 -0.270598
v 0.000000 1.923880 -0.382683
v -0.270598 1.923880 -0.270598
v -0.382683 1.923880 0.000000
v -0.270598 1.923880 0.270598
v 0.000000 1.923880 0.382683
v 0.270598 1.923880 0.270598
v 0.382683 1.923880 0.000000
v 0.000000 0.000000 0.000000
v 0.000000 2.000000 0.000000
vt 0.000000 0.125000
vt 0.125000 0.125000
vt 0.250000 0.125000
vt 0.375000 0.125000
vt 0.500000 0.125000
vt 0.625000 0.125000
vt 0.750000 0.125000
vt 0.875000 0.125000
vt 1.000000 0.125000
vt 0.000000 0.250000
vt 0.125000 0.250000
vt 0.250000 0.250000
vt 0.375000 0.250000
vt 0.500000 0.250000
vt 0.625000 0.250000
vt 0.750000 0.250000
vt 0.875000 0.250000
vt 1.000000 0.250000
vt 0.000000 0.375000
vt 0.125000 0.375000
vt 0.250000 0.375000
vt 0.375000 0.375000
vt 0.500000 0.375000
vt 0.625000 0.375000
vt 0.750000 0.375000
vt 0.875000 0.375000
vt 1.000000 0.375000
vt 0.000000 0.500000
vt 0.125000 0.500000
vt 0.250000 0.500000
vt 0.375000 0.500000
vt 0.500000 0.500000
vt 0.625000 0.500000
vt 0.750000 0.500000
vt 0.875000 0.500000
vt 1.000000 0.500000
vt 0.000000 0.625000
vt 0.125000 0.625000
vt 0.250000 0.625000
vt 0.375000 0.625000
vt 0.500000 0.625000
vt 0.625000 0.625000
vt 0.750000 0.625000
vt 0.875000 0.625000
vt 1.000000 0.625000
vt 0.000000 0.750000
vt 0.125000 0.750000
vt 0.250000 0.750000
vt 0.375000 0.750000
vt 0.500000 0.750000
vt 0.625000 0.750000
vt 0.750000 0.750000
vt 0.875000 0.750000
vt 1.000000 0.750000
vt 0.000000 0.875000
vt 0.125000 0.875000
vt 0.250000 0.875000
vt 0.375000 0.875000
vt 0.500000 0.875000
vt 0.625000 0.875000
vt 0.750000 0.875000
vt 0.875000 0.875000
vt 1.000000 0.875000
vt 0.062500 0.000000
vt 0.187500 0.000000
vt 0.312500 0.000000
vt 0.437500 0.000000
vt 0.562500 0.000000
vt 0.687500 0.000000
vt 0.812500 0.000000
vt 0.937500 0.000000
vt 0.062500 1.000000
vt 0.187500 1.000000
vt 0.312500 1.000000
vt 0.437500 1.000000
vt 0.562500 1.000000
vt 0.687500 1.000000
vt 0.812500 1.000000
vt 0.937500 1.000000
vn 0.224263 -0.810291 -0.541419
vn 0.224263 -0.810291 -0.541419
vn 0.224263 -0.810291 -0.541419
vn 0.224263 -0.810291 -0.541419
vn -0.224263 -0.810291 -0.541419
vn -0.224263 -0.810291 -0.541419
vn -0.224263 -0.810291 -0.541419
vn -0.224263 -0.810291 -0.541419
vn -0.541419 -0.810291 -0.224263
vn -0.541419 -0.810291 -0.224263
vn -0.541419 -0.810291 -0.224263
vn -0.541419 -0.810291 -0.224263
vn -0.541419 -0.810291 0.224263
vn -0.541419 -0.810291 0.224263
vn -0.541419 -0.810291 0.224263
vn -0.541419 -0.810291 0.224263
vn -0.224263 -0.810291 0.541419
vn -0.224263 -0.810291 0.541419
vn -0.224263 -0.810291 0.541419
vn -0.224263 -0.810291 0.541419
vn 0.224263 -0.810291 0.541419
vn 0.224263 -0.810291 0.541419
vn 0.224263 -0.810291 0.541419
vn 0.224263 -0.810291 0.541419
vn 0.541419 -0.810291 0.224263
vn 0.541419 -0.810291 0.224263
vn 0.541419 -0.810291 0.224263
vn 0.541419 -0.810291 0.224263
vn 0.541419 -0.810291 -0.224263
vn 0.541419 -0.810291 -0.224263
vn 0.541419 -0.810291 -0.224263
vn 0.541419 -0.810291 -0.224263
vn 0.325634 -0.525289 -0.786151
vn 0.325634 -0.525289 -0.786151
vn 0.325634 -0.525289 -0.786151
vn 0.325634 -0.525289 -0.786151
vn -0.325634 -0.525289 -0.786151
vn -0.325634 -0.525289 -0.786151
vn -0.325634 -0.525289 -0.786151
vn -0.325634 -0.525289 -0.786151
vn -0.786151 -0.525289 -0.325634
vn -0.786151 -0.525289 -0.325634
vn -0.786151 -0.525289 -0.325634
vn -0.786151 -0.525289 -0.325634
vn -0.786151 -0.525289 0.325635
vn -0.786151 -0.525289 0.325635
vn -0.786151 -0.525289 0.325635
vn -0.786151 -0.525289 0.325635
vn -0.325635 -0.525289 0.786151
vn -0.325635 -0.525289 0.786151
vn -0.325635 -0.525289 0.786151
vn -0.325634 -0.525289 0.786151
vn 0.325634 -0.525289 0.786151
vn 0.325634 -0.525289 0.786151
vn 0.325634 -0.525289 0.786151
vn 0.325634 -0.525289 0.786151
vn 0.786151 -0.525289 0.325634
vn 0.786151 -0.525289 0.325634
vn 0.786151 -0.525289 0.325634
vn 0.786151 -0.525289 0.325634
vn 0.786151 -0.525289 -0.325635
vn 0.786151 -0.525289 -0.325635
vn 0.786151 -0.525289 -0.325635
vn 0.786151 -0.525289 -0.325635
vn 0.376381 -0.180744 -0.908663
vn 0.376381 -0.180744 -0.908663
vn 0.376381 -0.180744 -0.908663
vn 0.376381 -0.180744 -0.908663
vn -0.376381 -0.180744 -0.908663
vn -0.376381 -0.180744 -0.908663
vn -0.376381 -0.180744 -0.908663
vn -0.376381 -0.180744 -0.908663
vn -0.908663 -0.180744 -0.376381
vn -0.908663 -0.180744 -0.376381
vn -0.908663 -0.180744 -0.376381
vn -0.908663 -0.180744 -0.376381
vn -0.908663 -0.180744 0.376381
vn -0.908663 -0.180744 0.376381
vn -0.908663 -0.180744 0.376381
vn -0.908663 -0.180744 0.376381
vn -0.376381 -0.180744 0.908663
vn -0.376381 -0.180744 0.908663
vn -0.376381 -0.180744 0.908663
vn -0.376381 -0.180744 0.908663
vn 0.376381 -0.180744 0.908663
vn 0.376381 -0.180744 0.908663
vn 0.376381 -0.180744 0.908663
vn 0.376381 -0.180744 0.908663
vn 0.908663 -0.180745 0.376381
vn 0.908663 -0.180745 0.376381
vn 0.908663 -0.180745 0.376381
vn 0.908663 -0.180745 0.376381
vn 0.908663 -0.180744 -0.376381
vn 0.908663 -0.180744 -0.376381
vn 0.908663 -0.180744 -0.376381
vn 0.908663 -0.180744 -0.376381
vn 0.376381 0.180744 -0.908663
vn 0.376381 0.180744 -0.908663
vn 0.376381 0.180744 -0.908663
vn 0.376381 0.180744 -0.908663
vn -0.376381 0.180744 -0.908663
vn -0.376381 0.180744 -0.908663
vn -0.376381 0.180744 -0.908663
vn -0.376381 0.180744 -0.908663
vn -0.908663 0.180744 -0.376381
vn -0.908663 0.180744 -0.376381
vn -0.908663 0.180744 -0.376381
vn -0.908663 0.180744 -0.376381
vn -0.908663 0.180744 0.376381
vn -0.908663 0.180744 0.376381
vn -0.908663 0.180744 0.376381
vn -0.908663 0.180744 0.376381
vn -0.376381 0.180744 0.908663
vn -0.376381 0.180744 0.908663
vn -0.376381 0.180744 0.908663
vn -0.376381 0.180744 0.908663
vn 0.376381 0.180744 0.908663
vn 0.376381 0.180744 0.908663
vn 0.376381 0.180744 0.908663
vn 0.376381 0.180744 0.908663
vn 0.908663 0.180745 0.376381
vn 0.908663 0.180745 0.376381
vn 0.908663 0.180745 0.376381
vn 0.908663 0.180745 0.376381
vn 0.908663 0.180744 -0.376381
vn 0.908663 0.180744 -0.376381
vn 0.908663 0.180744 -0.376381
vn 0.908663 0.180744 -0.376381
vn 0.325634 0.525289 -0.786151
vn 0.325634 0.525289 -0.786151
vn 0.325634 0.525289 -0.786151
vn 0.325634 0.525289 -0.786151
vn -0.325634 0.525289 -0.786151
vn -0.325634 0.525289 -0.786151
vn -0.325634 0.525289 -0.786151
vn -0.325634 0.525289 -0.786151
vn -0.786151 0.525289 -0.325634
vn -0.786151 0.525289 -0.325634
vn -0.786151 0.525289 -0.325634
vn -0.786151 0.525289 -0.325634
vn -0.786151 0.525289 0.325634
vn -0.786151 0.525289 0.325634
vn -0.786151 0.525289 0.325634
vn -0.786151 0.525289 0.325634
vn -0.325635 0.525289 0.786151
vn -0.325635 0.525289 0.786151
vn -0.325635 0.525289 0.786151
vn -0.325635 0.525289 0.786151
vn 0.325634 0.525289 0.786151
vn 0.325634 0.525289 0.786151
vn 0.325634 0.525289 0.786151
vn 0.325634 0.525289 0.786151
vn 0.786151 0.525289 0.325634
vn 0.786151 0.525289 0.325634
vn 0.786151 0.525289 0.325634
vn 0.786151 0.525289 0.325634
vn 0.786151 0.525289 -0.325634
vn 0.786151 0.525289 -0.325634
vn 0.786151 0.525289 -0.325634
vn 0.786151 0.525289 -0.325634
vn 0.224263 0.810291 -0.541419
vn 0.224263 0.810291 -0.541419
vn 0.224263 0.810291 -0.541419
vn 0.224263 0.810291 -0.541419
vn -0.224263 0.810291 -0.541419
vn -0.224263 0.810291 -0.541419
vn -0.224263 0.810291 -0.541419
vn -0.224263 0.810291 -0.541419
vn -0.541419 0.810291 -0.224263
vn -0.541419 0.810291 -0.224263
vn -0.541419 0.810291 -0.224263
vn -0.541419 0.810291 -0.224263
vn -0.541419 0.810291 0.224263
vn -0.541419 0.810291 0.224263
vn -0.541419 0.810291 0.224263
vn -0.541419 0.810291 0.224263
vn -0.224263 0.810291 0.541419
vn -0.224263 0.810291 0.541419
vn -0.224263 0.810291 0.541419
vn -0.224263 0.810291 0.541419
vn 0.224263 0.810291 0.541419
vn 0.224263 0.810291 0.541419
vn 0.224263 0.810291 0.541419
vn 0.224263 0.810291 0.541419
vn 0.541419 0.810291 0.224263
vn 0.541419 0.810291 0.224263
vn 0.541419 0.810291 0.224263
vn 0.541419 0.810291 0.224263
vn 0.541419 0.810291 -0.224264
vn 0.541419 0.810291 -0.224264
vn 0.541419 0.810291 -0.224264
vn 0.541419 0.810291 -0.224264
vn 0.080546 -0.977599 -0.194457
vn 0.080547 -0.977599 -0.194457
vn 0.080547 -0.977599 -0.194457
vn -0.080547 -0.977599 -0.194457
vn -0.080546 -0.977599 -0.194457
vn -0.080547 -0.977599 -0.194457
vn -0.194457 -0.977599 -0.080546
vn -0.194457 -0.977599 -0.080547
vn -0.194457 -0.977599 -0.080547
vn -0.194457 -0.977599 0.080547
vn -0.194457 -0.977599 0.080546
vn -0.194457 -0.977599 0.080547
vn -0.080547 -0.977599 0.194457
vn -0.080547 -0.977599 0.194457
vn -0.080547 -0.977599 0.194457
vn 0.080547 -0.977599 0.194457
vn 0.080547 -0.977599 0.194457
vn 0.080547 -0.977599 0.194457
vn 0.194457 -0.977599 0.080547
vn 0.194457 -0.977599 0.080547
vn 0.194457 -0.977599 0.080547
vn 0.194457 -0.977599 -0.080547
vn 0.194457 -0.977599 -0.080547
vn 0.194457 -0.977599 -0.080547
vn 0.080547 0.977599 -0.194457
vn 0.080546 0.977599 -0.194457
vn 0.080547 0.977599 -0.194457
vn -0.080546 0.977599 -0.194457
vn -0.080547 0.977599 -0.194457
vn -0.080547 0.977599 -0.194457
vn -0.194457 0.977598 -0.080547
vn -0.194457 0.977599 -0.080547
vn -0.194457 0.977598 -0.080547
vn -0.194457 0.977599 0.080547
vn -0.194457 0.977598 0.080547
vn -0.194457 0.977598 0.080547
vn -0.080547 0.977599 0.194457
vn -0.080547 0.977599 0.194457
vn -0.080547 0.977599 0.194456
vn 0.080547 0.977599 0.194457
vn 0.080547 0.977599 0.194457
vn 0.080547 0.977599 0.194456
vn 0.194457 0.977599 0.080547
vn 0.194457 0.977599 0.080547
vn 0.194457 0.977599 0.080547
vn 0.194457 0.977599 -0.080547
vn 0.194457 0.977599 -0.080547
vn 0.194457 0.977599 -0.080547
s off
g pSphere1 Balls
usemtl aiStandardSurface1SG
f 247/403/1007 248/404/1008 256/413/1009 255/412/1010
f 248/404/1011 249/405/1012 257/414/1013 256/413/1014
f 249/405/1015 250/406/1016 258/415/1017 257/414/1018
f 250/406/1019 251/407/1020 259/416/1021 258/415/1022
f 251/407/1023 252/408/1024 260/417/1025 259/416/1026
f 252/408/1027 253/409/1028 261/418/1029 260/417/1030
f 253/409/1031 254/410/1032 262/419/1033 261/418/1034
f 254/410/1035 247/411/1036 255/420/1037 262/419/1038
f 255/412/1039 256/413/1040 264/422/1041 263/421/1042
f 256/413/1043 257/414/1044 265/423/1045 264/422/1046
f 257/414/1047 258/415/1048 266/424/1049 265/423/1050
f 258/415/1051 259/416/1052 267/425/1053 266/424/1054
f 259/416/1055 260/417/1056 268/426/1057 267/425/1058
f 260/417/1059 261/418/1060 269/427/1061 268/426/1062
f 261/418/1063 262/419/1064 270/428/1065 269/427/1066
f 262/419/1067 255/420/1068 263/429/1069 270/428/1070
f 263/421/1071 264/422/1072 272/431/1073 271/430/1074
f 264/422/1075 265/423/1076 273/432/1077 272/431/1078
f 265/423/1079 266/424/1080 274/433/1081 273/432/1082
f 266/424/1083 267/425/1084 275/434/1085 274/433/1086
f 267/425/1087 268/426/1088 276/435/1089 275/434/1090
f 268/426/1091 269/427/1092 277/436/1093 276/435/1094
f 269/427/1095 270/428/1096 278/437/1097 277/436/1098
f 270/428/1099 263/429/1100 271/438/1101 278/437/1102
f 271/430/1103 272/431/1104 280/440/1105 279/439/1106
f 272/431/1107 273/432/1108 281/441/1109 280/440/1110
f 273/432/1111 274/433/1112 282/442/1113 281/441/1114
f 274/433/1115 275/434/1116 283/443/1117 282/442/1118
f 275/434/1119 276/435/1120 284/444/1121 283/443/1122
f 276/435/1123 277/436/1124 285/445/1125 284/444/1126
f 277/436/1127 278/437/1128 286/446/1129 285/445/1130
f 278/437/1131 271/438/1132 279/447/1133 286/446/1134
f 279/439/1135 280/440/1136 288/449/1137 287/448/1138
f 280/440/1139 281/441/1140 289/450/1141 288/449/1142
f 281/441/1143 282/442/1144 290/451/1145 289/450/1146
f 282/442/1147 283/443/1148 291/452/1149 290/451/1150
f 283/443/1151 284/444/1152 292/453/1153 291/452/1154
f 284/444/1155 285/445/1156 293/454/1157 292/453/1158
f 285/445/1159 286/446/1160 294/455/1161 293/454/1162
f 286/446/1163 279/447/1164 287/456/1165 294/455/1166
f 287/448/1167 288/449/1168 296/458/1169 295/457/1170
f 288/449/1171 289/450/1172 297/459/1173 296/458/1174
f 289/450/1175 290/451/1176 298/460/1177 297/459/1178
f 290/451/1179 291/452/1180 299/461/1181 298/460/1182
f 291/452/1183 292/453/1184 300/462/1185 299/461/1186
f 292/453/1187 293/454/1188 301/463/1189 300/462/1190
f 293/454/1191 294/455/1192 302/464/1193 301/463/1194
f 294/455/1195 287/456/1196 295/465/1197 302/464/1198
f 248/404/1199 247/403/1200 303/466/1201
f 249/405/1202 248/404/1203 303/467/1204
f 250/406/1205 249/405/1206 303/468/1207
f 251/407/1208 250/406/1209 303/469/1210
f 252/408/1211 251/407/1212 303/470/1213
f 253/409/1214 252/408/1215 303/471/1216
f 254/410/1217 253/409/1218 303/472/1219
f 247/411/1220 254/410/1221 303/473/1222
f 295/457/1223 296/458/1224 304/474/1225
f 296/458/1226 297/459/1227 304/475/1228
f 297/459/1229 298/460/1230 304/476/1231
f 298/460/1232 299/461/1233 304/477/1234
f 299/461/1235 300/462/1236 304/478/1237
f 300/462/1238 301/463/1239 304/479/1240
f 301/463/1241 302/464/1242 304/480/1243
f 302/464/1244 295/465/1245 304/481/1246
