# This file uses meters as units for non-parametric coordinates.

mtllib CryoNavOBJ.mtl
g default
v 1.995935 -0.442588 -1.615123
v 2.178668 -0.442588 -1.446468
v 2.307726 -0.442588 -1.835567
v 2.152733 -0.442588 -1.420533
v 2.160329 -0.442588 -1.438872
v 2.160329 -0.442588 -1.402194
v 2.172290 -0.442588 -1.365690
v 2.197007 -0.442588 -1.438872
v 1.961291 -0.442588 -1.590630
v 2.137647 -0.442588 -1.341196
v 2.484081 -0.442588 -1.586134
v 2.921410 -0.442588 -2.269457
v 2.654161 -0.442588 -2.080505
v 3.027959 -0.442588 -2.051579
v 2.178668 -0.442588 -1.394597
v 2.197007 -0.442588 -1.402194
v 2.951105 -0.442588 -2.290451
v 3.127460 -0.442588 -2.041018
v 2.204603 -0.442588 -1.420533
v 2.191885 -0.442588 -1.337975
v 2.951105 0.000000 -2.290451
v 2.789009 0.000000 -2.519716
v 2.157242 -0.442588 -1.313482
v 3.009620 -0.442588 -2.043982
v 3.002024 -0.442588 -2.025643
v 3.009620 -0.442588 -2.007304
v 2.830516 -0.442588 -1.831072
v 3.046298 -0.442588 -2.043982
v 2.503676 -0.442588 -1.558419
v 3.097765 -0.442588 -2.020024
v 3.027959 -0.442588 -1.999708
v 3.053894 -0.442588 -2.025643
v 3.046298 -0.442588 -2.007304
v 1.961291 0.000000 -1.590630
v 2.137647 0.000000 -1.341196
v 2.152733 0.000000 -1.420533
v 2.160329 0.000000 -1.438872
v 2.178668 0.000000 -1.446468
v 2.160329 0.000000 -1.402194
v 2.197007 0.000000 -1.438872
v 2.850111 -0.442588 -1.803357
v 2.178668 0.000000 -1.394597
v 2.204603 0.000000 -1.420533
v 2.197007 0.000000 -1.402194
v 2.157242 0.000000 -1.313482
v 3.117360 -0.442588 -1.992309
v 2.191885 0.000000 -1.337975
v 3.127460 0.000000 -2.041018
v 3.147055 -0.442588 -2.013304
v 3.009620 0.000000 -2.043982
v 3.027959 0.000000 -2.051579
v 3.002024 0.000000 -2.025643
v 3.046298 0.000000 -2.043982
v 3.009620 0.000000 -2.007304
v 2.503676 0.000000 -1.558419
v 2.850111 0.000000 -1.803357
v 3.053894 0.000000 -2.025643
v 3.027959 0.000000 -1.999708
v -3.927873 0.000000 4.999203
v -3.927873 0.000000 4.975332
v -5.171024 0.000000 4.975332
v -5.171024 0.000000 4.999203
v -4.171180 0.000000 4.999203
v 4.816350 0.000000 -3.768891
v 4.827385 0.000000 -3.768891
v 4.827385 0.000000 -3.999364
v 4.827385 0.000000 -4.999204
v 4.816350 0.000000 -4.999204
v 3.046298 0.000000 -2.007304
v 3.117360 0.000000 -1.992309
v 3.147055 0.000000 -2.013304
v 3.567175 0.000000 -2.519716
v 4.816350 0.000000 -2.519716
v 3.567175 0.000000 -3.768891
v -2.678698 0.000000 4.975332
v -2.678698 0.000000 3.726158
v -3.927873 0.000000 3.726158
v -1.429523 0.000000 2.476983
v -0.180349 0.000000 2.476983
v -0.180349 0.000000 1.227808
v -1.429523 0.000000 1.227808
v 1.068826 0.000000 1.227808
v 1.068826 0.000000 -0.021366
v -0.180349 0.000000 -0.021366
v 2.318001 0.000000 -0.021366
v 2.318001 0.000000 -1.270541
v 1.068826 0.000000 -1.270541
v -1.429523 0.000000 3.726158
v -2.678698 0.000000 2.476983
v 2.318001 0.000000 -1.427142
v 3.567175 0.000000 -1.270541
v 4.816350 0.000000 -1.270541
v 1.068826 0.000000 2.476983
v 2.318001 0.000000 1.227808
v 3.567175 0.000000 -0.021366
v -0.180349 0.000000 3.726158
v -1.429523 0.000000 4.975332
v 4.827385 0.000000 -2.519716
v 4.827385 0.000000 -2.999523
v -2.678698 0.000000 4.999203
v -3.171340 0.000000 4.999203
v 4.816350 0.000000 -0.021366
v 2.318001 0.000000 2.476983
v 3.567175 0.000000 1.227808
v 1.068826 0.000000 3.726158
v -0.180349 0.000000 4.975332
v 4.827385 0.000000 -1.270541
v 4.827385 0.000000 -1.999683
v -1.429523 0.000000 4.999203
v -2.171498 0.000000 4.999203
v 4.816350 0.000000 1.227808
v 3.567175 0.000000 2.476983
v 2.318001 0.000000 3.726158
v 1.068826 0.000000 4.975332
v 4.816350 0.000000 2.476983
v 3.567175 0.000000 3.726158
v 2.318001 0.000000 4.975332
v 4.827385 0.000000 -0.021366
v 4.827385 0.000000 -0.999841
v 4.816350 0.000000 3.726158
v 3.567175 0.000000 4.975332
v 4.816350 0.000000 4.975332
v 4.827385 0.000000 4.975332
v 4.816350 0.000000 4.999203
v 4.827385 0.000000 4.999203
v -0.180349 0.000000 5.964314
v -1.171658 0.000000 4.999203
v -1.131544 0.000000 5.964314
v 4.827385 0.000000 2.476983
v 4.827385 0.000000 1.999681
v 4.827385 0.000000 1.227808
v 2.318001 0.000000 4.999203
v 1.068826 0.000000 4.999203
v 1.827863 0.000000 4.999203
v 4.827385 0.000000 0.999840
v 4.827385 0.000000 -0.000001
v 4.827385 0.000000 3.726158
v 4.827385 0.000000 2.999522
v 3.567175 0.000000 4.999203
v 2.827705 0.000000 4.999203
v 4.827385 0.000000 3.999362
v 3.827547 0.000000 4.999203
v -0.171818 0.000000 5.964314
v 0.787912 0.000000 5.964314
v 0.828026 0.000000 4.999203
v 2.657180 -0.442588 -2.706173
v 2.657180 0.000000 -2.706173
v 2.627485 -0.442588 -2.685179
v 1.667365 -0.442588 -2.006352
v 2.360235 -0.442588 -2.496227
v -1.429523 0.000000 -0.021366
v -0.180349 0.000000 -1.270541
v -2.678698 0.000000 1.227808
v -3.927873 0.000000 2.476983
v 1.667365 0.000000 -2.006352
v 2.013800 -0.442588 -2.251289
v 1.702009 -0.442588 -2.030845
v 1.478413 0.000000 -2.273602
v 1.457418 0.000000 -2.303296
v 1.492062 0.000000 -2.327790
v 1.763519 0.000000 -2.519716
v 1.068826 0.000000 -2.519716
v 2.436981 -0.442588 -2.849457
v 2.417539 0.000000 -2.982123
v 2.318001 0.000000 -2.911747
v 2.417539 -0.442588 -2.982123
v 2.462916 -0.442588 -2.875392
v 2.455320 -0.442588 -2.857053
v 2.455320 -0.442588 -2.893731
v 2.418642 -0.442588 -2.857053
v 2.150289 0.000000 -2.793171
v 2.150289 -0.442588 -2.793171
v 2.438534 -0.442588 -2.952429
v 2.171284 -0.442588 -2.763477
v 1.595800 -0.442588 -2.268648
v 2.468228 0.000000 -2.973423
v 2.468228 -0.442588 -2.973423
v 1.803854 0.000000 -2.548233
v 1.803854 -0.442588 -2.548233
v 2.436981 -0.442588 -2.901327
v 2.418642 -0.442588 -2.893731
v 1.478413 -0.442588 -2.273602
v 2.411046 -0.442588 -2.875392
v 1.492062 -0.442588 -2.327790
v 2.447233 -0.442588 -3.003118
v 1.603397 -0.442588 -2.286987
v 1.595800 -0.442588 -2.305326
v 1.824848 -0.442588 -2.518539
v 1.577462 -0.442588 -2.261052
v 1.559123 -0.442588 -2.268648
v 1.513057 -0.442588 -2.298096
v 3.827547 0.000000 -4.999204
v 3.567175 0.000000 -4.999204
v -5.171024 0.000000 3.726158
v -5.171024 0.000000 3.999362
v 2.462916 0.000000 -2.875392
v 2.455320 0.000000 -2.857053
v 2.436981 0.000000 -2.849457
v 2.455320 0.000000 -2.893731
v 2.418642 0.000000 -2.857053
v 1.577462 -0.442588 -2.312922
v 1.551527 -0.442588 -2.286987
v 2.411046 0.000000 -2.875392
v 2.436981 0.000000 -2.901327
v 1.559123 -0.442588 -2.305326
v 2.418642 0.000000 -2.893731
v 1.457418 -0.442588 -2.303296
v 2.447233 0.000000 -3.003118
v 1.595800 0.000000 -2.268648
v 1.577462 0.000000 -2.261052
v 1.603397 0.000000 -2.286987
v 1.559123 0.000000 -2.268648
v 1.595800 0.000000 -2.305326
v 1.551527 0.000000 -2.286987
v 1.577462 0.000000 -2.312922
v 1.559123 0.000000 -2.305326
v -1.429523 0.000000 -1.270541
v -2.678698 0.000000 -0.021366
v -0.180349 0.000000 -2.519716
v -3.927873 0.000000 1.227808
v 2.318001 0.000000 -3.768891
v 0.409247 0.000000 -3.173840
v 0.610997 0.000000 -3.768891
v 0.719405 0.000000 -4.089312
v 2.827705 0.000000 -4.999204
v 2.318001 0.000000 -4.999204
v -5.171024 0.000000 2.476983
v -5.171024 0.000000 2.999522
v -1.352900 0.000000 -3.173840
v -1.342397 0.000000 -3.173840
v -1.356003 -0.036377 -3.169777
v -2.678698 0.000000 -1.270541
v -1.429523 0.000000 -2.519716
v -3.927873 0.000000 -0.021366
v -2.641516 0.000000 -1.947455
v -2.678698 0.000000 -1.920243
v -2.807479 0.000000 -1.825995
v -1.429523 0.000000 -3.399041
v -2.678698 0.000000 -2.519331
v -2.678698 0.000000 -2.519716
v -2.678979 0.000000 -2.519716
v 1.632540 0.000000 -4.089312
v 1.632540 0.000000 -4.999204
v -2.573709 0.000000 -2.375874
v -1.554656 0.000000 -3.768891
v 1.068826 0.000000 -3.768891
v 1.068826 0.000000 -4.089312
v -2.695296 0.000000 -2.542011
v -1.663064 0.000000 -4.089312
v -3.126012 0.000000 -2.609471
v -3.248654 0.000000 -2.519716
v -3.291975 0.000000 -2.488011
v -2.469852 0.000000 -4.089312
v -2.452931 0.000000 -4.089312
v -2.469852 -0.037138 -4.089312
v -3.927873 0.000000 -1.270541
v -5.171024 0.000000 1.227808
v -5.171024 0.000000 1.999681
v -2.418014 0.000000 -2.111025
v -2.393180 0.000000 -2.129200
v -2.411233 0.000000 -2.153867
v -3.030407 0.000000 -1.662845
v -3.055177 0.000000 -1.644717
v -3.073230 0.000000 -1.669385
v -3.235705 0.000000 -1.891392
v -0.180349 0.000000 -3.173840
v -3.357293 0.000000 -2.057528
v -2.859439 0.000000 -2.766295
v -3.521435 0.000000 -2.281813
v -2.877677 0.000000 -2.791216
v -2.902510 0.000000 -2.773042
v -3.514904 0.000000 -2.324861
v -3.539674 0.000000 -2.306733
v -2.469852 0.000000 -4.999204
v -2.678698 0.000000 -3.768891
v 1.827863 0.000000 -4.999204
v -5.171024 0.000000 -0.021366
v -5.171024 0.000000 -1.270541
v -5.171024 0.000000 -0.999841
v -5.171024 0.000000 -0.000001
v -5.171024 0.000000 0.999840
v -3.927873 0.000000 -2.519716
v -5.171024 0.000000 -2.519716
v -5.171024 0.000000 -1.999683
v -3.927873 0.000000 -3.768891
v -2.678698 0.000000 -4.999204
v -3.171340 0.000000 -4.999204
v -3.927873 0.000000 -4.999204
v -5.171024 0.000000 -3.768891
v -5.171024 0.000000 -2.999523
v -4.171180 0.000000 -4.999204
v -5.171024 0.000000 -4.999204
v -5.171024 0.000000 -3.999364
vt 0.100642 0.078237
vt 0.100642 0.080169
vt 0.000001 0.080169
vt 0.000001 0.078237
vt 0.080945 0.078237
vt 0.808539 0.788073
vt 0.809433 0.788073
vt 0.809432 0.806732
vt 0.809432 0.887675
vt 0.808538 0.887675
vt 0.707411 0.686944
vt 0.808540 0.686945
vt 0.707411 0.788073
vt 0.201771 0.080170
vt 0.201771 0.181298
vt 0.100642 0.181298
vt 0.302899 0.282427
vt 0.404028 0.282427
vt 0.404028 0.383556
vt 0.302899 0.383556
vt 0.505156 0.383557
vt 0.505156 0.484685
vt 0.404027 0.484685
vt 0.606284 0.484686
vt 0.606284 0.585815
vt 0.505155 0.585814
vt 0.302900 0.181298
vt 0.201771 0.282427
vt 0.707412 0.585815
vt 0.808541 0.585816
vt 0.505157 0.282428
vt 0.606285 0.383557
vt 0.707413 0.484687
vt 0.404028 0.181299
vt 0.302900 0.080170
vt 0.809433 0.686945
vt 0.809433 0.725788
vt 0.201771 0.078237
vt 0.161889 0.078237
vt 0.808541 0.484687
vt 0.606285 0.282429
vt 0.707413 0.383558
vt 0.505157 0.181299
vt 0.404029 0.080170
vt 0.809434 0.585816
vt 0.809434 0.644845
vt 0.302900 0.078238
vt 0.242832 0.078237
vt 0.808542 0.383559
vt 0.707414 0.282429
vt 0.606286 0.181300
vt 0.505157 0.080171
vt 0.808542 0.282430
vt 0.707414 0.181301
vt 0.606286 0.080171
vt 0.809435 0.484687
vt 0.809434 0.563901
vt 0.808543 0.181301
vt 0.707415 0.080172
vt 0.644414 0.686943
vt 0.657537 0.668383
vt 0.671814 0.648190
vt 0.673400 0.645946
vt 0.670996 0.644247
vt 0.649361 0.628950
vt 0.621315 0.609120
vt 0.606284 0.598492
vt 0.808543 0.080173
vt 0.809437 0.080173
vt 0.808543 0.078240
vt 0.809437 0.078240
vt 0.404029 0.000106
vt 0.323776 0.078238
vt 0.327024 0.000106
vt 0.809436 0.282430
vt 0.809435 0.321071
vt 0.809435 0.383559
vt 0.606286 0.078239
vt 0.505157 0.078238
vt 0.566606 0.078239
vt 0.809435 0.402014
vt 0.809435 0.482958
vt 0.809436 0.181301
vt 0.809436 0.240127
vt 0.707415 0.078240
vt 0.647550 0.078239
vt 0.809436 0.159184
vt 0.728494 0.078240
vt 0.404720 0.000106
vt 0.482416 0.000106
vt 0.485663 0.078238
vt 0.302899 0.484684
vt 0.404027 0.585813
vt 0.201770 0.383555
vt 0.100642 0.282427
vt 0.596074 0.591274
vt 0.593269 0.589291
vt 0.591683 0.591534
vt 0.577406 0.611728
vt 0.553610 0.645383
vt 0.538313 0.667018
vt 0.536614 0.669422
vt 0.539418 0.671405
vt 0.561394 0.686943
vt 0.505154 0.686942
vt 0.728489 0.887674
vt 0.707410 0.887674
vt 0.000001 0.181298
vt 0.000001 0.159180
vt 0.302898 0.585813
vt 0.201770 0.484684
vt 0.404026 0.686942
vt 0.100642 0.383555
vt 0.606282 0.788072
vt 0.606283 0.718681
vt 0.614341 0.724378
vt 0.616745 0.726078
vt 0.618444 0.723674
vt 0.633741 0.702038
vt 0.647545 0.887674
vt 0.606281 0.887673
vt 0.000001 0.282426
vt 0.000001 0.240124
vt 0.201770 0.585812
vt 0.302898 0.686941
vt 0.100641 0.484683
vt 0.201770 0.686909
vt 0.201770 0.686941
vt 0.201747 0.686941
vt 0.468089 0.788071
vt 0.505154 0.788071
vt 0.505153 0.814011
vt 0.476866 0.814011
vt 0.564659 0.689252
vt 0.592705 0.709081
vt 0.100641 0.585812
vt 0.000001 0.383555
vt 0.000001 0.321067
vt 0.451757 0.739898
vt 0.404026 0.739897
vt 0.292767 0.788070
vt 0.201769 0.788069
vt 0.302897 0.758128
vt 0.566601 0.887673
vt 0.550789 0.887673
vt 0.550790 0.814011
vt 0.000000 0.484684
vt 0.000000 0.585812
vt 0.000000 0.563897
vt 0.309951 0.739897
vt 0.309101 0.739897
vt 0.000000 0.482954
vt 0.000001 0.402011
vt 0.100641 0.686940
vt 0.000000 0.686941
vt 0.000000 0.644841
vt 0.100641 0.788069
vt 0.201768 0.887671
vt 0.161886 0.887670
vt 0.100641 0.887670
vt 0.000000 0.788069
vt 0.000000 0.725784
vt 0.283990 0.814010
vt 0.220046 0.814009
vt 0.218676 0.814009
vt 0.218676 0.887671
vt 0.080943 0.887670
vt 0.000000 0.887670
vt 0.000000 0.806727
vt 0.210269 0.675296
vt 0.223423 0.657323
vt 0.224884 0.655326
vt 0.222874 0.653855
vt 0.204780 0.640612
vt 0.201770 0.638409
vt 0.155628 0.686939
vt 0.165556 0.694205
vt 0.183650 0.707446
vt 0.185658 0.708916
vt 0.187134 0.706896
vt 0.200428 0.688745
vt 0.191344 0.630779
vt 0.173297 0.617571
vt 0.171291 0.616104
vt 0.169830 0.618101
vt 0.156676 0.636073
vt 0.146833 0.649523
vt 0.133544 0.667680
vt 0.132068 0.669698
vt 0.134073 0.671165
vt 0.152121 0.684373
vn 0.000000 1.000000 0.000000
vn 0.000000 1.000000 -0.000000
vn -0.000000 1.000000 0.000000
vn 0.000000 1.000000 0.000000
vn 0.000000 1.000000 0.000000
vn 0.000000 1.000000 0.000000
vn 0.000000 1.000000 0.000000
vn -0.000000 1.000000 0.000001
vn 0.000001 1.000000 -0.000000
vn 0.000001 1.000000 -0.000000
vn 0.000001 1.000000 -0.000000
vn 0.000001 1.000000 -0.000000
vn -0.000001 1.000000 0.000002
vn -0.000001 1.000000 0.000001
vn -0.000000 1.000000 -0.000000
vn -0.000000 1.000000 -0.000000
vn -0.000000 1.000000 -0.000000
vn 0.000000 1.000000 -0.000000
vn 0.000000 1.000000 -0.000000
vn -0.000000 1.000000 -0.000000
vn -0.000000 1.000000 -0.000000
vn 0.000000 1.000000 0.000000
vn 0.000000 1.000000 -0.000001
vn 0.000001 1.000000 -0.000001
vn 0.000000 1.000000 -0.000000
vn 0.000000 1.000000 0.000001
vn -0.000000 1.000000 -0.000001
vn -0.816529 -0.000000 0.577305
vn -0.816529 -0.000000 0.577305
vn -0.816529 -0.000000 0.577305
vn -0.816528 -0.000000 0.577305
vn -0.816529 -0.000000 0.577305
vn 0.000000 1.000000 0.000001
vn 0.000001 1.000000 0.000001
vn 0.000001 1.000000 0.000001
vn 0.000001 1.000000 0.000001
vn 0.816528 0.000000 -0.577306
vn 0.816528 0.000000 -0.577306
vn 0.816528 0.000000 -0.577306
vn 0.816528 0.000000 -0.577306
vn -0.923880 0.000000 -0.382682
vn -0.923880 0.000000 -0.382682
vn -0.923880 0.000000 -0.382682
vn -0.923880 0.000000 -0.382682
vn -0.382679 0.000000 -0.923881
vn -0.382679 0.000000 -0.923881
vn -0.382679 0.000000 -0.923881
vn -0.382679 0.000000 -0.923881
vn -0.923880 0.000000 0.382682
vn -0.923880 0.000000 0.382682
vn -0.923880 0.000000 0.382682
vn -0.923880 0.000000 0.382682
vn 0.382676 0.000000 -0.923883
vn 0.382676 0.000000 -0.923883
vn 0.382676 0.000000 -0.923883
vn 0.382676 0.000000 -0.923883
vn 0.000000 1.000000 0.000000
vn -0.382683 0.000000 0.923880
vn -0.382683 0.000000 0.923880
vn -0.382683 0.000000 0.923880
vn -0.382683 0.000000 0.923880
vn 0.923880 0.000000 -0.382682
vn 0.923880 0.000000 -0.382682
vn 0.923880 0.000000 -0.382682
vn 0.923880 0.000000 -0.382682
vn 0.382683 0.000000 0.923880
vn 0.382683 0.000000 0.923880
vn 0.382683 0.000000 0.923880
vn 0.382683 0.000000 0.923880
vn 0.923881 0.000000 0.382680
vn 0.923881 0.000000 0.382680
vn 0.923881 0.000000 0.382680
vn 0.923881 0.000000 0.382680
vn 0.816526 0.000000 -0.577309
vn 0.816526 0.000000 -0.577309
vn 0.000000 1.000000 0.000000
vn -0.577305 0.000000 -0.816529
vn -0.577305 0.000000 -0.816528
vn -0.577305 0.000000 -0.816528
vn -0.577305 0.000000 -0.816529
vn -0.816529 0.000000 0.577304
vn -0.816529 0.000000 0.577304
vn 0.000000 1.000000 0.000000
vn -0.382679 0.000000 -0.923881
vn -0.382679 0.000000 -0.923881
vn -0.382679 0.000000 -0.923881
vn -0.382679 0.000000 -0.923881
vn -0.923880 0.000000 -0.382682
vn -0.923880 0.000000 -0.382682
vn -0.923880 0.000000 -0.382682
vn -0.923880 0.000000 -0.382682
vn 0.382679 0.000000 -0.923881
vn 0.382679 0.000000 -0.923881
vn 0.382679 0.000000 -0.923881
vn 0.382679 0.000000 -0.923881
vn -0.923880 0.000000 0.382682
vn -0.923880 0.000000 0.382682
vn -0.923880 0.000000 0.382682
vn -0.923880 0.000000 0.382682
vn -0.577305 0.000000 -0.816528
vn -0.577305 0.000000 -0.816528
vn -0.577305 0.000000 -0.816528
vn -0.577305 0.000000 -0.816528
vn 0.923880 0.000000 -0.382682
vn 0.923880 0.000000 -0.382682
vn 0.923880 0.000000 -0.382682
vn 0.923880 0.000000 -0.382682
vn -0.382679 0.000000 0.923881
vn -0.382679 0.000000 0.923881
vn -0.382679 0.000000 0.923881
vn -0.382679 0.000000 0.923881
vn 0.000000 1.000000 0.000000
vn 0.000000 1.000000 0.000000
vn 0.000000 1.000000 0.000000
vn 0.000000 1.000000 0.000000
vn 0.000000 1.000000 0.000000
vn 0.000000 1.000000 0.000000
vn 0.000000 1.000000 0.000000
vn 0.000000 1.000000 0.000000
vn 0.000000 1.000000 0.000000
vn 0.000000 1.000000 0.000000
vn 0.923880 0.000000 0.382682
vn 0.923880 0.000000 0.382682
vn 0.923880 0.000000 0.382682
vn 0.923880 0.000000 0.382682
vn 0.382679 0.000000 0.923881
vn 0.382679 0.000000 0.923881
vn 0.382679 0.000000 0.923881
vn 0.382679 0.000000 0.923881
vn -0.577306 0.000000 -0.816528
vn -0.577306 0.000000 -0.816528
vn -0.816527 0.000000 0.577308
vn -0.816527 0.000000 0.577308
vn -0.577307 0.000000 -0.816527
vn -0.577307 0.000000 -0.816527
vn 0.000000 1.000000 0.000000
vn 0.000000 1.000000 0.000000
vn 0.000000 1.000000 0.000000
vn 0.000000 1.000000 0.000000
vn 0.000000 1.000000 0.000000
vn 0.000000 1.000000 0.000000
vn 0.000000 1.000000 0.000000
vn 0.000000 1.000000 0.000000
vn 0.000000 1.000000 0.000000
vn 0.000000 1.000000 0.000000
vn 0.000000 1.000000 0.000000
vn 0.000000 1.000000 0.000000
vn 0.000000 1.000000 0.000000
vn 0.000000 1.000000 0.000000
vn 0.000000 1.000000 0.000000
vn 0.000000 1.000000 0.000000
vn 0.000000 1.000000 0.000000
vn 0.000000 1.000000 0.000000
vn -0.577305 0.000000 -0.816528
vn 0.000000 1.000000 0.000000
vn 0.000000 1.000000 0.000000
vn 0.000000 1.000000 0.000000
vn 0.000000 1.000000 0.000000
vn 0.000000 1.000000 0.000000
vn 0.000000 1.000000 0.000000
vn 0.000000 1.000000 0.000000
vn 0.000000 1.000000 0.000000
vn 0.000000 1.000000 0.000000
vn 0.000000 1.000000 0.000000
vn 0.000000 1.000000 0.000000
vn 0.000000 1.000000 0.000000
vn 0.000000 1.000000 0.000000
vn 0.000000 1.000000 0.000000
vn 0.000000 1.000000 0.000000
vn 0.000000 1.000000 0.000000
vn 0.000000 1.000000 0.000000
vn 0.000000 1.000000 0.000000
vn 0.000000 1.000000 0.000000
vn 0.000000 1.000000 0.000000
vn 0.000000 1.000000 0.000000
vn 0.000000 1.000000 0.000000
vn 0.000000 1.000000 0.000000
vn 0.000000 1.000000 0.000000
vn 0.000000 1.000000 0.000000
vn 0.000000 1.000000 0.000000
vn 0.000000 1.000000 0.000000
vn 0.000000 1.000000 0.000000
vn 0.000000 1.000000 0.000000
vn 0.000000 1.000000 0.000000
vn 0.000000 1.000000 0.000000
vn 0.000000 1.000000 0.000000
vn 0.000000 1.000000 0.000000
vn 0.000000 1.000000 0.000000
vn 0.000000 1.000000 0.000000
vn 0.000000 1.000000 0.000000
vn 0.000000 1.000000 0.000000
vn 0.000000 1.000000 0.000000
vn 0.000000 1.000000 0.000000
vn 0.000000 1.000000 0.000000
vn 0.000000 1.000000 0.000000
vn 0.000000 1.000000 0.000000
vn 0.000000 1.000000 0.000000
vn 0.000000 1.000000 0.000000
vn 0.000000 1.000000 0.000000
vn 0.000000 1.000000 0.000000
vn 0.000000 1.000000 0.000000
vn 0.000000 1.000000 0.000000
vn 0.000000 1.000000 0.000000
vn 0.000000 1.000000 0.000000
vn 0.000000 1.000000 0.000000
vn 0.000000 1.000000 0.000000
vn 0.000000 1.000000 0.000000
vn 0.000000 1.000000 0.000000
vn 0.000000 1.000000 0.000000
vn 0.000000 1.000000 0.000000
vn 0.000000 1.000000 0.000000
vn 0.000000 1.000000 0.000000
vn 0.000000 1.000000 0.000000
vn 0.000000 1.000000 0.000000
vn 0.000000 1.000000 0.000000
vn 0.000000 1.000000 0.000000
vn 0.000000 1.000000 0.000000
vn 0.000000 1.000000 0.000000
vn 0.000000 1.000000 0.000000
vn 0.000000 1.000000 0.000000
vn 0.000000 1.000000 0.000000
vn 0.000000 1.000000 0.000000
vn 0.000000 1.000000 0.000000
vn 0.000000 1.000000 0.000000
vn 0.000000 1.000000 0.000000
vn 0.000000 1.000000 0.000000
vn 0.000000 1.000000 0.000000
vn 0.000000 1.000000 0.000000
vn 0.000000 1.000000 0.000000
vn 0.000000 1.000000 0.000000
vn 0.000000 1.000000 0.000000
vn 0.000000 1.000000 0.000000
vn 0.000000 1.000000 0.000000
vn 0.000001 1.000000 -0.000001
vn 0.000000 1.000000 -0.000000
vn -0.000001 1.000000 0.000001
vn -0.000000 1.000000 0.000000
vn 0.000000 1.000000 -0.000000
vn 0.000000 1.000000 0.000000
vn 0.000000 1.000000 0.000000
vn 0.000000 1.000000 0.000000
vn 0.000000 1.000000 0.000000
vn 0.816528 0.000000 -0.577306
vn 0.816528 0.000000 -0.577306
vn 0.000000 1.000000 -0.000000
vn 0.000000 1.000000 0.000000
vn 0.000000 1.000000 0.000000
vn 0.000000 1.000000 0.000000
vn 0.000000 1.000000 0.000000
vn 0.000000 1.000000 0.000000
vn 0.000000 1.000000 0.000000
vn 0.000000 1.000000 0.000000
vn 0.000000 1.000000 0.000000
vn 0.000000 1.000000 0.000000
vn 0.000000 1.000000 0.000000
vn -0.000000 1.000000 -0.000000
vn 0.000000 1.000000 -0.000000
vn 0.000000 1.000000 -0.000000
vn 0.000000 1.000000 -0.000000
vn 0.000000 1.000000 -0.000000
vn -0.000000 1.000000 0.000000
vn 0.000000 1.000000 -0.000000
vn -0.000001 1.000000 0.000002
vn -0.000001 1.000000 0.000002
vn -0.000001 1.000000 0.000002
vn 0.577305 0.000000 0.816528
vn 0.577305 0.000000 0.816529
vn 0.577305 0.000000 0.816529
vn 0.577305 0.000000 0.816529
vn 0.577305 0.000000 0.816529
vn -0.000000 1.000000 -0.000000
vn -0.000000 1.000000 -0.000000
vn -0.000000 1.000000 -0.000000
vn 0.000000 1.000000 0.000000
vn -0.000000 1.000000 -0.000000
vn 0.000000 1.000000 0.000000
vn -0.816529 0.000000 0.577304
vn -0.816529 0.000000 0.577304
vn -0.000001 1.000000 0.000001
vn -0.000000 1.000000 0.000000
vn 0.577304 0.000000 0.816529
vn 0.577304 0.000000 0.816529
vn 0.577304 0.000000 0.816529
vn 0.577305 0.000000 0.816529
vn 0.577305 0.000000 0.816529
vn 0.000001 1.000000 -0.000001
vn 0.000000 1.000000 -0.000002
vn -0.000001 1.000000 -0.000002
vn 0.000001 1.000000 0.000001
vn 0.000001 1.000000 0.000001
vn 0.000001 1.000000 0.000001
vn 0.000000 1.000000 0.000000
vn 0.000000 1.000000 0.000000
vn 0.000000 1.000000 0.000000
vn 0.000000 1.000000 0.000000
vn 0.923879 0.000000 0.382685
vn 0.923879 0.000000 0.382685
vn 0.923879 0.000000 0.382685
vn 0.923879 0.000000 0.382685
vn 0.382687 0.000000 0.923878
vn 0.382687 0.000000 0.923878
vn 0.382687 0.000000 0.923878
vn 0.382687 0.000000 0.923878
vn 0.923880 0.000000 -0.382682
vn 0.923880 0.000000 -0.382682
vn 0.923880 0.000000 -0.382682
vn 0.923880 0.000000 -0.382682
vn -0.382687 0.000000 0.923878
vn -0.382687 0.000000 0.923878
vn -0.382687 0.000000 0.923878
vn -0.382687 0.000000 0.923878
vn -0.000001 1.000000 -0.000001
vn -0.000000 1.000000 -0.000000
vn -0.923879 0.000000 0.382685
vn -0.923879 0.000000 0.382685
vn -0.923879 0.000000 0.382685
vn -0.923879 0.000000 0.382685
vn 0.382694 0.000000 -0.923875
vn 0.382694 0.000000 -0.923875
vn 0.382694 0.000000 -0.923875
vn 0.382694 0.000000 -0.923875
vn -0.923883 0.000000 -0.382676
vn -0.923883 0.000000 -0.382676
vn -0.923883 0.000000 -0.382676
vn -0.923883 0.000000 -0.382676
vn -0.382679 0.000000 -0.923881
vn -0.382679 0.000000 -0.923881
vn -0.382679 0.000000 -0.923881
vn -0.382679 0.000000 -0.923881
vn -0.000000 1.000000 0.000002
vn -0.816530 0.000000 0.577303
vn -0.816530 0.000000 0.577303
vn 0.577303 0.000000 0.816530
vn 0.577303 0.000000 0.816530
vn 0.816528 0.000000 -0.577306
vn 0.816528 0.000000 -0.577306
vn 0.382683 0.000000 0.923880
vn 0.382683 0.000000 0.923880
vn 0.382683 0.000000 0.923880
vn 0.382683 0.000000 0.923880
vn 0.923880 0.000000 0.382682
vn 0.923880 0.000000 0.382682
vn 0.923880 0.000000 0.382682
vn 0.923880 0.000000 0.382682
vn -0.382675 0.000000 0.923883
vn -0.382675 0.000000 0.923883
vn -0.382675 0.000000 0.923883
vn -0.382675 0.000000 0.923883
vn 0.923880 0.000000 -0.382682
vn 0.923880 0.000000 -0.382682
vn 0.923880 0.000000 -0.382682
vn 0.923880 0.000000 -0.382682
vn -0.923880 0.000000 0.382682
vn -0.923880 0.000000 0.382682
vn -0.923880 0.000000 0.382682
vn -0.923880 0.000000 0.382682
vn 0.382683 0.000000 -0.923880
vn 0.382683 0.000000 -0.923880
vn 0.382683 0.000000 -0.923880
vn 0.382683 0.000000 -0.923880
vn -0.923882 0.000000 -0.382679
vn -0.923882 0.000000 -0.382679
vn -0.923882 0.000000 -0.382679
vn -0.923882 0.000000 -0.382679
vn -0.382683 0.000000 -0.923880
vn -0.382683 0.000000 -0.923880
vn -0.382683 0.000000 -0.923880
vn -0.382683 0.000000 -0.923880
vn -0.000001 1.000000 -0.000002
vn 0.816528 0.000000 -0.577305
vn 0.816528 0.000000 -0.577305
vn 0.577302 0.000000 0.816531
vn 0.577302 0.000000 0.816531
vn 0.000000 1.000000 0.000000
vn 0.000000 1.000000 0.000000
vn 0.000000 1.000000 0.000000
vn 0.000000 1.000000 0.000000
vn 0.000000 1.000000 0.000000
vn 0.000000 1.000000 0.000000
vn 0.000000 1.000000 0.000000
vn 0.000000 1.000000 0.000000
vn 0.000000 1.000000 0.000000
vn 0.000000 1.000000 0.000000
vn 0.000000 1.000000 0.000000
vn 0.000000 1.000000 0.000000
vn 0.000000 1.000000 0.000000
vn 0.000000 1.000000 0.000000
vn 0.000000 1.000000 0.000000
vn 0.000000 1.000000 0.000000
vn 0.000000 1.000000 0.000000
vn 0.000000 1.000000 0.000000
vn 0.000000 1.000000 0.000000
vn 0.000000 1.000000 0.000000
vn 0.000000 1.000000 0.000000
vn 0.000000 1.000000 0.000000
vn 0.000000 -0.111010 -0.993819
vn 0.000000 -0.111010 -0.993819
vn 0.000000 -0.111010 -0.993819
vn 0.000000 1.000000 0.000000
vn 0.000000 1.000000 0.000000
vn 0.000000 1.000000 0.000000
vn 0.000000 1.000000 0.000000
vn 0.000000 1.000000 0.000000
vn 0.000000 1.000000 0.000000
vn 0.000000 1.000000 0.000000
vn 0.000000 1.000000 0.000000
vn 0.000000 1.000000 0.000000
vn 0.000000 1.000000 0.000000
vn 0.000000 1.000000 0.000000
vn 0.000000 1.000000 0.000000
vn 0.000000 1.000000 0.000000
vn 0.000000 1.000000 0.000000
vn 0.000000 1.000000 0.000000
vn 0.000000 1.000000 0.000000
vn 0.000000 1.000000 0.000000
vn 0.000000 1.000000 0.000000
vn 0.000000 1.000000 0.000000
vn 0.000000 1.000000 0.000000
vn 0.000000 0.000000 -1.000000
vn 0.000000 0.000000 -1.000000
vn 0.000000 0.000000 -1.000000
vn 0.000000 1.000000 0.000000
vn 0.000000 1.000000 0.000000
vn 0.000000 1.000000 0.000000
vn 0.000000 1.000000 0.000000
vn 0.000000 1.000000 0.000000
vn 0.000000 1.000000 0.000000
vn 0.000000 1.000000 0.000000
vn 0.000000 1.000000 0.000000
vn 0.000000 1.000000 0.000000
vn 0.000000 1.000000 0.000000
vn 0.000000 1.000000 0.000000
vn 0.000000 1.000000 0.000000
vn 0.000000 1.000000 0.000000
vn 0.000000 1.000000 0.000000
vn 0.000000 1.000000 0.000000
vn 0.000000 1.000000 0.000000
vn 0.000000 1.000000 0.000000
vn 0.000000 1.000000 0.000000
vn 0.000000 1.000000 0.000000
vn 0.000000 1.000000 0.000000
vn 0.000000 1.000000 0.000000
vn 0.000000 1.000000 0.000000
vn 0.000000 1.000000 0.000000
vn 0.000000 1.000000 0.000000
vn 0.000000 1.000000 0.000000
vn 0.000000 1.000000 0.000000
vn 0.000000 1.000000 0.000000
vn 0.000000 1.000000 0.000000
vn 0.000000 1.000000 0.000000
vn 0.000000 1.000000 0.000000
vn 0.000000 1.000000 0.000000
vn 0.000000 1.000000 0.000000
vn 0.000000 1.000000 0.000000
vn 0.000000 1.000000 0.000000
vn 0.000000 1.000000 0.000000
vn 0.000000 1.000000 0.000000
vn 0.000000 1.000000 0.000000
vn 0.000000 1.000000 0.000000
vn 0.000000 1.000000 0.000000
vn 0.000000 1.000000 0.000000
vn 0.000000 1.000000 0.000000
vn 0.000000 1.000000 0.000000
vn 0.000000 1.000000 0.000000
vn 0.000000 1.000000 0.000000
vn 0.000000 1.000000 0.000000
vn 0.000000 1.000000 0.000000
vn 0.000000 1.000000 0.000000
vn 0.000000 1.000000 0.000000
vn 0.000000 1.000000 0.000000
vn 0.000000 1.000000 0.000000
vn 0.000000 1.000000 0.000000
vn 0.000000 1.000000 0.000000
vn 0.000000 1.000000 0.000000
vn 0.000000 1.000000 0.000000
vn 0.000000 1.000000 0.000000
vn 0.000000 1.000000 0.000000
s 1
g polySurface44 group11
usemtl initialShadingGroup
f 11//1 3//2 1//3 2//4 8//5 19//6 16//7 7//8
f 15//9 6//10 4//11 5//12 2//4 1//3 7//8 16//7
f 9//13 10//14 7//8 1//3
f 26//15 25//16 24//17 14//18 12//19 13//20 27//21 31//22
f 18//23 17//24 12//19 30//25
f 20//26 7//8 10//14 23//27
s 4
f 146//28 17//29 21//30 22//31 147//32
s 1
f 11//1 7//8 20//26 29//33
f 30//25 12//19 14//18 28//34 32//35 33//36 31//22 27//21
f 27//21 13//20 3//2 11//1
s 5
f 34//37 35//38 10//39 9//40
s off
f 36//41 37//42 5//43 4//44
f 37//45 38//46 2//47 5//48
f 39//49 36//50 4//51 6//52
f 38//53 40//54 8//55 2//56
s 1
f 29//33 41//57 27//21 11//1
s off
f 42//58 39//59 6//60 15//61
f 40//62 43//63 19//64 8//65
f 44//66 42//67 15//68 16//69
f 43//70 44//71 16//72 19//73
s 5
f 35//38 45//74 23//75 10//39
s 1
f 41//57 46//76 30//25 27//21
s 6
f 45//77 47//78 20//79 23//80
s 4
f 48//81 21//30 17//29 18//82
s 1
f 46//76 49//83 18//23 30//25
s off
f 50//84 51//85 14//86 24//87
f 52//88 50//89 24//90 25//91
f 51//92 53//93 28//94 14//95
f 54//96 52//97 25//98 26//99
s 6
f 55//100 56//101 41//102 29//103
s off
f 53//104 57//105 32//106 28//107
f 58//108 54//109 26//110 31//111
s 8
f 59/1/112 60/2/113 61/3/114 62/4/115 63/5/116
f 64/6/117 65/7/118 66/8/119 67/9/120 68/10/121
s off
f 57//122 69//123 33//124 32//125
f 69//126 58//127 31//128 33//129
s 6
f 56//101 70//130 46//131 41//102
s 4
f 71//132 48//81 18//82 49//133
s 6
f 70//130 71//134 49//135 46//131
s 8
f 72/11/136 73/12/137 64/6/117 74/13/138
f 60/2/113 75/14/139 76/15/140 77/16/141
f 78/17/142 79/18/143 80/19/144 81/20/145
f 80/19/144 82/21/146 83/22/147 84/23/148
f 83/22/147 85/24/149 86/25/150 87/26/151
f 76/15/140 88/27/152 78/17/142 89/28/153
s 6
f 47//78 90//154 55//100 29//103 20//79
s 8
f 91/29/155 92/30/156 73/12/137 72/11/136
f 79/18/143 93/31/157 82/21/146 80/19/144
f 82/21/146 94/32/158 85/24/149 83/22/147
f 85/24/149 95/33/159 91/29/155 86/25/150
f 88/27/152 96/34/160 79/18/143 78/17/142
f 75/14/139 97/35/161 88/27/152 76/15/140
f 73/12/137 98/36/162 99/37/163 65/7/118 64/6/117
f 100/38/164 75/14/139 60/2/113 59/1/112 101/39/165
s off
f 36//166 39//167 42//168 44//169 43//170 40//171 38//172 37//173
s 8
f 95/33/159 102/40/174 92/30/156 91/29/155
f 93/31/157 103/41/175 94/32/158 82/21/146
f 94/32/158 104/42/176 95/33/159 85/24/149
f 96/34/160 105/43/177 93/31/157 79/18/143
f 97/35/161 106/44/178 96/34/160 88/27/152
s off
f 50//179 52//180 54//181 58//182 69//183 57//184 53//185 51//186
s 8
f 92/30/156 107/45/187 108/46/188 98/36/162 73/12/137
f 109/47/189 97/35/161 75/14/139 100/38/164 110/48/190
f 104/42/176 111/49/191 102/40/174 95/33/159
f 103/41/175 112/50/192 104/42/176 94/32/158
f 105/43/177 113/51/193 103/41/175 93/31/157
f 106/44/178 114/52/194 105/43/177 96/34/160
f 112/50/192 115/53/195 111/49/191 104/42/176
f 113/51/193 116/54/196 112/50/192 103/41/175
f 114/52/194 117/55/197 113/51/193 105/43/177
f 102/40/174 118/56/198 119/57/199 107/45/187 92/30/156
f 116/54/196 120/58/200 115/53/195 112/50/192
f 117/55/197 121/59/201 116/54/196 113/51/193
f 86/25/150 91/29/155 72/11/136 22/60/202 21/61/203 48/62/204 71/63/205 70/64/206 56/65/207 55/66/208 90/67/209
f 121/59/201 122/68/210 120/58/200 116/54/196
f 123/69/211 122/68/210 124/70/212 125/71/213
f 126/72/214 106/44/178 97/35/161 109/47/189 127/73/215 128/74/216
f 115/53/195 129/75/217 130/76/218 131/77/219 111/49/191
f 132/78/220 117/55/197 114/52/194 133/79/221 134/80/222
f 111/49/191 131/77/219 135/81/223 136/82/224 118/56/198 102/40/174
f 120/58/200 137/83/225 138/84/226 129/75/217 115/53/195
f 139/85/227 121/59/201 117/55/197 132/78/220 140/86/228
f 122/68/210 123/69/211 141/87/229 137/83/225 120/58/200
f 124/70/212 122/68/210 121/59/201 139/85/227 142/88/230
f 133/79/221 114/52/194 106/44/178 126/72/214 143/89/231 144/90/232 145/91/233
s 1
f 12//19 17//24 146//234 148//235
f 149//236 9//13 1//3 157//237
f 13//20 12//19 148//235 150//238
s 8
f 81/20/145 80/19/144 84/23/148 151/92/239
f 84/23/148 83/22/147 87/26/151 152/93/240
f 89/28/153 78/17/142 81/20/145 153/94/241
f 77/16/141 76/15/140 89/28/153 154/95/242
s 5
f 155//243 34//37 9//40 149//244
s 1
f 3//2 13//20 150//238 156//245
s 8
f 87/26/151 86/25/150 90/67/209 47/96/246 45/97/247 35/98/248 34/99/249 155/100/250 158/101/251 159/102/252 160/103/253 161/104/254 162/105/255
s 1
f 174//256 150//238 148//235 163//257 170//258 183//259 181//260 180//261 173//262
f 1//3 3//2 156//245 157//237
f 169//263 167//264 168//265 163//257 148//235 173//262 180//261
s 12
f 165//266 171//267 172//268 166//269 164//270
s 1
f 187//271 186//272 175//273 189//274 157//237 156//245 188//275 201//276
s 4
f 147//32 176//277 177//278 146//28
s 1
f 182//279 149//236 157//237 191//280
s 12
f 161//281 160//282 184//283 179//284 178//285
s 1
f 173//262 177//286 185//287 166//288
f 191//280 157//237 189//274 190//289 202//290 205//291 201//276 188//275
s 8
f 74/13/138 64/6/117 68/10/121 192/106/292 193/107/293
f 61/3/114 60/2/113 77/16/141 194/108/294 195/109/295
s off
f 196//296 197//297 168//298 167//299
f 197//300 198//301 163//302 168//303
f 199//304 196//305 167//306 169//307
f 198//308 200//309 170//310 163//311
s 1
f 191//280 188//275 179//312 184//313
s off
f 200//314 203//315 183//316 170//317
f 204//318 199//319 169//320 180//321
f 203//322 206//323 181//324 183//325
f 206//326 204//327 180//328 181//329
s 1
f 182//279 191//280 184//313 207//330
f 148//235 146//234 177//286 173//262
s 4
f 176//277 208//331 185//332 177//278
s 12
f 208//333 164//270 166//269 185//334
s 5
f 158//335 155//243 149//244 182//336
s 1
f 188//275 156//245 150//238 174//256
s off
f 209//337 210//338 189//339 175//340
f 211//341 209//342 175//343 186//344
s 12
f 171//267 178//285 179//284 172//268
s off
f 210//345 212//346 190//347 189//348
f 213//349 211//350 186//351 187//352
f 212//353 214//354 202//355 190//356
f 215//357 213//358 187//359 201//360
f 214//361 216//362 205//363 202//364
f 216//365 215//366 201//367 205//368
s 1
f 166//288 172//369 174//256 173//262
s 5
f 159//370 158//335 182//336 207//371
s 12
f 160//282 159//372 207//373 184//283
s 1
f 172//369 179//312 188//275 174//256
s 8
f 151/92/239 84/23/148 152/93/240 217/110/374
f 153/94/241 81/20/145 151/92/239 218/111/375
f 152/93/240 87/26/151 162/105/255 219/112/376
f 154/95/242 89/28/153 153/94/241 220/113/377
f 22/60/202 72/11/136 74/13/138 221/114/378 165/115/379 164/116/380 208/117/381 176/118/382 147/119/383
s off
f 197//384 196//385 199//386 204//387 206//388 203//389 200//390 198//391
s 8
f 221/114/378 74/13/138 193/107/293 225/120/392 226/121/393
f 194/108/294 77/16/141 154/95/242 227/122/394 228/123/395
s off
f 229//396 230//397 231//398
s 8
f 218/111/375 151/92/239 217/110/374 232/124/399
f 217/110/374 152/93/240 219/112/376 233/125/400
f 220/113/377 153/94/241 218/111/375 234/126/401
s off
f 215//402 216//403 214//404 212//405 210//406 209//407 211//408 213//409
s 8
f 239/127/410 240/128/411 241/129/412
f 223/130/413 246/131/414 247/132/415 224/133/416
f 162/105/255 161/104/254 178/134/417 171/135/418 165/115/379 221/114/378 246/131/414
s off
f 253//419 254//420 255//421
s 8
f 234/126/401 218/111/375 232/124/399 256/136/422
f 227/122/394 154/95/242 220/113/377 257/137/423 258/138/424
f 219/112/376 162/105/255 246/131/414 223/130/413 222/139/425 266/140/426
f 245/141/427 275/142/428 240/128/411 233/125/400 238/143/429
f 246/131/414 221/114/378 226/121/393 276/144/430 243/145/431 242/146/432 247/132/415
f 277/147/433 234/126/401 256/136/422 278/148/434 279/149/435
f 233/125/400 219/112/376 266/140/426 230/150/436 229/151/437 238/143/429
f 257/137/423 220/113/377 234/126/401 277/147/433 280/152/438 281/153/439
f 278/148/434 256/136/422 282/154/440 283/155/441 284/156/442
f 285/157/443 275/142/428 286/158/444 287/159/445 288/160/446
f 283/155/441 282/154/440 285/157/443 289/161/447 290/162/448
f 286/158/444 275/142/428 245/141/427 249/163/449 254/164/450 253/165/451 274/166/452
f 289/161/447 285/157/443 288/160/446 291/167/453 292/168/454 293/169/455
f 232/124/399 217/110/374 233/125/400 240/128/411 239/127/410 244/170/456 261/171/457 260/172/458 259/173/459 235/174/460 236/175/461
f 282/154/440 251/176/462 250/177/463 271/178/464 270/179/465 268/180/466 248/181/467 241/129/412 240/128/411 275/142/428 285/157/443
f 256/136/422 232/124/399 236/175/461 237/182/468 262/183/469 263/184/470 264/185/471 265/186/472 267/187/473 269/188/474 273/189/475 272/190/476 252/191/477 251/176/462 282/154/440
