# This file uses meters as units for non-parametric coordinates.

mtllib CryoPodModel.mtl
g default
v 0.162331 2.895066 -3.497208
v -1.105978 2.895066 -3.497208
v 0.043800 2.784308 -3.484837
v 1.632540 3.222506 -4.089312
v 0.378941 3.022927 -4.071501
v 1.388256 1.734889 -4.089312
v 0.412350 -0.036377 -3.169777
v -0.987450 2.784308 -3.484837
v 0.756054 1.734889 -4.089312
v 0.247086 0.405509 -3.219134
v -1.320064 3.057064 -4.074547
v 0.376419 3.057064 -4.074547
v 1.632540 -0.037138 -4.089312
v 1.632540 -0.037138 -5.055026
v 1.632540 3.222506 -5.055026
v 0.611230 0.971002 -4.089312
v 0.756054 0.963502 -4.089312
v -1.190733 0.405509 -3.219134
v -0.987450 2.780618 -3.917241
v 0.043800 2.780618 -3.917241
v 0.756054 1.734889 -4.483207
v 1.388256 1.734889 -4.483207
v 1.388256 0.963502 -4.089312
v 1.388256 0.963502 -4.483207
v -1.342839 2.748811 -4.047038
v -1.749098 2.418470 -4.042994
v -2.469852 3.222506 -4.089312
v -2.469852 3.222506 -5.055026
v 0.247086 0.401754 -3.659063
v -2.323950 2.418470 -4.042994
v -1.356003 -0.036377 -3.169777
v -1.749098 1.717053 -4.042994
v 0.756054 0.963502 -4.483207
v -2.323950 1.717053 -4.042994
v -1.704530 1.090923 -4.089312
v -2.270530 1.090923 -4.089312
v 0.723458 -0.036377 -4.089312
v -1.190733 0.401754 -3.659063
v -2.270530 0.400316 -4.089312
v -2.469852 -0.037138 -4.089312
v -2.323950 2.418470 -4.529525
v -1.749098 2.418470 -4.529525
v -1.749098 1.717053 -4.529525
v 0.723343 -0.037138 -4.089312
v -2.469852 -0.037138 -5.055026
v 1.632540 -2.148038 -4.089312
v 1.632540 -2.148038 -5.055026
v -2.323950 1.717053 -4.529525
v -1.542642 1.082539 -4.089312
v -1.667111 -0.036377 -4.089312
v -1.356003 -2.147277 -3.169777
v 0.412350 -2.147277 -3.169777
v 0.412350 -2.147277 -4.089312
v -2.270530 1.090923 -4.483207
v -1.704530 1.090923 -4.483207
v -1.704530 0.400316 -4.089312
v -1.704530 0.400316 -4.483207
v -2.270530 0.400316 -4.483207
v -1.666995 -0.037138 -4.089312
v -1.356003 -2.147277 -4.089312
v -2.469852 -2.148038 -5.055026
v -2.469852 -2.148038 -4.089312
vt 0.713258 0.499455
vt 0.605096 0.499736
vt 0.703201 0.490175
vt 0.080917 0.611007
vt 0.665103 0.982876
vt 0.749915 0.875249
vt 0.730701 0.253620
vt 0.615134 0.490427
vt 0.696884 0.875166
vt 0.717430 0.290553
vt 0.587330 0.549972
vt 0.731225 0.549655
vt 0.770364 0.726824
vt 0.080837 0.257493
vt 0.080899 0.530211
vt 0.684839 0.811260
vt 0.696955 0.810625
vt 0.600253 0.290346
vt 0.945221 0.527491
vt 0.858943 0.527148
vt 0.859086 0.490971
vt 0.945365 0.491313
vt 0.651363 0.821040
vt 0.598471 0.820661
vt 0.598707 0.787707
vt 0.651598 0.788085
vt 0.685014 0.723785
vt 0.684553 0.788321
vt 0.652060 0.723549
vt 0.520896 0.959532
vt 0.487376 0.931936
vt 0.504921 0.530114
vt 0.424125 0.530132
vt 0.999973 0.290800
vt 0.981541 0.490934
vt 0.963167 0.291186
vt 0.439857 0.931907
vt 0.586891 0.253404
vt 0.487347 0.873518
vt 0.599168 0.723171
vt 0.441470 0.873980
vt 0.565752 0.787471
vt 0.566214 0.722935
vt 0.599404 0.690217
vt 0.652295 0.690595
vt 0.490948 0.821200
vt 0.442805 0.821510
vt 0.811066 0.261101
vt 0.842874 0.290709
vt 0.443024 0.763428
vt 0.504859 0.257396
vt 0.822914 0.490304
vt 0.806072 0.290030
vt 0.605481 0.690120
vt 0.557389 0.690603
vt 0.556979 0.649900
vt 0.605072 0.649416
vt 0.843020 0.253901
vt 0.963314 0.254379
vt 0.645185 0.590326
vt 0.645775 0.649007
vt 0.604482 0.590735
vt 0.811070 0.261033
vt 0.424062 0.257415
vt 0.000040 0.257512
vt 0.770224 0.549990
vt 0.080796 0.080885
vt 0.556389 0.591219
vt 0.504617 0.820492
vt 0.516276 0.650309
vt 0.515686 0.591628
vt 0.555980 0.550516
vt 0.604072 0.550032
vt 0.506826 0.261607
vt 0.583614 0.078331
vt 0.732624 0.076996
vt 0.731827 0.000010
vt 0.522308 0.985329
vt 0.664876 0.985746
vt 0.344881 0.842676
vt 0.297540 0.841584
vt 0.298299 0.808638
vt 0.345641 0.809729
vt 0.379919 0.752725
vt 0.378587 0.810489
vt 0.346973 0.751965
vt 0.299631 0.750874
vt 0.265353 0.807878
vt 0.266684 0.750114
vt 0.300390 0.717927
vt 0.347732 0.719019
vt 0.506823 0.261541
vt 0.505673 0.080960
vt 0.424022 0.080807
vt 0.426488 0.549957
vt 0.426502 0.726748
vt 0.796312 0.347241
vt 0.762714 0.517668
vt 0.762450 0.520533
vt 0.749910 0.810640
vt 0.694203 0.726883
vt 0.694193 0.726819
vt 0.555756 0.520645
vt 0.553448 0.494753
vt 0.523421 0.356801
vt 0.490724 0.763389
vt 0.493703 0.726724
vt 0.493693 0.726788
vt 0.667985 0.550037
vt 0.519817 0.550026
vt 0.424004 0.000011
vt 0.504818 0.080788
vt 0.000000 0.080904
vt 0.080778 0.000089
vt 0.583108 0.001304
vt 0.811092 0.079247
vt 0.424143 0.610929
vt 0.425566 0.998860
vt 0.000103 0.530229
vt 0.770379 1.000000
vn 0.000000 0.111006 0.993820
vn 0.000003 0.111006 0.993820
vn 0.000000 0.111006 0.993820
vn -0.000000 0.111006 0.993820
vn 0.000003 0.111006 0.993820
vn -0.000000 0.021516 0.999769
vn -0.000000 0.023430 0.999725
vn -0.000001 0.111006 0.993820
vn 0.000000 0.962815 0.270161
vn 0.000000 0.962815 0.270161
vn 0.000000 0.962815 0.270161
vn 0.000000 0.962815 0.270161
vn 1.000000 0.000000 0.000000
vn 1.000000 0.000000 0.000000
vn 1.000000 0.000000 0.000000
vn 1.000000 0.000000 0.000000
vn 0.007447 -0.003378 0.999967
vn 0.004635 -0.002102 0.999987
vn 0.012465 -0.005654 0.999906
vn 0.005136 -0.002330 0.999984
vn 0.005510 0.000544 0.999985
vn -0.014679 0.020738 0.999677
vn 0.000000 -0.999964 0.008535
vn 0.000000 -0.999964 0.008535
vn 0.000000 -0.999964 0.008535
vn 0.000000 -0.999964 0.008535
vn 0.000000 -1.000000 0.000000
vn 0.000000 -1.000000 0.000000
vn 0.000000 -1.000000 0.000000
vn 0.000000 -1.000000 0.000000
vn -1.000000 0.000000 0.000000
vn -1.000000 0.000000 0.000000
vn -1.000000 0.000000 0.000000
vn -1.000000 0.000000 0.000000
vn 0.000000 1.000000 0.000000
vn 0.000000 1.000000 0.000000
vn 0.000000 1.000000 0.000000
vn 0.000000 1.000000 0.000000
vn -0.996375 -0.085066 0.000726
vn -0.996375 -0.085066 0.000726
vn -0.996375 -0.085066 0.000726
vn -0.996375 -0.085066 0.000726
vn -0.036845 0.041295 0.998467
vn -0.027566 0.028374 0.999217
vn -0.028890 0.030068 0.999130
vn -0.043475 0.048726 0.997866
vn -0.020059 0.018772 0.999623
vn -0.032991 0.035314 0.998832
vn -0.043475 0.048726 0.997866
vn -0.043475 0.048726 0.997866
vn -0.043475 0.048726 0.997866
vn -0.003889 0.004359 0.999983
vn 0.000000 0.000000 1.000000
vn 0.000000 0.000000 1.000000
vn 0.000000 0.000000 1.000000
vn 0.000000 0.000000 1.000000
vn 1.000000 0.000000 0.000000
vn 1.000000 0.000000 0.000000
vn 1.000000 0.000000 0.000000
vn 1.000000 0.000000 0.000000
vn 0.000000 1.000000 0.000000
vn 0.000000 1.000000 0.000000
vn 0.000000 1.000000 0.000000
vn 0.000000 1.000000 0.000000
vn 0.033549 -0.049764 0.998197
vn 0.026804 -0.039758 0.998850
vn 0.022785 -0.033797 0.999169
vn 0.934287 0.110209 0.339061
vn 0.964953 0.025753 0.261155
vn 0.964187 0.028449 0.263693
vn 0.934287 0.110209 0.339061
vn 0.934287 0.110209 0.339061
vn 0.934287 0.110209 0.339060
vn 0.000000 0.107896 0.994162
vn 0.000000 0.107896 0.994162
vn 0.000000 0.107896 0.994162
vn 0.000000 0.107896 0.994162
vn 0.996375 -0.085066 0.000726
vn 0.996375 -0.085066 0.000726
vn 0.996375 -0.085066 0.000726
vn 0.996375 -0.085066 0.000726
vn 0.000000 -1.000000 0.000000
vn 0.000000 -1.000000 0.000000
vn 0.000000 -1.000000 0.000000
vn 0.000000 -1.000000 0.000000
vn 0.000000 0.999964 -0.008535
vn 0.000000 0.999964 -0.008535
vn 0.000000 0.999964 -0.008535
vn 0.000000 0.999964 -0.008535
vn -1.000000 0.000000 0.000000
vn -1.000000 0.000000 0.000000
vn -1.000000 0.000000 0.000000
vn -1.000000 0.000000 0.000000
vn 0.983399 -0.072468 0.166356
vn 0.983399 -0.072468 0.166356
vn 0.983399 -0.072468 0.166356
vn 0.000000 0.000000 -1.000000
vn 0.000000 0.000000 -1.000000
vn 0.000000 0.000000 -1.000000
vn 0.000000 0.000000 -1.000000
vn 1.000000 0.000000 0.000000
vn 1.000000 0.000000 0.000000
vn 0.000000 0.000000 1.000000
vn 0.000000 0.000000 1.000000
vn 0.000000 0.000000 1.000000
vn 0.000000 0.000000 1.000000
vn 1.000000 0.000000 0.000000
vn 1.000000 0.000000 0.000000
vn 1.000000 0.000000 0.000000
vn 1.000000 0.000000 0.000000
vn 0.000000 1.000000 0.000000
vn 0.000000 1.000000 0.000000
vn 0.000000 1.000000 0.000000
vn 0.000000 1.000000 0.000000
vn -0.964384 0.027990 0.263021
vn -0.965148 0.025286 0.260482
vn -0.934395 0.110311 0.338729
vn -0.934395 0.110311 0.338729
vn -0.934395 0.110311 0.338729
vn -0.934395 0.110311 0.338729
vn 0.000000 0.000000 1.000000
vn 0.000000 0.000000 1.000000
vn 0.000000 -1.000000 0.000000
vn 0.000000 -1.000000 0.000000
vn 0.000000 -1.000000 0.000000
vn 0.000000 -1.000000 0.000000
vn -1.000000 0.000000 0.000000
vn -1.000000 0.000000 0.000000
vn -1.000000 0.000000 0.000000
vn -1.000000 0.000000 0.000000
vn -1.000000 0.000000 0.000000
vn -1.000000 0.000000 0.000000
vn -1.000000 0.000000 0.000000
vn -1.000000 0.000000 0.000000
vn 0.000000 0.000000 1.000000
vn 0.000000 0.000000 1.000000
vn 0.000000 0.000000 1.000000
vn 0.000000 0.000000 1.000000
vn 1.000000 0.000000 0.000000
vn 1.000000 0.000000 0.000000
vn 1.000000 0.000000 0.000000
vn 1.000000 0.000000 0.000000
vn 0.000000 1.000000 0.000000
vn 0.000000 1.000000 0.000000
vn 0.000000 1.000000 0.000000
vn 0.000000 1.000000 0.000000
vn -0.983399 -0.072468 0.166356
vn -0.983399 -0.072468 0.166356
vn -0.983399 -0.072468 0.166356
vn 0.000000 -1.000000 0.000000
vn 0.000000 -1.000000 0.000000
vn 0.000000 -1.000000 0.000000
vn 0.000000 -1.000000 0.000000
vn 0.000000 0.000000 -1.000000
vn 0.000000 0.000000 -1.000000
vn 0.000000 -1.000000 0.000000
vn 0.000000 -1.000000 0.000000
vn 0.000000 -1.000000 0.000000
vn 0.000000 -1.000000 0.000000
vn -1.000000 0.000000 0.000000
vn -1.000000 0.000000 0.000000
vn 0.000000 0.000000 1.000000
vn 0.000000 0.000000 1.000000
vn 0.000000 0.000000 1.000000
vn 0.000000 0.000000 1.000000
vn 0.000000 0.000000 1.000000
vn 0.000000 0.000000 1.000000
vn 0.000000 0.000000 1.000000
vn 0.000000 0.000000 1.000000
vn 0.000000 0.000000 1.000000
vn 0.000000 0.000000 1.000000
vn 0.000000 0.000000 1.000000
s 1
g polySurface37 group11
usemtl initialShadingGroup
f 18/18/1 8/8/2 3/3/3 1/1/4 2/2/5 31/38/6
f 7/7/7 1/1/4 3/3/3 10/10/8 18/18/1 31/38/6
s off
f 11/11/9 2/2/10 1/1/11 12/12/12
s 2
f 13/65/13 14/14/14 15/15/15 4/119/16
s 3
f 16/16/17 17/17/18 9/9/19 6/6/20 4/120/21 5/5/22
s off
f 3/19/23 8/20/24 19/21/25 20/22/26
f 6/23/27 9/24/28 21/25/29 22/26/30
f 23/27/31 6/28/32 22/26/33 24/29/34
f 27/117/35 4/4/36 15/15/37 28/33/38
f 10/34/39 3/35/40 20/22/41 29/36/42
s 3
f 39/50/43 36/47/44 34/41/45 30/37/46 26/31/47 25/30/48 11/78/49 12/79/50 5/5/22 4/120/21 27/118/51 40/96/52
s off
f 21/25/53 33/40/54 24/29/55 22/26/56
f 9/42/57 17/43/58 33/40/59 21/25/60
f 17/44/61 23/45/62 24/29/63 33/40/64
s 3
f 32/39/65 34/41/45 36/47/44 35/46/66 49/69/67 25/30/48 26/31/47
s 4
f 1/1/68 7/7/69 37/48/70 16/97/71 5/98/72 12/99/73
s off
f 19/21/74 38/49/75 29/36/76 20/22/77
f 8/52/78 18/53/79 38/49/80 19/21/81
f 26/54/82 30/55/83 41/56/84 42/57/85
f 18/58/86 10/59/87 29/36/88 38/49/89
f 32/60/90 26/61/91 42/57/92 43/62/93
s 4
f 44/63/94 37/48/70 7/7/69 52/76/95 53/116/96
s 5
f 28/33/97 15/15/98 14/14/99 45/64/100
s 2
f 14/14/14 13/65/13 46/113/101 47/67/102
s off
f 41/56/103 48/68/104 43/62/105 42/57/106
f 30/70/107 34/71/108 48/68/109 41/56/110
f 34/72/111 32/73/112 43/62/113 48/68/114
s 6
f 50/74/115 31/38/116 2/2/117 11/103/118 25/104/119 49/105/120
s 1
f 7/7/7 31/38/6 51/75/121 52/76/122
s off
f 35/80/123 36/81/124 54/82/125 55/83/126
f 56/84/127 35/85/128 55/83/129 57/86/130
s 7
f 45/64/131 40/51/132 27/32/133 28/33/134
s off
f 54/82/135 58/87/136 57/86/137 55/83/138
f 36/88/139 39/89/140 58/87/141 54/82/142
f 39/90/143 56/91/144 57/86/145 58/87/146
s 6
f 31/38/116 50/74/115 59/92/147 60/93/148 51/75/149
s off
f 53/77/150 52/76/151 51/75/152 60/115/153
s 5
f 45/64/100 14/14/99 47/67/154 61/94/155
s off
f 61/94/156 47/67/157 46/114/158 62/111/159
s 7
f 40/51/132 45/64/131 61/94/160 62/112/161
s 3
f 6/6/20 23/100/162 17/17/18 16/16/17 37/101/163 44/102/164 13/13/165 4/120/21
f 49/69/67 35/46/66 56/106/166 39/50/43 40/96/52 59/107/167 50/108/168
f 13/13/165 44/102/164 53/109/169 60/110/170 59/107/167 40/96/52 62/95/171 46/66/172
