# This file uses meters as units for non-parametric coordinates.

mtllib CryoWallsOBJ.mtl
g default
v -6.170859 4.795933 5.999046
v -5.171024 4.795933 5.999046
v -4.171180 4.795933 5.999046
v -3.171340 4.795933 5.999046
v -2.171498 4.795933 5.999046
v -1.171658 4.795933 5.999046
v -0.171818 4.795933 5.999046
v 0.828026 4.795933 5.999046
v 1.827863 4.795933 5.999046
v 2.827705 4.795933 5.999046
v 3.827547 4.795933 5.999046
v 4.827385 4.795933 5.999046
v 5.827225 4.795933 5.999046
v -6.170859 5.233514 5.999046
v -5.171024 5.233514 5.999046
v -4.171180 5.233514 5.999046
v -3.171340 5.233514 5.999046
v -2.171498 5.233514 5.999046
v -1.171658 5.233514 5.999046
v -0.171818 5.233514 5.999046
v 0.828026 5.233514 5.999046
v 1.827863 5.233514 5.999046
v 2.827705 5.233514 5.999046
v 3.827547 5.233514 5.999046
v 4.827385 5.233514 5.999046
v 5.827225 5.233514 5.999046
v -6.170859 5.233514 4.999204
v -5.171024 5.233514 4.999204
v -4.171180 5.233514 4.999204
v -3.171340 5.233514 4.999204
v -2.171498 5.233514 4.999204
v -1.171658 5.233514 4.999204
v -0.171818 5.233514 4.999204
v 0.828026 5.233514 4.999204
v 1.827863 5.233514 4.999204
v 2.827705 5.233514 4.999204
v 3.827547 5.233514 4.999204
v 4.827385 5.233514 4.999204
v 5.827225 5.233514 4.999204
v -6.170859 5.233514 3.999364
v -5.171024 5.233514 3.999364
v -4.171180 5.233514 3.999364
v -3.171340 5.233514 3.999364
v -2.171498 5.233514 3.999364
v -1.171658 5.233514 3.999364
v -0.171818 5.233514 3.999364
v 0.828026 5.233514 3.999364
v 1.827863 5.233514 3.999364
v 2.827705 5.233514 3.999364
v 3.827547 5.233514 3.999364
v 4.827385 5.233514 3.999364
v 5.827225 5.233514 3.999364
v -6.170859 5.233514 2.999523
v -5.171024 5.233514 2.999523
v -4.171180 5.233514 2.999523
v -3.171340 5.233514 2.999523
v -2.171498 5.233514 2.999523
v -1.171658 5.233514 2.999523
v -0.171818 5.233514 2.999523
v 0.828026 5.233514 2.999523
v 1.827863 5.233514 2.999523
v 2.827705 5.233514 2.999523
v 3.827547 5.233514 2.999523
v 4.827385 5.233514 2.999523
v 5.827225 5.233514 2.999523
v -6.170859 5.233514 1.999683
v -5.171024 5.233514 1.999683
v -4.171180 5.233514 1.999683
v -3.171340 5.233514 1.999683
v -2.171498 5.233514 1.999683
v -1.171658 5.233514 1.999683
v -0.171818 5.233514 1.999683
v 0.828026 5.233514 1.999683
v 1.827863 5.233514 1.999683
v 2.827705 5.233514 1.999683
v 3.827547 5.233514 1.999683
v 4.827385 5.233514 1.999683
v 5.827225 5.233514 1.999683
v -6.170859 5.233514 0.999841
v -5.171024 5.233514 0.999841
v -4.171180 5.233514 0.999841
v -3.171340 5.233514 0.999841
v -2.171498 5.233514 0.999841
v -1.171658 5.233514 0.999841
v -0.171818 5.233514 0.999841
v 0.828026 5.233514 0.999841
v 1.827863 5.233514 0.999841
v 2.827705 5.233514 0.999841
v 3.827547 5.233514 0.999841
v 4.827385 5.233514 0.999841
v 5.827225 5.233514 0.999841
v -6.170859 5.233514 0.000001
v -5.171024 5.233514 0.000001
v -4.171180 5.233514 0.000001
v -3.171340 5.233514 0.000001
v -2.171498 5.233514 0.000001
v -1.171658 5.233514 0.000001
v -0.171818 5.233514 0.000001
v 0.828026 5.233514 0.000001
v 1.827863 5.233514 0.000001
v 2.827705 5.233514 0.000001
v 3.827547 5.233514 0.000001
v 4.827385 5.233514 0.000001
v 5.827225 5.233514 0.000001
v -6.170859 5.233514 -0.999840
v -5.171024 5.233514 -0.999840
v -4.171180 5.233514 -0.999840
v -3.171340 5.233514 -0.999840
v -2.171498 5.233514 -0.999840
v -1.171658 5.233514 -0.999840
v -0.171818 5.233514 -0.999840
v 0.828026 5.233514 -0.999840
v 1.827863 5.233514 -0.999840
v 2.827705 5.233514 -0.999840
v 3.827547 5.233514 -0.999840
v 4.827385 5.233514 -0.999840
v 5.827225 5.233514 -0.999840
v -6.170859 5.233514 -1.999681
v -5.171024 5.233514 -1.999681
v -4.171180 5.233514 -1.999681
v -3.171340 5.233514 -1.999681
v -2.171498 5.233514 -1.999681
v -1.171658 5.233514 -1.999681
v -0.171818 5.233514 -1.999681
v 0.828026 5.233514 -1.999681
v 1.827863 5.233514 -1.999681
v 2.827705 5.233514 -1.999681
v 3.827547 5.233514 -1.999681
v 4.827385 5.233514 -1.999681
v 5.827225 5.233514 -1.999681
v -6.170859 5.233514 -2.999522
v -5.171024 5.233514 -2.999522
v -4.171180 5.233514 -2.999522
v -3.171340 5.233514 -2.999522
v -2.171498 5.233514 -2.999522
v -1.171658 5.233514 -2.999522
v -0.171818 5.233514 -2.999522
v 0.828026 5.233514 -2.999522
v 1.827863 5.233514 -2.999522
v 2.827705 5.233514 -2.999522
v 3.827547 5.233514 -2.999522
v 4.827385 5.233514 -2.999522
v 5.827225 5.233514 -2.999522
v -6.170859 5.233514 -3.999362
v -5.171024 5.233514 -3.999362
v -4.171180 5.233514 -3.999362
v -3.171340 5.233514 -3.999362
v -2.171498 5.233514 -3.999362
v -1.171658 5.233514 -3.999362
v -0.171818 5.233514 -3.999362
v 0.828026 5.233514 -3.999362
v 1.827863 5.233514 -3.999362
v 2.827705 5.233514 -3.999362
v 3.827547 5.233514 -3.999362
v 4.827385 5.233514 -3.999362
v 5.827225 5.233514 -3.999362
v -6.170859 5.233514 -4.999203
v -5.171024 5.233514 -4.999203
v -4.171180 5.233514 -4.999203
v -3.171340 5.233514 -4.999203
v -2.171498 5.233514 -4.999203
v -1.171658 5.233514 -4.999203
v -0.171818 5.233514 -4.999203
v 0.828026 5.233514 -4.999203
v 1.827863 5.233514 -4.999203
v 2.827705 5.233514 -4.999203
v 3.827547 5.233514 -4.999203
v 4.827385 5.233514 -4.999203
v 5.827225 5.233514 -4.999203
v -6.170859 5.233514 -5.999046
v -5.171024 5.233514 -5.999046
v -4.171180 5.233514 -5.999046
v -3.171340 5.233514 -5.999046
v -2.171498 5.233514 -5.999046
v -1.171658 5.233514 -5.999046
v -0.171818 5.233514 -5.999046
v 0.828026 5.233514 -5.999046
v 1.827863 5.233514 -5.999046
v 2.827705 5.233514 -5.999046
v 3.827547 5.233514 -5.999046
v 4.827385 5.233514 -5.999046
v 5.827225 5.233514 -5.999046
v -6.170859 4.795933 -5.999046
v -5.171024 4.795933 -5.999046
v -4.171180 4.795933 -5.999046
v -3.171340 4.795933 -5.999046
v -2.171498 4.795933 -5.999046
v -1.171658 4.795933 -5.999046
v -0.171818 4.795933 -5.999046
v 0.828026 4.795933 -5.999046
v 1.827863 4.795933 -5.999046
v 2.827705 4.795933 -5.999046
v 3.827547 4.795933 -5.999046
v 4.827385 4.795933 -5.999046
v 5.827225 4.795933 -5.999046
v -6.170859 4.795933 -4.999204
v -5.171024 4.795933 -4.999204
v -4.171180 4.795933 -4.999204
v -3.171340 4.795933 -4.999204
v -2.171498 4.795933 -4.999204
v -1.171658 4.795933 -4.999204
v -0.171818 4.795933 -4.999204
v 0.828026 4.795933 -4.999204
v 1.827863 4.795933 -4.999204
v 2.827705 4.795933 -4.999204
v 3.827547 4.795933 -4.999204
v 4.827385 4.795933 -4.999204
v 5.827225 4.795933 -4.999204
v -6.170859 4.795933 -3.999364
v -5.171024 4.795933 -3.999364
v -4.171180 4.795933 -3.999364
v -3.171340 4.795933 -3.999364
v -2.171498 4.795933 -3.999364
v -1.171658 4.795933 -3.999364
v -0.171818 4.795933 -3.999364
v 0.828026 4.795933 -3.999364
v 1.827863 4.795933 -3.999364
v 2.827705 4.795933 -3.999364
v 3.827547 4.795933 -3.999364
v 4.827385 4.795933 -3.999364
v 5.827225 4.795933 -3.999364
v -6.170859 4.795933 -2.999523
v -5.171024 4.795933 -2.999523
v -4.171180 4.795933 -2.999523
v -3.171340 4.795933 -2.999523
v -2.171498 4.795933 -2.999523
v -1.171658 4.795933 -2.999523
v -0.171818 4.795933 -2.999523
v 0.828026 4.795933 -2.999523
v 1.827863 4.795933 -2.999523
v 2.827705 4.795933 -2.999523
v 3.827547 4.795933 -2.999523
v 4.827385 4.795933 -2.999523
v 5.827225 4.795933 -2.999523
v -6.170859 4.795933 -1.999683
v -5.171024 4.795933 -1.999683
v -4.171180 4.795933 -1.999683
v -3.171340 4.795933 -1.999683
v -2.171498 4.795933 -1.999683
v -1.171658 4.795933 -1.999683
v -0.171818 4.795933 -1.999683
v 0.828026 4.795933 -1.999683
v 1.827863 4.795933 -1.999683
v 2.827705 4.795933 -1.999683
v 3.827547 4.795933 -1.999683
v 4.827385 4.795933 -1.999683
v 5.827225 4.795933 -1.999683
v -6.170859 4.795933 -0.999841
v -5.171024 4.795933 -0.999841
v -4.171180 4.795933 -0.999841
v -3.171340 4.795933 -0.999841
v -2.171498 4.795933 -0.999841
v -1.171658 4.795933 -0.999841
v -0.171818 4.795933 -0.999841
v 0.828026 4.795933 -0.999841
v 1.827863 4.795933 -0.999841
v 2.827705 4.795933 -0.999841
v 3.827547 4.795933 -0.999841
v 4.827385 4.795933 -0.999841
v 5.827225 4.795933 -0.999841
v -6.170859 4.795933 -0.000001
v -5.171024 4.795933 -0.000001
v -4.171180 4.795933 -0.000001
v -3.171340 4.795933 -0.000001
v -2.171498 4.795933 -0.000001
v -1.171658 4.795933 -0.000001
v -0.171818 4.795933 -0.000001
v 0.828026 4.795933 -0.000001
v 1.827863 4.795933 -0.000001
v 2.827705 4.795933 -0.000001
v 3.827547 4.795933 -0.000001
v 4.827385 4.795933 -0.000001
v 5.827225 4.795933 -0.000001
v -6.170859 4.795933 0.999840
v -5.171024 4.795933 0.999840
v -4.171180 4.795933 0.999840
v -3.171340 4.795933 0.999840
v -2.171498 4.795933 0.999840
v -1.171658 4.795933 0.999840
v -0.171818 4.795933 0.999840
v 0.828026 4.795933 0.999840
v 1.827863 4.795933 0.999840
v 2.827705 4.795933 0.999840
v 3.827547 4.795933 0.999840
v 4.827385 4.795933 0.999840
v 5.827225 4.795933 0.999840
v -6.170859 4.795933 1.999681
v -5.171024 4.795933 1.999681
v -4.171180 4.795933 1.999681
v -3.171340 4.795933 1.999681
v -2.171498 4.795933 1.999681
v -1.171658 4.795933 1.999681
v -0.171818 4.795933 1.999681
v 0.828026 4.795933 1.999681
v 1.827863 4.795933 1.999681
v 2.827705 4.795933 1.999681
v 3.827547 4.795933 1.999681
v 4.827385 4.795933 1.999681
v 5.827225 4.795933 1.999681
v -6.170859 4.795933 2.999522
v -5.171024 4.795933 2.999522
v -4.171180 4.795933 2.999522
v -3.171340 4.795933 2.999522
v -2.171498 4.795933 2.999522
v -1.171658 4.795933 2.999522
v -0.171818 4.795933 2.999522
v 0.828026 4.795933 2.999522
v 1.827863 4.795933 2.999522
v 2.827705 4.795933 2.999522
v 3.827547 4.795933 2.999522
v 4.827385 4.795933 2.999522
v 5.827225 4.795933 2.999522
v -6.170859 4.795933 3.999362
v -5.171024 4.795933 3.999362
v -4.171180 4.795933 3.999362
v -3.171340 4.795933 3.999362
v -2.171498 4.795933 3.999362
v -1.171658 4.795933 3.999362
v -0.171818 4.795933 3.999362
v 0.828026 4.795933 3.999362
v 1.827863 4.795933 3.999362
v 2.827705 4.795933 3.999362
v 3.827547 4.795933 3.999362
v 4.827385 4.795933 3.999362
v 5.827225 4.795933 3.999362
v -6.170859 4.795933 4.999203
v -5.171024 4.795933 4.999203
v -4.171180 4.795933 4.999203
v -3.171340 4.795933 4.999203
v -2.171498 4.795933 4.999203
v -1.171658 4.795933 4.999203
v -0.171818 4.795933 4.999203
v 0.828026 4.795933 4.999203
v 1.827863 4.795933 4.999203
v 2.827705 4.795933 4.999203
v 3.827547 4.795933 4.999203
v 4.827385 4.795933 4.999203
v 5.827225 4.795933 4.999203
v -6.170859 -0.064422 -5.999046
v -5.171024 -0.064422 -5.999046
v -5.171024 -0.064422 -4.999204
v -6.170859 -0.064422 -4.999204
v -4.171180 -0.064422 -5.999046
v -4.171180 -0.064422 -4.999204
v -3.171340 -0.064422 -5.999046
v -3.171340 -0.064422 -4.999204
v -2.171498 -0.064422 -5.999046
v -2.171498 -0.064422 -4.999204
v -1.171658 -0.064422 -5.999046
v -1.171658 -0.064422 -4.999204
v -0.171818 -0.064422 -5.999046
v -0.171818 -0.064422 -4.999204
v 0.828026 -0.064422 -5.999046
v 0.828026 -0.064422 -4.999204
v 1.827863 -0.064422 -5.999046
v 1.827863 -0.064422 -4.999204
v 2.827705 -0.064422 -5.999046
v 2.827705 -0.064422 -4.999204
v 3.827547 -0.064422 -5.999046
v 3.827547 -0.064422 -4.999204
v 4.827385 -0.064422 -5.999046
v 4.827385 -0.064422 -4.999204
v 5.827225 -0.064422 -5.999046
v 5.827225 -0.064422 -4.999204
v -5.171024 -0.064422 -3.999364
v -6.170859 -0.064422 -3.999364
v 5.827225 -0.064422 -3.999364
v 4.827385 -0.064422 -3.999364
v -5.171024 -0.064422 -2.999523
v -6.170859 -0.064422 -2.999523
v 5.827225 -0.064422 -2.999523
v 4.827385 -0.064422 -2.999523
v -5.171024 -0.064422 -1.999683
v -6.170859 -0.064422 -1.999683
v 5.827225 -0.064422 -1.999683
v 4.827385 -0.064422 -1.999683
v -5.171024 -0.064422 -0.999841
v -6.170859 -0.064422 -0.999841
v 5.827225 -0.064422 -0.999841
v 4.827385 -0.064422 -0.999841
v -5.171024 -0.064422 -0.000001
v -6.170859 -0.064422 -0.000001
v 5.827225 -0.064422 -0.000001
v 4.827385 -0.064422 -0.000001
v -5.171024 -0.064422 0.999840
v -6.170859 -0.064422 0.999840
v 5.827225 -0.064422 0.999840
v 4.827385 -0.064422 0.999840
v -5.171024 -0.064422 1.999681
v -6.170859 -0.064422 1.999681
v 5.827225 -0.064422 1.999681
v 4.827385 -0.064422 1.999681
v -5.171024 -0.064422 2.999522
v -6.170859 -0.064422 2.999522
v 5.827225 -0.064422 2.999522
v 4.827385 -0.064422 2.999522
v -5.171024 -0.064422 3.999362
v -6.170859 -0.064422 3.999362
v 5.827225 -0.064422 3.999362
v 4.827385 -0.064422 3.999362
v -5.171024 -0.064422 4.999203
v -6.170859 -0.064422 4.999203
v 5.827225 -0.064422 4.999203
v 4.827385 -0.064422 4.999203
v -5.171024 -0.064422 5.999046
v -6.170859 -0.064422 5.999046
v -4.171180 -0.064422 4.999203
v -4.171180 -0.064422 5.999046
v -3.171340 -0.064422 4.999203
v -3.171340 -0.064422 5.999046
v -2.171498 -0.064422 4.999203
v -2.171498 -0.064422 5.999046
v -1.171658 -0.064422 4.999203
v -1.171658 -0.064422 5.999046
v -0.171818 -0.064422 4.999203
v -0.171818 -0.064422 5.999046
v 0.828026 -0.064422 4.999203
v 0.828026 -0.064422 5.999046
v 1.827863 -0.064422 4.999203
v 1.827863 -0.064422 5.999046
v 2.827705 -0.064422 4.999203
v 2.827705 -0.064422 5.999046
v 3.827547 -0.064422 4.999203
v 3.827547 -0.064422 5.999046
v 4.827385 -0.064422 5.999046
v 5.827225 -0.064422 5.999046
v -6.170859 2.365755 -5.999046
v -6.170859 2.365755 -4.999204
v -6.170859 2.365755 -3.999364
v -6.170859 2.365755 -2.999523
v -6.170859 2.365755 -1.999683
v -6.170859 2.365755 -0.999841
v -6.170859 2.365755 -0.000001
v -6.170859 2.365755 0.999840
v -6.170859 2.365755 1.999681
v -6.170859 2.365755 2.999522
v -6.170859 2.365755 3.999362
v -6.170859 2.365755 4.999203
v -6.170859 2.365755 5.999046
v -5.171024 2.365755 5.999046
v -4.171180 2.365755 5.999046
v -3.171340 2.365755 5.999046
v -2.171498 2.365755 5.999046
v -1.171658 2.365755 5.999046
v -0.171818 2.365755 5.999046
v 0.828026 2.365755 5.999046
v 1.827863 2.365755 5.999046
v 2.827705 2.365755 5.999046
v 3.827547 2.365755 5.999046
v 4.827385 2.365755 5.999046
v 5.827225 2.365755 5.999046
v 5.827225 2.365755 4.999203
v 5.827225 2.365755 3.999362
v 5.827225 2.365755 2.999522
v 5.827225 2.365755 1.999681
v 5.827225 2.365755 0.999840
v 5.827225 2.365755 -0.000001
v 5.827225 2.365755 -0.999841
v 5.827225 2.365755 -1.999683
v 5.827225 2.365755 -2.999523
v 5.827225 2.365755 -3.999364
v 5.827225 2.365755 -4.999204
v 5.827225 2.365755 -5.999046
v 4.827385 2.365755 -5.999046
v 3.827547 2.365755 -5.999046
v 2.827705 2.365755 -5.999046
v 1.827863 2.365755 -5.999046
v 0.828026 2.365755 -5.999046
v -0.171818 2.365755 -5.999046
v -1.171658 2.365755 -5.999046
v -2.171498 2.365755 -5.999046
v -3.171340 2.365755 -5.999046
v -4.171180 2.365755 -5.999046
v -5.171024 2.365755 -5.999046
v -5.171024 2.365755 -4.999204
v -4.171180 2.365755 -4.999204
v -3.171340 2.365755 -4.999204
v -2.171498 2.365755 -4.999204
v -1.171658 2.365755 -4.999204
v -0.171818 2.365755 -4.999204
v 0.828026 2.365755 -4.999204
v 1.827863 2.365755 -4.999204
v 2.827705 2.365755 -4.999204
v 3.827547 2.365755 -4.999204
v 4.827385 2.365755 -4.999204
v 4.827385 2.365755 -3.999364
v 4.827385 2.365755 -2.999523
v 4.827385 2.365755 -1.999683
v 4.827385 2.365755 -0.999841
v 4.827385 2.365755 -0.000001
v 4.827385 2.365755 0.999840
v 4.827385 2.365755 1.999681
v 4.827385 2.365755 2.999522
v 4.827385 2.365755 3.999362
v 4.827385 2.365755 4.999203
v 3.827547 2.365755 4.999203
v 2.827705 2.365755 4.999203
v 1.827863 2.365755 4.999203
v 0.828026 2.365755 4.999203
v -0.171818 2.365755 4.999203
v -1.171658 2.365755 4.999203
v -2.171498 2.365755 4.999203
v -3.171340 2.365755 4.999203
v -4.171180 2.365755 4.999203
v -5.171024 2.365755 4.999203
v -5.171024 2.365755 3.999362
v -5.171024 2.365755 2.999522
v -5.171024 2.365755 1.999681
v -5.171024 2.365755 0.999840
v -5.171024 2.365755 -0.000001
v -5.171024 2.365755 -0.999841
v -5.171024 2.365755 -1.999683
v -5.171024 2.365755 -2.999523
v -5.171024 2.365755 -3.999364
v 0.787912 2.317005 5.964314
v -0.171818 2.317005 5.964314
v 0.787912 -0.015672 5.964314
v -0.171818 -0.015672 5.964314
v -1.131544 2.317005 5.964314
v -1.131544 -0.015672 5.964314
vt 0.328056 0.001345
vt 0.355685 0.000831
vt 0.383821 0.000387
vt 0.412423 0.000087
vt 0.441407 -0.000000
vt 0.470664 0.000181
vt 0.500065 0.000660
vt 0.529472 0.001441
vt 0.558744 0.002491
vt 0.587746 0.003748
vt 0.616363 0.005116
vt 0.644505 0.006476
vt 0.672130 0.007696
vt 0.328256 0.013308
vt 0.355854 0.012791
vt 0.383968 0.012344
vt 0.412535 0.012042
vt 0.441469 0.011954
vt 0.470665 0.012135
vt 0.499995 0.012616
vt 0.529326 0.013400
vt 0.558520 0.014454
vt 0.587452 0.015716
vt 0.616009 0.017090
vt 0.644108 0.018456
vt 0.671695 0.019670
vt 0.328272 0.040648
vt 0.355864 0.040101
vt 0.383956 0.039622
vt 0.412486 0.039293
vt 0.441371 0.039187
vt 0.470502 0.039366
vt 0.499758 0.039862
vt 0.529006 0.040677
vt 0.558117 0.041781
vt 0.586970 0.043105
vt 0.615460 0.044550
vt 0.643512 0.045991
vt 0.671083 0.047286
vt 0.327802 0.068026
vt 0.355397 0.067413
vt 0.383502 0.066860
vt 0.412055 0.066465
vt 0.440971 0.066316
vt 0.470136 0.066481
vt 0.499426 0.067001
vt 0.528705 0.067879
vt 0.557842 0.069081
vt 0.586712 0.070533
vt 0.615214 0.072128
vt 0.643270 0.073729
vt 0.670837 0.075183
vt 0.326875 0.095481
vt 0.354484 0.094753
vt 0.382637 0.094075
vt 0.411272 0.093567
vt 0.440294 0.093338
vt 0.469584 0.093472
vt 0.499006 0.094020
vt 0.528416 0.094988
vt 0.557673 0.096338
vt 0.586645 0.097989
vt 0.615222 0.099816
vt 0.643321 0.101664
vt 0.670896 0.103359
vt 0.325506 0.123055
vt 0.353139 0.122151
vt 0.381376 0.121281
vt 0.410149 0.120599
vt 0.439353 0.120244
vt 0.468853 0.120322
vt 0.498498 0.120897
vt 0.528130 0.121981
vt 0.557594 0.123534
vt 0.586743 0.125458
vt 0.615452 0.127609
vt 0.643628 0.129804
vt 0.671217 0.131833
vt 0.323698 0.150800
vt 0.351364 0.149642
vt 0.379722 0.148495
vt 0.408693 0.147560
vt 0.438152 0.147017
vt 0.467946 0.147003
vt 0.497901 0.147601
vt 0.527842 0.148828
vt 0.557592 0.150640
vt 0.586987 0.152924
vt 0.615883 0.155508
vt 0.644166 0.158165
vt 0.671772 0.160640
vt 0.321441 0.178787
vt 0.349150 0.177273
vt 0.377671 0.175734
vt 0.406904 0.174441
vt 0.436697 0.173630
vt 0.466866 0.173477
vt 0.497214 0.174087
vt 0.527542 0.175487
vt 0.557655 0.177624
vt 0.587363 0.180369
vt 0.616498 0.183513
vt 0.644918 0.186777
vt 0.672540 0.189836
vt 0.318720 0.207109
vt 0.346483 0.205098
vt 0.375218 0.203014
vt 0.404790 0.201225
vt 0.434998 0.200044
vt 0.465621 0.199693
vt 0.496435 0.200301
vt 0.527221 0.201901
vt 0.557764 0.204439
vt 0.587852 0.207764
vt 0.617281 0.211626
vt 0.645870 0.215678
vt 0.673500 0.219499
vt 0.315507 0.235896
vt 0.343340 0.233192
vt 0.372367 0.230347
vt 0.402373 0.227882
vt 0.433085 0.226204
vt 0.464232 0.225584
vt 0.495569 0.226169
vt 0.526863 0.228001
vt 0.557892 0.231021
vt 0.588422 0.235065
vt 0.618210 0.239843
vt 0.647013 0.244921
vt 0.674637 0.249737
vt 0.311746 0.265337
vt 0.339691 0.261645
vt 0.369144 0.257732
vt 0.399716 0.254353
vt 0.431020 0.252030
vt 0.462741 0.251064
vt 0.494621 0.251605
vt 0.526441 0.253695
vt 0.557985 0.257282
vt 0.589014 0.262203
vt 0.619245 0.268144
vt 0.648341 0.274572
vt 0.675958 0.280708
vt 0.307293 0.295740
vt 0.335496 0.290567
vt 0.365635 0.285121
vt 0.396955 0.280537
vt 0.428927 0.277414
vt 0.461220 0.276032
vt 0.493607 0.276509
vt 0.525908 0.278876
vt 0.557947 0.283099
vt 0.589511 0.289057
vt 0.620303 0.296462
vt 0.649867 0.304712
vt 0.677547 0.312682
vt 0.301677 0.327711
vt 0.330720 0.320043
vt 0.362083 0.312354
vt 0.394368 0.306248
vt 0.427014 0.302214
vt 0.459782 0.300380
vt 0.492542 0.300778
vt 0.525188 0.303419
vt 0.557616 0.308306
vt 0.589691 0.315413
vt 0.621188 0.324612
vt 0.651616 0.335407
vt 0.679783 0.346237
vt 0.293152 0.362800
vt 0.325617 0.349888
vt 0.359127 0.338985
vt 0.392453 0.331188
vt 0.425579 0.326264
vt 0.458571 0.324008
vt 0.491445 0.324327
vt 0.524182 0.327205
vt 0.556754 0.332691
vt 0.589151 0.340910
vt 0.621396 0.352095
vt 0.653452 0.366484
vt 0.684168 0.383020
vt 0.286452 0.381041
vt 0.323885 0.362550
vt 0.358459 0.350116
vt 0.392035 0.341720
vt 0.425189 0.336496
vt 0.458140 0.334093
vt 0.490947 0.334381
vt 0.523607 0.337338
vt 0.556106 0.343024
vt 0.588474 0.351612
vt 0.620858 0.363495
vt 0.653755 0.379591
vt 0.688996 0.402337
vt 0.246447 0.413914
vt 0.391838 0.555295
vt 0.407648 0.553872
vt 0.424491 0.551842
vt 0.442299 0.550344
vt 0.460736 0.549744
vt 0.479464 0.550174
vt 0.498189 0.551663
vt 0.516648 0.554183
vt 0.534589 0.557669
vt 0.551787 0.562145
vt 0.567304 0.568988
vt 0.725610 0.439645
vt 0.214001 0.450199
vt 0.385126 0.571800
vt 0.404485 0.573068
vt 0.423100 0.572157
vt 0.441454 0.571153
vt 0.459815 0.570788
vt 0.478205 0.571301
vt 0.496547 0.572761
vt 0.514749 0.575175
vt 0.532785 0.578437
vt 0.550923 0.582275
vt 0.570727 0.584293
vt 0.754232 0.479830
vt 0.188087 0.489354
vt 0.379806 0.589115
vt 0.400204 0.591408
vt 0.420065 0.591690
vt 0.439330 0.591463
vt 0.458219 0.591527
vt 0.476916 0.592223
vt 0.495549 0.593657
vt 0.514236 0.595846
vt 0.533210 0.598515
vt 0.552875 0.600920
vt 0.573488 0.601098
vt 0.775658 0.522315
vt 0.168186 0.530847
vt 0.375522 0.607201
vt 0.396381 0.609635
vt 0.416947 0.610676
vt 0.436944 0.611179
vt 0.456457 0.611736
vt 0.475688 0.612650
vt 0.494865 0.614031
vt 0.514238 0.615855
vt 0.534077 0.617830
vt 0.554588 0.619290
vt 0.575565 0.619099
vt 0.790532 0.566431
vt 0.154091 0.574120
vt 0.372320 0.625883
vt 0.393462 0.628000
vt 0.414412 0.629412
vt 0.434865 0.630477
vt 0.454836 0.631481
vt 0.474517 0.632596
vt 0.494174 0.633889
vt 0.514085 0.635336
vt 0.534481 0.636755
vt 0.555428 0.637770
vt 0.576634 0.637862
vt 0.799225 0.611540
vt 0.145740 0.618569
vt 0.370287 0.644896
vt 0.391592 0.646495
vt 0.412703 0.648079
vt 0.433330 0.649584
vt 0.453490 0.650977
vt 0.473382 0.652255
vt 0.493278 0.653436
vt 0.513449 0.654531
vt 0.534091 0.655524
vt 0.555214 0.656366
vt 0.576529 0.656995
vt 0.801957 0.656994
vt 0.143123 0.663548
vt 0.369467 0.663941
vt 0.390810 0.665017
vt 0.411866 0.666787
vt 0.432376 0.668730
vt 0.452424 0.670486
vt 0.472243 0.671897
vt 0.492094 0.672941
vt 0.512226 0.673678
vt 0.532821 0.674266
vt 0.553907 0.674973
vt 0.575204 0.676157
vt 0.798899 0.702133
vt 0.146234 0.708387
vt 0.369826 0.682678
vt 0.391069 0.683459
vt 0.411797 0.685662
vt 0.431872 0.688148
vt 0.451536 0.690269
vt 0.471059 0.691781
vt 0.490647 0.692663
vt 0.510479 0.693002
vt 0.530741 0.693093
vt 0.551548 0.693485
vt 0.572690 0.695043
vt 0.790221 0.746307
vt 0.155078 0.752394
vt 0.371213 0.700704
vt 0.392171 0.701820
vt 0.412127 0.704926
vt 0.431454 0.708066
vt 0.450603 0.710509
vt 0.469805 0.712071
vt 0.489104 0.712799
vt 0.508487 0.712721
vt 0.528122 0.712181
vt 0.548298 0.711891
vt 0.569065 0.713373
vt 0.776091 0.788879
vt 0.169703 0.794840
vt 0.373321 0.717567
vt 0.393432 0.720457
vt 0.411893 0.724913
vt 0.430407 0.728579
vt 0.449264 0.731177
vt 0.468485 0.732708
vt 0.487873 0.733395
vt 0.506872 0.733005
vt 0.525670 0.731823
vt 0.544629 0.730427
vt 0.564365 0.730953
vt 0.756644 0.829221
vt 0.190239 0.834854
vt 0.376140 0.732962
vt 0.391664 0.740461
vt 0.409212 0.745486
vt 0.427759 0.749303
vt 0.447126 0.751860
vt 0.467103 0.753247
vt 0.487758 0.754207
vt 0.506659 0.753821
vt 0.524979 0.752221
vt 0.542199 0.749785
vt 0.558239 0.747738
vt 0.731920 0.866660
vt 0.216546 0.871367
vt 0.248128 0.903149
vt 0.283760 0.929946
vt 0.322612 0.951738
vt 0.364027 0.968420
vt 0.407378 0.979798
vt 0.451978 0.985678
vt 0.497060 0.985882
vt 0.541856 0.980337
vt 0.585598 0.969037
vt 0.627489 0.951929
vt 0.666617 0.928958
vt 0.701859 0.900320
vt 1.000000 0.020366
vt 0.972679 0.019311
vt 0.945357 0.018256
vt 0.918036 0.017201
vt 0.890714 0.016146
vt 0.863393 0.015090
vt 0.836072 0.014035
vt 0.808750 0.012980
vt 0.781429 0.011925
vt 0.754107 0.010870
vt 0.726786 0.009815
vt 0.699464 0.008759
vt 0.999538 0.032323
vt 0.972217 0.031268
vt 0.944895 0.030213
vt 0.917574 0.029158
vt 0.890253 0.028103
vt 0.862931 0.027048
vt 0.835610 0.025993
vt 0.808288 0.024938
vt 0.780967 0.023882
vt 0.753645 0.022827
vt 0.726324 0.021772
vt 0.699003 0.020717
vt 0.000000 0.007556
vt 0.027337 0.007038
vt 0.054674 0.006520
vt 0.082011 0.006003
vt 0.109347 0.005485
vt 0.136684 0.004968
vt 0.164021 0.004450
vt 0.191358 0.003933
vt 0.218695 0.003415
vt 0.246032 0.002897
vt 0.273369 0.002380
vt 0.300706 0.001862
vt 0.000227 0.019520
vt 0.027563 0.019002
vt 0.054900 0.018484
vt 0.082237 0.017967
vt 0.109574 0.017449
vt 0.136911 0.016932
vt 0.164248 0.016414
vt 0.191585 0.015897
vt 0.218922 0.015379
vt 0.246258 0.014861
vt 0.273595 0.014344
vt 0.300932 0.013826
vt 0.328798 0.471948
vt 0.349708 0.467511
vt 0.316356 0.493512
vt 0.373553 0.457547
vt 0.371993 0.478168
vt 0.341804 0.494020
vt 0.400280 0.447893
vt 0.400864 0.467119
vt 0.428403 0.441139
vt 0.429141 0.460171
vt 0.457087 0.437745
vt 0.457099 0.456850
vt 0.485864 0.437697
vt 0.484825 0.456841
vt 0.514435 0.440937
vt 0.512339 0.460043
vt 0.542519 0.447440
vt 0.539641 0.466577
vt 0.569735 0.457095
vt 0.566763 0.476807
vt 0.595508 0.469337
vt 0.593940 0.491311
vt 0.619078 0.482290
vt 0.622323 0.510449
vt 0.639011 0.492279
vt 0.648083 0.512258
vt 0.319520 0.521839
vt 0.300173 0.516707
vt 0.661617 0.536844
vt 0.641013 0.539950
vt 0.302402 0.549299
vt 0.284228 0.542923
vt 0.674198 0.564876
vt 0.655057 0.569152
vt 0.289706 0.577330
vt 0.271189 0.571537
vt 0.683587 0.595088
vt 0.664433 0.598682
vt 0.281042 0.606111
vt 0.261883 0.601807
vt 0.689047 0.626506
vt 0.669547 0.628528
vt 0.276218 0.635527
vt 0.256575 0.633096
vt 0.690386 0.658422
vt 0.670687 0.658515
vt 0.275219 0.665390
vt 0.255367 0.664852
vt 0.687582 0.690269
vt 0.667962 0.688435
vt 0.278197 0.695516
vt 0.258295 0.696519
vt 0.680678 0.721494
vt 0.661313 0.718103
vt 0.285490 0.725789
vt 0.265246 0.727406
vt 0.669869 0.751458
vt 0.650503 0.747447
vt 0.297565 0.756298
vt 0.275587 0.756515
vt 0.655911 0.779375
vt 0.635096 0.776733
vt 0.314457 0.787792
vt 0.287175 0.782402
vt 0.641454 0.804388
vt 0.614307 0.807096
vt 0.314613 0.816105
vt 0.294499 0.803329
vt 0.342754 0.810209
vt 0.338835 0.832302
vt 0.370334 0.827748
vt 0.365901 0.847879
vt 0.398214 0.840978
vt 0.395196 0.860665
vt 0.426501 0.850242
vt 0.426073 0.869909
vt 0.460092 0.860829
vt 0.459508 0.875794
vt 0.496169 0.856010
vt 0.493223 0.874766
vt 0.524876 0.849807
vt 0.525314 0.869472
vt 0.554181 0.840107
vt 0.555895 0.860164
vt 0.583817 0.826182
vt 0.584271 0.847585
vt 0.609129 0.834635
vt 0.630800 0.827416
vt 0.305130 0.436319
vt 0.279387 0.460285
vt 0.256893 0.488487
vt 0.237779 0.519896
vt 0.222509 0.553790
vt 0.211477 0.589488
vt 0.204939 0.626314
vt 0.203014 0.663593
vt 0.205695 0.700644
vt 0.212848 0.736795
vt 0.224249 0.771433
vt 0.239876 0.804110
vt 0.260970 0.834184
vt 0.286782 0.859139
vt 0.316054 0.880270
vt 0.348179 0.897839
vt 0.382624 0.911555
vt 0.418833 0.921018
vt 0.456250 0.925979
vt 0.493938 0.926054
vt 0.531117 0.921366
vt 0.567082 0.912141
vt 0.601217 0.898706
vt 0.633092 0.881141
vt 0.662205 0.858224
vt 0.685625 0.830837
vt 0.704979 0.800240
vt 0.720609 0.767040
vt 0.732237 0.731794
vt 0.739540 0.695116
vt 0.742290 0.657656
vt 0.740379 0.620084
vt 0.733822 0.583091
vt 0.722781 0.547380
vt 0.707549 0.513634
vt 0.688324 0.482492
vt 0.664347 0.455134
vt 0.637666 0.434694
vt 0.609394 0.418855
vt 0.580103 0.406510
vt 0.550044 0.397310
vt 0.519426 0.391159
vt 0.488451 0.388026
vt 0.457319 0.387906
vt 0.426229 0.390800
vt 0.395377 0.396708
vt 0.364906 0.405685
vt 0.334803 0.418211
vt 0.366877 0.529116
vt 0.388855 0.515538
vt 0.412242 0.507614
vt 0.435773 0.503190
vt 0.459205 0.501327
vt 0.482514 0.501634
vt 0.505704 0.504019
vt 0.528733 0.508606
vt 0.551430 0.515762
vt 0.573226 0.526234
vt 0.592320 0.541249
vt 0.607130 0.562527
vt 0.616495 0.585930
vt 0.622178 0.609948
vt 0.625023 0.634194
vt 0.625374 0.658526
vt 0.623322 0.682835
vt 0.618775 0.706980
vt 0.611433 0.730695
vt 0.600663 0.753300
vt 0.585318 0.772876
vt 0.563621 0.787534
vt 0.540160 0.796202
vt 0.516433 0.800763
vt 0.492789 0.802347
vt 0.464946 0.795301
vt 0.434887 0.797893
vt 0.411912 0.793884
vt 0.389136 0.786467
vt 0.367385 0.775187
vt 0.348664 0.759166
vt 0.334762 0.737012
vt 0.326543 0.713043
vt 0.322104 0.688715
vt 0.320547 0.664378
vt 0.321490 0.640158
vt 0.324817 0.616153
vt 0.330592 0.592498
vt 0.339076 0.569458
vt 0.350835 0.547704
vt 0.465534 0.810318
vt 0.483263 0.812804
vt 0.479957 0.844470
vt 0.459497 0.845976
vt 0.447643 0.809932
vt 0.439584 0.842673
vn 0.000000 0.000000 1.000000
vn 0.000000 0.000000 1.000000
vn 0.000000 0.000000 1.000000
vn 0.000000 0.000000 1.000000
vn 0.000000 0.000000 1.000000
vn 0.000000 0.000000 1.000000
vn 0.000000 0.000000 1.000000
vn 0.000000 0.000000 1.000000
vn 0.000000 0.000000 1.000000
vn 0.000000 0.000000 1.000000
vn 0.000000 0.000000 1.000000
vn 0.000000 0.000000 1.000000
vn 0.000000 0.000000 1.000000
vn 0.000000 0.000000 1.000000
vn 0.000000 0.000000 1.000000
vn 0.000000 0.000000 1.000000
vn 0.000000 0.000000 1.000000
vn 0.000000 0.000000 1.000000
vn 0.000000 0.000000 1.000000
vn 0.000000 0.000000 1.000000
vn 0.000000 0.000000 1.000000
vn 0.000000 0.000000 1.000000
vn 0.000000 0.000000 1.000000
vn 0.000000 0.000000 1.000000
vn 0.000000 0.000000 1.000000
vn 0.000000 0.000000 1.000000
vn 0.000000 1.000000 0.000000
vn 0.000000 1.000000 0.000000
vn 0.000000 1.000000 0.000000
vn 0.000000 1.000000 0.000000
vn 0.000000 1.000000 0.000000
vn 0.000000 1.000000 0.000000
vn 0.000000 1.000000 0.000000
vn 0.000000 1.000000 0.000000
vn 0.000000 1.000000 0.000000
vn 0.000000 1.000000 0.000000
vn 0.000000 1.000000 0.000000
vn 0.000000 1.000000 0.000000
vn 0.000000 1.000000 0.000000
vn 0.000000 1.000000 0.000000
vn 0.000000 1.000000 0.000000
vn 0.000000 1.000000 0.000000
vn 0.000000 1.000000 0.000000
vn 0.000000 1.000000 0.000000
vn 0.000000 1.000000 0.000000
vn 0.000000 1.000000 0.000000
vn 0.000000 1.000000 0.000000
vn 0.000000 1.000000 0.000000
vn 0.000000 1.000000 0.000000
vn 0.000000 1.000000 0.000000
vn 0.000000 1.000000 0.000000
vn 0.000000 1.000000 0.000000
vn 0.000000 1.000000 0.000000
vn 0.000000 1.000000 0.000000
vn 0.000000 1.000000 0.000000
vn 0.000000 1.000000 0.000000
vn 0.000000 1.000000 0.000000
vn 0.000000 1.000000 0.000000
vn 0.000000 1.000000 0.000000
vn 0.000000 1.000000 0.000000
vn 0.000000 1.000000 0.000000
vn 0.000000 1.000000 0.000000
vn 0.000000 1.000000 0.000000
vn 0.000000 1.000000 0.000000
vn 0.000000 1.000000 0.000000
vn 0.000000 1.000000 0.000000
vn 0.000000 1.000000 0.000000
vn 0.000000 1.000000 0.000000
vn 0.000000 1.000000 0.000000
vn 0.000000 1.000000 0.000000
vn 0.000000 1.000000 0.000000
vn 0.000000 1.000000 0.000000
vn 0.000000 1.000000 0.000000
vn 0.000000 1.000000 0.000000
vn 0.000000 1.000000 0.000000
vn 0.000000 1.000000 0.000000
vn 0.000000 1.000000 0.000000
vn 0.000000 1.000000 0.000000
vn 0.000000 1.000000 0.000000
vn 0.000000 1.000000 0.000000
vn 0.000000 1.000000 0.000000
vn 0.000000 1.000000 0.000000
vn 0.000000 1.000000 0.000000
vn 0.000000 1.000000 0.000000
vn 0.000000 1.000000 0.000000
vn 0.000000 1.000000 0.000000
vn 0.000000 1.000000 0.000000
vn 0.000000 1.000000 0.000000
vn 0.000000 1.000000 0.000000
vn 0.000000 1.000000 0.000000
vn 0.000000 1.000000 0.000000
vn 0.000000 1.000000 0.000000
vn 0.000000 1.000000 0.000000
vn 0.000000 1.000000 0.000000
vn 0.000000 1.000000 0.000000
vn 0.000000 1.000000 0.000000
vn 0.000000 1.000000 0.000000
vn 0.000000 1.000000 0.000000
vn 0.000000 1.000000 0.000000
vn 0.000000 1.000000 0.000000
vn 0.000000 1.000000 0.000000
vn 0.000000 1.000000 0.000000
vn 0.000000 1.000000 0.000000
vn 0.000000 1.000000 0.000000
vn 0.000000 1.000000 0.000000
vn 0.000000 1.000000 0.000000
vn 0.000000 1.000000 0.000000
vn 0.000000 1.000000 0.000000
vn 0.000000 1.000000 0.000000
vn 0.000000 1.000000 0.000000
vn 0.000000 1.000000 0.000000
vn 0.000000 1.000000 0.000000
vn 0.000000 1.000000 0.000000
vn 0.000000 1.000000 0.000000
vn 0.000000 1.000000 0.000000
vn 0.000000 1.000000 0.000000
vn 0.000000 1.000000 0.000000
vn 0.000000 1.000000 0.000000
vn 0.000000 1.000000 0.000000
vn 0.000000 1.000000 0.000000
vn 0.000000 1.000000 0.000000
vn 0.000000 1.000000 0.000000
vn 0.000000 1.000000 0.000000
vn 0.000000 1.000000 0.000000
vn 0.000000 1.000000 0.000000
vn 0.000000 1.000000 0.000000
vn 0.000000 1.000000 0.000000
vn 0.000000 1.000000 0.000000
vn 0.000000 1.000000 0.000000
vn 0.000000 1.000000 0.000000
vn 0.000000 1.000000 0.000000
vn 0.000000 1.000000 0.000000
vn 0.000000 1.000000 0.000000
vn 0.000000 1.000000 0.000000
vn 0.000000 1.000000 0.000000
vn 0.000000 1.000000 0.000000
vn 0.000000 1.000000 0.000000
vn 0.000000 1.000000 0.000000
vn 0.000000 1.000000 0.000000
vn 0.000000 1.000000 0.000000
vn 0.000000 1.000000 0.000000
vn 0.000000 1.000000 0.000000
vn 0.000000 1.000000 0.000000
vn 0.000000 1.000000 0.000000
vn 0.000000 1.000000 0.000000
vn 0.000000 1.000000 0.000000
vn 0.000000 1.000000 0.000000
vn 0.000000 1.000000 0.000000
vn 0.000000 1.000000 0.000000
vn 0.000000 1.000000 0.000000
vn 0.000000 1.000000 0.000000
vn 0.000000 1.000000 0.000000
vn 0.000000 1.000000 0.000000
vn 0.000000 1.000000 0.000000
vn 0.000000 1.000000 0.000000
vn 0.000000 1.000000 0.000000
vn 0.000000 1.000000 0.000000
vn 0.000000 1.000000 0.000000
vn 0.000000 1.000000 0.000000
vn 0.000000 1.000000 0.000000
vn 0.000000 1.000000 0.000000
vn 0.000000 1.000000 0.000000
vn 0.000000 1.000000 0.000000
vn 0.000000 1.000000 0.000000
vn 0.000000 1.000000 0.000000
vn 0.000000 1.000000 0.000000
vn 0.000000 1.000000 0.000000
vn 0.000000 1.000000 0.000000
vn 0.000000 1.000000 0.000000
vn 0.000000 1.000000 0.000000
vn 0.000000 1.000000 0.000000
vn 0.000000 1.000000 0.000000
vn 0.000000 1.000000 0.000000
vn 0.000000 1.000000 0.000000
vn 0.000000 1.000000 0.000000
vn 0.000000 1.000000 0.000000
vn 0.000000 1.000000 0.000000
vn 0.000000 1.000000 0.000000
vn 0.000000 1.000000 0.000000
vn 0.000000 1.000000 0.000000
vn 0.000000 1.000000 0.000000
vn 0.000000 1.000000 0.000000
vn 0.000000 1.000000 0.000000
vn 0.000000 1.000000 0.000000
vn 0.000000 1.000000 0.000000
vn 0.000000 1.000000 0.000000
vn 0.000000 1.000000 0.000000
vn 0.000000 1.000000 0.000000
vn 0.000000 1.000000 0.000000
vn 0.000000 1.000000 0.000000
vn 0.000000 1.000000 0.000000
vn 0.000000 1.000000 0.000000
vn 0.000000 1.000000 0.000000
vn 0.000000 1.000000 0.000000
vn 0.000000 1.000000 0.000000
vn 0.000000 0.000000 -1.000000
vn 0.000000 0.000000 -1.000000
vn 0.000000 0.000000 -1.000000
vn 0.000000 0.000000 -1.000000
vn 0.000000 0.000000 -1.000000
vn 0.000000 0.000000 -1.000000
vn 0.000000 0.000000 -1.000000
vn 0.000000 0.000000 -1.000000
vn 0.000000 0.000000 -1.000000
vn 0.000000 0.000000 -1.000000
vn 0.000000 0.000000 -1.000000
vn 0.000000 0.000000 -1.000000
vn 0.000000 0.000000 -1.000000
vn 0.000000 0.000000 -1.000000
vn 0.000000 0.000000 -1.000000
vn 0.000000 0.000000 -1.000000
vn 0.000000 0.000000 -1.000000
vn 0.000000 0.000000 -1.000000
vn 0.000000 0.000000 -1.000000
vn 0.000000 0.000000 -1.000000
vn 0.000000 0.000000 -1.000000
vn 0.000000 0.000000 -1.000000
vn 0.000000 0.000000 -1.000000
vn 0.000000 0.000000 -1.000000
vn 0.000000 0.000000 -1.000000
vn 0.000000 0.000000 -1.000000
vn 0.000000 -1.000000 0.000000
vn 0.000000 -1.000000 0.000000
vn 0.000000 -1.000000 0.000000
vn 0.000000 -1.000000 0.000000
vn 0.000000 -1.000000 0.000000
vn 0.000000 -1.000000 0.000000
vn 0.000000 -1.000000 0.000000
vn 0.000000 -1.000000 0.000000
vn 0.000000 -1.000000 0.000000
vn 0.000000 -1.000000 0.000000
vn 0.000000 -1.000000 0.000000
vn 0.000000 -1.000000 0.000000
vn 0.000000 -1.000000 0.000000
vn 0.000000 -1.000000 0.000000
vn 0.000000 -1.000000 0.000000
vn 0.000000 -1.000000 0.000000
vn 0.000000 -1.000000 0.000000
vn 0.000000 -1.000000 0.000000
vn 0.000000 -1.000000 0.000000
vn 0.000000 -1.000000 0.000000
vn 0.000000 -1.000000 0.000000
vn 0.000000 -1.000000 0.000000
vn 0.000000 -1.000000 0.000000
vn 0.000000 -1.000000 0.000000
vn 0.000000 -1.000000 0.000000
vn 0.000000 -1.000000 0.000000
vn 0.000000 -1.000000 0.000000
vn 0.000000 -1.000000 0.000000
vn 0.000000 -1.000000 0.000000
vn 0.000000 -1.000000 0.000000
vn 0.000000 -1.000000 0.000000
vn 0.000000 -1.000000 0.000000
vn 0.000000 -1.000000 0.000000
vn 0.000000 -1.000000 0.000000
vn 0.000000 -1.000000 0.000000
vn 0.000000 -1.000000 0.000000
vn 0.000000 -1.000000 0.000000
vn 0.000000 -1.000000 0.000000
vn 0.000000 -1.000000 0.000000
vn 0.000000 -1.000000 0.000000
vn 0.000000 -1.000000 0.000000
vn 0.000000 -1.000000 0.000000
vn 0.000000 -1.000000 0.000000
vn 0.000000 -1.000000 0.000000
vn 0.000000 -1.000000 0.000000
vn 0.000000 -1.000000 0.000000
vn 0.000000 -1.000000 0.000000
vn 0.000000 -1.000000 0.000000
vn 0.000000 -1.000000 0.000000
vn 0.000000 -1.000000 0.000000
vn 0.000000 -1.000000 0.000000
vn 0.000000 -1.000000 0.000000
vn 0.000000 -1.000000 0.000000
vn 0.000000 -1.000000 0.000000
vn 0.000000 -1.000000 0.000000
vn 0.000000 -1.000000 0.000000
vn 0.000000 -1.000000 0.000000
vn 0.000000 -1.000000 0.000000
vn 0.000000 -1.000000 0.000000
vn 0.000000 -1.000000 0.000000
vn 0.000000 -1.000000 0.000000
vn 0.000000 -1.000000 0.000000
vn 0.000000 -1.000000 0.000000
vn 0.000000 -1.000000 0.000000
vn 0.000000 -1.000000 0.000000
vn 0.000000 -1.000000 0.000000
vn 0.000000 -1.000000 0.000000
vn 0.000000 -1.000000 0.000000
vn 0.000000 -1.000000 0.000000
vn 0.000000 -1.000000 0.000000
vn 0.000000 -1.000000 0.000000
vn 0.000000 -1.000000 0.000000
vn 0.000000 -1.000000 0.000000
vn 0.000000 -1.000000 0.000000
vn 0.000000 -1.000000 0.000000
vn 0.000000 -1.000000 0.000000
vn 0.000000 -1.000000 0.000000
vn 0.000000 -1.000000 0.000000
vn 0.000000 -1.000000 0.000000
vn 0.000000 -1.000000 0.000000
vn 0.000000 -1.000000 0.000000
vn 0.000000 -1.000000 0.000000
vn 0.000000 -1.000000 0.000000
vn 0.000000 -1.000000 0.000000
vn 0.000000 -1.000000 0.000000
vn 0.000000 -1.000000 0.000000
vn 0.000000 -1.000000 0.000000
vn 0.000000 -1.000000 0.000000
vn 0.000000 -1.000000 0.000000
vn 0.000000 -1.000000 0.000000
vn 0.000000 -1.000000 0.000000
vn 0.000000 -1.000000 0.000000
vn 0.000000 -1.000000 0.000000
vn 0.000000 -1.000000 0.000000
vn 0.000000 -1.000000 0.000000
vn 0.000000 -1.000000 0.000000
vn 0.000000 -1.000000 0.000000
vn 0.000000 -1.000000 0.000000
vn 0.000000 -1.000000 0.000000
vn 0.000000 -1.000000 0.000000
vn 0.000000 -1.000000 0.000000
vn 0.000000 -1.000000 0.000000
vn 0.000000 -1.000000 0.000000
vn 0.000000 -1.000000 0.000000
vn 0.000000 -1.000000 0.000000
vn 0.000000 -1.000000 0.000000
vn 0.000000 -1.000000 0.000000
vn 0.000000 -1.000000 0.000000
vn 0.000000 -1.000000 0.000000
vn 0.000000 -1.000000 0.000000
vn 0.000000 -1.000000 0.000000
vn 0.000000 -1.000000 0.000000
vn 0.000000 -1.000000 0.000000
vn 0.000000 -1.000000 0.000000
vn 0.000000 -1.000000 0.000000
vn 0.000000 -1.000000 0.000000
vn 0.000000 -1.000000 0.000000
vn 0.000000 -1.000000 0.000000
vn 0.000000 -1.000000 0.000000
vn 0.000000 -1.000000 0.000000
vn 0.000000 -1.000000 0.000000
vn 0.000000 -1.000000 0.000000
vn 0.000000 -1.000000 0.000000
vn 0.000000 -1.000000 0.000000
vn 0.000000 -1.000000 0.000000
vn 0.000000 -1.000000 0.000000
vn 0.000000 -1.000000 0.000000
vn 0.000000 -1.000000 0.000000
vn 0.000000 -1.000000 0.000000
vn 0.000000 -1.000000 0.000000
vn 0.000000 -1.000000 0.000000
vn 0.000000 -1.000000 0.000000
vn 0.000000 -1.000000 0.000000
vn 0.000000 -1.000000 0.000000
vn 0.000000 -1.000000 0.000000
vn 0.000000 -1.000000 0.000000
vn 0.000000 -1.000000 0.000000
vn 0.000000 -1.000000 0.000000
vn 0.000000 -1.000000 0.000000
vn 0.000000 -1.000000 0.000000
vn 0.000000 -1.000000 0.000000
vn 0.000000 -1.000000 0.000000
vn 0.000000 -1.000000 0.000000
vn 0.000000 -1.000000 0.000000
vn 0.000000 -1.000000 0.000000
vn 0.000000 -1.000000 0.000000
vn 0.000000 -1.000000 0.000000
vn 0.000000 -1.000000 0.000000
vn 0.000000 -1.000000 0.000000
vn 0.000000 -1.000000 0.000000
vn 0.000000 -1.000000 0.000000
vn 0.000000 -1.000000 0.000000
vn 0.000000 -1.000000 0.000000
vn 0.000000 -1.000000 0.000000
vn 0.000000 -1.000000 0.000000
vn 0.000000 -1.000000 0.000000
vn 0.000000 -1.000000 0.000000
vn 0.000000 -1.000000 0.000000
vn 0.000000 -1.000000 0.000000
vn 0.000000 -1.000000 0.000000
vn 0.000000 -1.000000 0.000000
vn 0.000000 -1.000000 0.000000
vn 0.000000 -1.000000 0.000000
vn 0.000000 -1.000000 0.000000
vn 0.000000 -1.000000 0.000000
vn 0.000000 -1.000000 0.000000
vn 0.000000 -1.000000 0.000000
vn 0.000000 -1.000000 0.000000
vn 0.000000 -1.000000 0.000000
vn 0.000000 -1.000000 0.000000
vn 0.000000 -1.000000 0.000000
vn 0.000000 -1.000000 0.000000
vn 0.000000 -1.000000 0.000000
vn 0.000000 -1.000000 0.000000
vn 0.000000 -1.000000 0.000000
vn 0.000000 -1.000000 0.000000
vn 0.000000 -1.000000 0.000000
vn 0.000000 -1.000000 0.000000
vn 0.000000 -1.000000 0.000000
vn 0.000000 -1.000000 0.000000
vn 0.000000 -1.000000 0.000000
vn 0.000000 -1.000000 0.000000
vn 0.000000 -1.000000 0.000000
vn 0.000000 -1.000000 0.000000
vn 0.000000 -1.000000 0.000000
vn 0.000000 -1.000000 0.000000
vn 0.000000 -1.000000 0.000000
vn 0.000000 -1.000000 0.000000
vn 0.000000 -1.000000 0.000000
vn 0.000000 -1.000000 0.000000
vn 0.000000 -1.000000 0.000000
vn 0.000000 -1.000000 0.000000
vn 0.000000 -1.000000 0.000000
vn 0.000000 -1.000000 0.000000
vn 0.000000 -1.000000 0.000000
vn 0.000000 -1.000000 0.000000
vn 0.000000 -1.000000 0.000000
vn 0.000000 -1.000000 0.000000
vn 0.000000 -1.000000 0.000000
vn 0.000000 -1.000000 0.000000
vn 0.000000 -1.000000 0.000000
vn 0.000000 -1.000000 0.000000
vn 0.000000 -1.000000 0.000000
vn 0.000000 -1.000000 0.000000
vn 0.000000 -1.000000 0.000000
vn 0.000000 -1.000000 0.000000
vn 0.000000 -1.000000 0.000000
vn 0.000000 -1.000000 0.000000
vn 0.000000 -1.000000 0.000000
vn 1.000000 -0.000000 0.000000
vn 1.000000 -0.000000 0.000000
vn 1.000000 -0.000001 0.000000
vn 1.000000 -0.000000 0.000000
vn 1.000000 0.000000 0.000000
vn 1.000000 0.000000 0.000000
vn 1.000000 -0.000000 0.000000
vn 1.000000 -0.000000 0.000000
vn 1.000000 0.000000 0.000000
vn 1.000000 0.000000 0.000000
vn 1.000000 0.000000 0.000000
vn 1.000000 0.000000 0.000000
vn 1.000000 -0.000000 0.000000
vn 1.000000 -0.000000 0.000000
vn 1.000000 -0.000000 0.000000
vn 1.000000 -0.000001 0.000000
vn 1.000000 -0.000000 0.000000
vn 1.000000 -0.000000 0.000000
vn 1.000000 -0.000000 0.000000
vn 1.000000 -0.000000 0.000000
vn 1.000000 -0.000000 0.000000
vn 1.000000 -0.000000 0.000000
vn 1.000000 0.000000 0.000000
vn 1.000000 0.000001 0.000000
vn 1.000000 0.000000 0.000000
vn 1.000000 0.000001 0.000000
vn -1.000000 0.000000 0.000000
vn -1.000000 0.000000 0.000000
vn -1.000000 0.000000 0.000000
vn -1.000000 0.000000 0.000000
vn -1.000000 -0.000000 0.000000
vn -1.000000 -0.000000 0.000000
vn -1.000000 -0.000000 0.000000
vn -1.000000 -0.000000 0.000000
vn -1.000000 0.000000 0.000000
vn -1.000000 0.000000 0.000000
vn -1.000000 -0.000000 0.000000
vn -1.000000 -0.000000 0.000000
vn -1.000000 0.000000 0.000000
vn -1.000000 0.000000 0.000000
vn -1.000000 0.000000 0.000000
vn -1.000000 0.000001 0.000000
vn -1.000000 -0.000000 0.000000
vn -1.000000 -0.000000 0.000000
vn -1.000000 -0.000000 0.000000
vn -1.000000 -0.000000 0.000000
vn -1.000000 0.000000 0.000000
vn -1.000000 0.000000 0.000000
vn -1.000000 0.000000 0.000000
vn -1.000000 0.000000 0.000000
vn -1.000000 0.000000 0.000000
vn -1.000000 0.000001 0.000000
vn 0.000000 0.000000 -1.000000
vn 0.000000 0.000000 -1.000000
vn -1.000000 0.000000 0.000000
vn -1.000000 0.000000 0.000000
vn 0.000000 0.000000 -1.000000
vn 0.000000 0.000000 1.000000
vn 0.000000 0.000000 1.000000
vn 0.000000 0.000000 1.000000
vn 0.000000 0.000000 1.000000
vn 0.000000 0.000000 -1.000000
vn 0.000000 0.000000 1.000000
vn 0.000000 0.000000 1.000000
vn 0.000000 0.000000 -1.000000
vn 0.000000 0.000000 1.000000
vn 0.000000 0.000000 1.000000
vn 0.000000 0.000000 -1.000000
vn 0.000000 0.000000 1.000000
vn 0.000000 0.000000 1.000000
vn 0.000000 0.000000 -1.000000
vn 0.000000 0.000000 1.000000
vn 0.000000 0.000000 1.000000
vn 0.000000 0.000000 -1.000000
vn 0.000000 0.000000 1.000000
vn 0.000000 0.000000 1.000000
vn 0.000000 0.000000 -1.000000
vn 0.000000 0.000000 1.000000
vn 0.000000 0.000000 1.000000
vn 0.000000 0.000000 -1.000000
vn 0.000000 0.000000 1.000000
vn 0.000000 0.000000 1.000000
vn 0.000000 0.000000 -1.000000
vn 0.000000 0.000000 1.000000
vn 0.000000 0.000000 1.000000
vn 0.000000 0.000000 -1.000000
vn 0.000000 0.000000 1.000000
vn 0.000000 0.000000 1.000000
vn 0.000000 0.000000 -1.000000
vn 1.000000 0.000000 0.000000
vn 1.000000 0.000000 0.000000
vn 1.000000 0.000000 0.000000
vn 1.000000 0.000000 0.000000
vn 1.000000 0.000000 0.000000
vn 1.000000 0.000000 0.000000
vn -1.000000 0.000000 0.000000
vn 1.000000 0.000000 0.000000
vn -1.000000 0.000000 0.000000
vn -1.000000 0.000000 0.000000
vn -1.000000 0.000000 0.000000
vn -1.000000 0.000000 0.000000
vn 1.000000 0.000000 0.000000
vn 1.000000 0.000000 0.000000
vn -1.000000 0.000000 0.000000
vn 1.000000 0.000000 0.000000
vn -1.000000 0.000000 0.000000
vn -1.000000 0.000000 0.000000
vn 1.000000 0.000000 0.000000
vn 1.000000 0.000000 0.000000
vn -1.000000 0.000000 0.000000
vn 1.000000 0.000000 0.000000
vn -1.000000 0.000000 0.000000
vn -1.000000 0.000000 0.000000
vn 1.000000 0.000000 0.000000
vn 1.000000 0.000000 0.000000
vn -1.000000 0.000000 0.000000
vn 1.000000 0.000000 0.000000
vn -1.000000 0.000000 0.000000
vn -1.000000 0.000000 0.000000
vn 1.000000 0.000000 0.000000
vn 1.000000 0.000000 0.000000
vn -1.000000 0.000000 0.000000
vn 1.000000 0.000000 0.000000
vn -1.000000 0.000000 0.000000
vn -1.000000 0.000000 0.000000
vn 1.000000 0.000000 0.000000
vn 1.000000 0.000000 0.000000
vn -1.000000 0.000000 0.000000
vn 1.000000 0.000000 0.000000
vn -1.000000 0.000000 0.000000
vn -1.000000 0.000000 0.000000
vn 1.000000 0.000000 0.000000
vn 1.000000 0.000000 0.000000
vn -1.000000 0.000000 0.000000
vn 1.000000 0.000000 0.000000
vn -1.000000 0.000000 0.000000
vn -1.000000 0.000000 0.000000
vn 1.000000 0.000000 0.000000
vn 1.000000 0.000000 0.000000
vn -1.000000 0.000000 0.000000
vn 1.000000 0.000000 0.000000
vn -1.000000 0.000000 0.000000
vn -1.000000 0.000000 0.000000
vn 1.000000 0.000000 0.000000
vn 1.000000 0.000000 0.000000
vn -1.000000 0.000000 0.000000
vn 1.000000 0.000000 0.000000
vn -1.000000 0.000000 0.000000
vn -1.000000 0.000000 0.000000
vn 1.000000 0.000000 0.000000
vn 1.000000 0.000000 0.000000
vn -1.000000 0.000000 0.000000
vn 1.000000 0.000000 0.000000
vn -1.000000 0.000000 0.000000
vn -1.000000 0.000000 0.000000
vn 0.000000 0.000000 1.000000
vn 0.000000 0.000000 1.000000
vn -1.000000 0.000000 0.000000
vn 0.000000 0.000000 -1.000000
vn 0.000000 0.000000 -1.000000
vn 0.000000 0.000000 -1.000000
vn 0.000000 0.000000 -1.000000
vn 0.000000 0.000000 1.000000
vn 0.000000 0.000000 -1.000000
vn 0.000000 0.000000 -1.000000
vn 0.000000 0.000000 1.000000
vn 0.000000 0.000000 -1.000000
vn 0.000000 0.000000 -1.000000
vn 0.000000 0.000000 1.000000
vn 0.000000 0.000000 -1.000000
vn 0.000000 0.000000 -1.000000
vn 0.000000 0.000000 1.000000
vn 0.000000 0.000000 -1.000000
vn 0.000000 0.000000 -1.000000
vn 0.000000 0.000000 1.000000
vn 0.000000 0.000000 -1.000000
vn 0.000000 0.000000 -1.000000
vn 0.000000 0.000000 1.000000
vn 0.000000 0.000000 -1.000000
vn 0.000000 0.000000 -1.000000
vn 0.000000 0.000000 1.000000
vn 0.000000 0.000000 -1.000000
vn 0.000000 0.000000 -1.000000
vn 0.000000 0.000000 1.000000
vn 0.000000 0.000000 -1.000000
vn 0.000000 0.000000 -1.000000
vn 0.000000 0.000000 1.000000
vn 0.000000 0.000000 -1.000000
vn 0.000000 0.000000 -1.000000
vn 0.000000 0.000000 1.000000
vn 1.000000 0.000000 0.000000
vn 0.000000 0.000000 1.000000
vn -1.000000 0.000000 0.000000
vn -1.000000 0.000000 0.000000
vn -1.000000 0.000000 0.000000
vn -1.000000 0.000000 0.000000
vn -1.000000 0.000000 0.000000
vn -1.000000 0.000000 0.000000
vn -1.000000 0.000000 0.000000
vn -1.000000 0.000000 0.000000
vn -1.000000 0.000000 0.000000
vn -1.000000 0.000000 0.000000
vn -1.000000 0.000000 0.000000
vn -1.000000 0.000000 0.000000
vn -1.000000 0.000000 0.000000
vn 0.000000 0.000000 1.000000
vn 0.000000 0.000000 1.000000
vn 0.000000 0.000000 1.000000
vn 0.000000 0.000000 1.000000
vn 0.000000 0.000000 1.000000
vn 0.000000 0.000000 1.000000
vn 0.000000 0.000000 1.000000
vn 0.000000 0.000000 1.000000
vn 0.000000 0.000000 1.000000
vn 0.000000 0.000000 1.000000
vn 0.000000 0.000000 1.000000
vn 0.000000 0.000000 1.000000
vn 0.000000 0.000000 1.000000
vn 1.000000 0.000000 0.000000
vn 1.000000 0.000000 0.000000
vn 1.000000 0.000000 0.000000
vn 1.000000 0.000000 0.000000
vn 1.000000 0.000000 0.000000
vn 1.000000 0.000000 0.000000
vn 1.000000 0.000000 0.000000
vn 1.000000 0.000000 0.000000
vn 1.000000 0.000000 0.000000
vn 1.000000 0.000000 0.000000
vn 1.000000 0.000000 0.000000
vn 1.000000 0.000000 0.000000
vn 1.000000 0.000000 0.000000
vn 0.000000 0.000000 -1.000000
vn 0.000000 0.000000 -1.000000
vn 0.000000 0.000000 -1.000000
vn 0.000000 0.000000 -1.000000
vn 0.000000 0.000000 -1.000000
vn 0.000000 0.000000 -1.000000
vn 0.000000 0.000000 -1.000000
vn 0.000000 0.000000 -1.000000
vn 0.000000 0.000000 -1.000000
vn 0.000000 0.000000 -1.000000
vn 0.000000 0.000000 -1.000000
vn 0.000000 0.000000 -1.000000
vn 0.000000 0.000000 -1.000000
vn 0.000000 0.000000 1.000000
vn 0.000000 0.000000 1.000000
vn 0.000000 0.000000 1.000000
vn 0.000000 0.000000 1.000000
vn 0.000000 0.000000 1.000000
vn 0.000000 0.000000 1.000000
vn 0.000000 0.000000 1.000000
vn 0.000000 0.000000 1.000000
vn 0.000000 0.000000 1.000000
vn 0.000000 0.000000 1.000000
vn 0.000000 0.000000 1.000000
vn -1.000000 0.000000 0.000000
vn -1.000000 0.000000 0.000000
vn -1.000000 0.000000 0.000000
vn -1.000000 0.000000 0.000000
vn -1.000000 0.000000 0.000000
vn -1.000000 0.000000 0.000000
vn -1.000000 0.000000 0.000000
vn -1.000000 0.000000 0.000000
vn -1.000000 0.000000 0.000000
vn -1.000000 0.000000 0.000000
vn -1.000000 0.000000 0.000000
vn 0.000000 0.000000 -1.000000
vn 0.000000 0.000000 -1.000000
vn 0.000000 0.000000 -1.000000
vn 0.000000 0.000000 -1.000000
vn 0.000000 0.000000 -1.000000
vn 0.000000 0.000000 -1.000000
vn 0.000000 0.000000 -1.000000
vn 0.000000 0.000000 -1.000000
vn 0.000000 0.000000 -1.000000
vn 0.000000 0.000000 -1.000000
vn 0.000000 0.000000 -1.000000
vn 0.000000 0.000000 -1.000000
vn 0.000000 0.000000 -1.000000
vn 0.000000 0.000000 -1.000000
vn 0.000000 0.000000 -1.000000
vn 0.000000 0.000000 -1.000000
vn 1.000000 0.000000 0.000000
vn 1.000000 0.000000 0.000000
vn 1.000000 0.000000 0.000000
vn 1.000000 0.000000 0.000000
vn 1.000000 0.000000 0.000000
vn 1.000000 0.000000 0.000000
vn 1.000000 0.000000 0.000000
vn 1.000000 0.000000 0.000000
vn 1.000000 0.000000 0.000000
vn 1.000000 0.000000 0.000000
vn 1.000000 0.000000 0.000000
vn 0.000000 -0.998727 -0.050448
vn 0.000000 -0.998727 -0.050448
vn 0.000000 -0.998727 -0.050448
vn 0.000000 -0.998727 -0.050448
vn -0.999137 0.000000 -0.041528
vn -0.999137 0.000000 -0.041528
vn -0.999137 0.000000 -0.041528
vn -0.999137 0.000000 -0.041528
vn 0.000000 0.998727 -0.050448
vn 0.000000 0.998727 -0.050448
vn 0.000000 0.998727 -0.050448
vn 0.000000 0.998727 -0.050448
vn 0.000000 -0.998727 -0.050448
vn 0.000000 -0.998727 -0.050448
vn 0.000000 0.998727 -0.050448
vn 0.000000 0.998727 -0.050448
vn 0.999137 0.000000 -0.041528
vn 0.999137 0.000000 -0.041528
vn 0.999137 0.000000 -0.041528
vn 0.999137 0.000000 -0.041528
s 1
g pCube1 group11
usemtl initialShadingGroup
f 1/1/1 2/2/2 15/15/3 14/14/4
f 2/2/2 3/3/5 16/16/6 15/15/3
f 3/3/5 4/4/7 17/17/8 16/16/6
f 4/4/7 5/5/9 18/18/10 17/17/8
f 5/5/9 6/6/11 19/19/12 18/18/10
f 6/6/11 7/7/13 20/20/14 19/19/12
f 7/7/13 8/8/15 21/21/16 20/20/14
f 8/8/15 9/9/17 22/22/18 21/21/16
f 9/9/17 10/10/19 23/23/20 22/22/18
f 10/10/19 11/11/21 24/24/22 23/23/20
f 11/11/21 12/12/23 25/25/24 24/24/22
f 12/12/23 13/13/25 26/26/26 25/25/24
s 2
f 14/14/27 15/15/28 28/28/29 27/27/30
f 15/15/28 16/16/31 29/29/32 28/28/29
f 16/16/31 17/17/33 30/30/34 29/29/32
f 17/17/33 18/18/35 31/31/36 30/30/34
f 18/18/35 19/19/37 32/32/38 31/31/36
f 19/19/37 20/20/39 33/33/40 32/32/38
f 20/20/39 21/21/41 34/34/42 33/33/40
f 21/21/41 22/22/43 35/35/44 34/34/42
f 22/22/43 23/23/45 36/36/46 35/35/44
f 23/23/45 24/24/47 37/37/48 36/36/46
f 24/24/47 25/25/49 38/38/50 37/37/48
f 25/25/49 26/26/51 39/39/52 38/38/50
f 27/27/30 28/28/29 41/41/53 40/40/54
f 28/28/29 29/29/32 42/42/55 41/41/53
f 29/29/32 30/30/34 43/43/56 42/42/55
f 30/30/34 31/31/36 44/44/57 43/43/56
f 31/31/36 32/32/38 45/45/58 44/44/57
f 32/32/38 33/33/40 46/46/59 45/45/58
f 33/33/40 34/34/42 47/47/60 46/46/59
f 34/34/42 35/35/44 48/48/61 47/47/60
f 35/35/44 36/36/46 49/49/62 48/48/61
f 36/36/46 37/37/48 50/50/63 49/49/62
f 37/37/48 38/38/50 51/51/64 50/50/63
f 38/38/50 39/39/52 52/52/65 51/51/64
f 40/40/54 41/41/53 54/54/66 53/53/67
f 41/41/53 42/42/55 55/55/68 54/54/66
f 42/42/55 43/43/56 56/56/69 55/55/68
f 43/43/56 44/44/57 57/57/70 56/56/69
f 44/44/57 45/45/58 58/58/71 57/57/70
f 45/45/58 46/46/59 59/59/72 58/58/71
f 46/46/59 47/47/60 60/60/73 59/59/72
f 47/47/60 48/48/61 61/61/74 60/60/73
f 48/48/61 49/49/62 62/62/75 61/61/74
f 49/49/62 50/50/63 63/63/76 62/62/75
f 50/50/63 51/51/64 64/64/77 63/63/76
f 51/51/64 52/52/65 65/65/78 64/64/77
f 53/53/67 54/54/66 67/67/79 66/66/80
f 54/54/66 55/55/68 68/68/81 67/67/79
f 55/55/68 56/56/69 69/69/82 68/68/81
f 56/56/69 57/57/70 70/70/83 69/69/82
f 57/57/70 58/58/71 71/71/84 70/70/83
f 58/58/71 59/59/72 72/72/85 71/71/84
f 59/59/72 60/60/73 73/73/86 72/72/85
f 60/60/73 61/61/74 74/74/87 73/73/86
f 61/61/74 62/62/75 75/75/88 74/74/87
f 62/62/75 63/63/76 76/76/89 75/75/88
f 63/63/76 64/64/77 77/77/90 76/76/89
f 64/64/77 65/65/78 78/78/91 77/77/90
f 66/66/80 67/67/79 80/80/92 79/79/93
f 67/67/79 68/68/81 81/81/94 80/80/92
f 68/68/81 69/69/82 82/82/95 81/81/94
f 69/69/82 70/70/83 83/83/96 82/82/95
f 70/70/83 71/71/84 84/84/97 83/83/96
f 71/71/84 72/72/85 85/85/98 84/84/97
f 72/72/85 73/73/86 86/86/99 85/85/98
f 73/73/86 74/74/87 87/87/100 86/86/99
f 74/74/87 75/75/88 88/88/101 87/87/100
f 75/75/88 76/76/89 89/89/102 88/88/101
f 76/76/89 77/77/90 90/90/103 89/89/102
f 77/77/90 78/78/91 91/91/104 90/90/103
f 79/79/93 80/80/92 93/93/105 92/92/106
f 80/80/92 81/81/94 94/94/107 93/93/105
f 81/81/94 82/82/95 95/95/108 94/94/107
f 82/82/95 83/83/96 96/96/109 95/95/108
f 83/83/96 84/84/97 97/97/110 96/96/109
f 84/84/97 85/85/98 98/98/111 97/97/110
f 85/85/98 86/86/99 99/99/112 98/98/111
f 86/86/99 87/87/100 100/100/113 99/99/112
f 87/87/100 88/88/101 101/101/114 100/100/113
f 88/88/101 89/89/102 102/102/115 101/101/114
f 89/89/102 90/90/103 103/103/116 102/102/115
f 90/90/103 91/91/104 104/104/117 103/103/116
f 92/92/106 93/93/105 106/106/118 105/105/119
f 93/93/105 94/94/107 107/107/120 106/106/118
f 94/94/107 95/95/108 108/108/121 107/107/120
f 95/95/108 96/96/109 109/109/122 108/108/121
f 96/96/109 97/97/110 110/110/123 109/109/122
f 97/97/110 98/98/111 111/111/124 110/110/123
f 98/98/111 99/99/112 112/112/125 111/111/124
f 99/99/112 100/100/113 113/113/126 112/112/125
f 100/100/113 101/101/114 114/114/127 113/113/126
f 101/101/114 102/102/115 115/115/128 114/114/127
f 102/102/115 103/103/116 116/116/129 115/115/128
f 103/103/116 104/104/117 117/117/130 116/116/129
f 105/105/119 106/106/118 119/119/131 118/118/132
f 106/106/118 107/107/120 120/120/133 119/119/131
f 107/107/120 108/108/121 121/121/134 120/120/133
f 108/108/121 109/109/122 122/122/135 121/121/134
f 109/109/122 110/110/123 123/123/136 122/122/135
f 110/110/123 111/111/124 124/124/137 123/123/136
f 111/111/124 112/112/125 125/125/138 124/124/137
f 112/112/125 113/113/126 126/126/139 125/125/138
f 113/113/126 114/114/127 127/127/140 126/126/139
f 114/114/127 115/115/128 128/128/141 127/127/140
f 115/115/128 116/116/129 129/129/142 128/128/141
f 116/116/129 117/117/130 130/130/143 129/129/142
f 118/118/132 119/119/131 132/132/144 131/131/145
f 119/119/131 120/120/133 133/133/146 132/132/144
f 120/120/133 121/121/134 134/134/147 133/133/146
f 121/121/134 122/122/135 135/135/148 134/134/147
f 122/122/135 123/123/136 136/136/149 135/135/148
f 123/123/136 124/124/137 137/137/150 136/136/149
f 124/124/137 125/125/138 138/138/151 137/137/150
f 125/125/138 126/126/139 139/139/152 138/138/151
f 126/126/139 127/127/140 140/140/153 139/139/152
f 127/127/140 128/128/141 141/141/154 140/140/153
f 128/128/141 129/129/142 142/142/155 141/141/154
f 129/129/142 130/130/143 143/143/156 142/142/155
f 131/131/145 132/132/144 145/145/157 144/144/158
f 132/132/144 133/133/146 146/146/159 145/145/157
f 133/133/146 134/134/147 147/147/160 146/146/159
f 134/134/147 135/135/148 148/148/161 147/147/160
f 135/135/148 136/136/149 149/149/162 148/148/161
f 136/136/149 137/137/150 150/150/163 149/149/162
f 137/137/150 138/138/151 151/151/164 150/150/163
f 138/138/151 139/139/152 152/152/165 151/151/164
f 139/139/152 140/140/153 153/153/166 152/152/165
f 140/140/153 141/141/154 154/154/167 153/153/166
f 141/141/154 142/142/155 155/155/168 154/154/167
f 142/142/155 143/143/156 156/156/169 155/155/168
f 144/144/158 145/145/157 158/158/170 157/157/171
f 145/145/157 146/146/159 159/159/172 158/158/170
f 146/146/159 147/147/160 160/160/173 159/159/172
f 147/147/160 148/148/161 161/161/174 160/160/173
f 148/148/161 149/149/162 162/162/175 161/161/174
f 149/149/162 150/150/163 163/163/176 162/162/175
f 150/150/163 151/151/164 164/164/177 163/163/176
f 151/151/164 152/152/165 165/165/178 164/164/177
f 152/152/165 153/153/166 166/166/179 165/165/178
f 153/153/166 154/154/167 167/167/180 166/166/179
f 154/154/167 155/155/168 168/168/181 167/167/180
f 155/155/168 156/156/169 169/169/182 168/168/181
f 157/157/171 158/158/170 171/171/183 170/170/184
f 158/158/170 159/159/172 172/172/185 171/171/183
f 159/159/172 160/160/173 173/173/186 172/172/185
f 160/160/173 161/161/174 174/174/187 173/173/186
f 161/161/174 162/162/175 175/175/188 174/174/187
f 162/162/175 163/163/176 176/176/189 175/175/188
f 163/163/176 164/164/177 177/177/190 176/176/189
f 164/164/177 165/165/178 178/178/191 177/177/190
f 165/165/178 166/166/179 179/179/192 178/178/191
f 166/166/179 167/167/180 180/180/193 179/179/192
f 167/167/180 168/168/181 181/181/194 180/180/193
f 168/168/181 169/169/182 182/182/195 181/181/194
s 3
f 170/170/196 171/171/197 184/184/198 183/183/199
f 171/171/197 172/172/200 185/185/201 184/184/198
f 172/172/200 173/173/202 186/186/203 185/185/201
f 173/173/202 174/174/204 187/187/205 186/186/203
f 174/174/204 175/175/206 188/188/207 187/187/205
f 175/175/206 176/176/208 189/189/209 188/188/207
f 176/176/208 177/177/210 190/190/211 189/189/209
f 177/177/210 178/178/212 191/191/213 190/190/211
f 178/178/212 179/179/214 192/192/215 191/191/213
f 179/179/214 180/180/216 193/193/217 192/192/215
f 180/180/216 181/181/218 194/194/219 193/193/217
f 181/181/218 182/182/220 195/195/221 194/194/219
s 4
f 339/400/222 340/401/223 341/405/224 342/402/225
f 340/401/223 343/403/226 344/404/227 341/405/224
f 343/403/226 345/406/228 346/407/229 344/404/227
f 345/406/228 347/408/230 348/409/231 346/407/229
f 347/408/230 349/410/232 350/411/233 348/409/231
f 349/410/232 351/412/234 352/413/235 350/411/233
f 351/412/234 353/414/236 354/415/237 352/413/235
f 353/414/236 355/416/238 356/417/239 354/415/237
f 355/416/238 357/418/240 358/419/241 356/417/239
f 357/418/240 359/420/242 360/421/243 358/419/241
f 359/420/242 361/422/244 362/423/245 360/421/243
f 361/422/244 363/424/246 364/425/247 362/423/245
f 342/402/225 341/405/224 365/426/248 366/427/249
s 5
f 197/197/250 198/198/251 211/211/252 210/210/253
f 198/198/251 199/199/254 212/212/255 211/211/252
f 199/199/254 200/200/256 213/213/257 212/212/255
f 200/200/256 201/201/258 214/214/259 213/213/257
f 201/201/258 202/202/260 215/215/261 214/214/259
f 202/202/260 203/203/262 216/216/263 215/215/261
f 203/203/262 204/204/264 217/217/265 216/216/263
f 204/204/264 205/205/266 218/218/267 217/217/265
f 205/205/266 206/206/268 219/219/269 218/218/267
f 206/206/268 207/207/270 220/220/271 219/219/269
s 4
f 362/423/245 364/425/247 367/428/272 368/429/273
f 366/427/249 365/426/248 369/430/274 370/431/275
s 5
f 210/210/253 211/211/252 224/224/276 223/223/277
f 211/211/252 212/212/255 225/225/278 224/224/276
f 212/212/255 213/213/257 226/226/279 225/225/278
f 213/213/257 214/214/259 227/227/280 226/226/279
f 214/214/259 215/215/261 228/228/281 227/227/280
f 215/215/261 216/216/263 229/229/282 228/228/281
f 216/216/263 217/217/265 230/230/283 229/229/282
f 217/217/265 218/218/267 231/231/284 230/230/283
f 218/218/267 219/219/269 232/232/285 231/231/284
f 219/219/269 220/220/271 233/233/286 232/232/285
s 4
f 368/429/273 367/428/272 371/432/287 372/433/288
f 370/431/275 369/430/274 373/434/289 374/435/290
s 5
f 223/223/277 224/224/276 237/237/291 236/236/292
f 224/224/276 225/225/278 238/238/293 237/237/291
f 225/225/278 226/226/279 239/239/294 238/238/293
f 226/226/279 227/227/280 240/240/295 239/239/294
f 227/227/280 228/228/281 241/241/296 240/240/295
f 228/228/281 229/229/282 242/242/297 241/241/296
f 229/229/282 230/230/283 243/243/298 242/242/297
f 230/230/283 231/231/284 244/244/299 243/243/298
f 231/231/284 232/232/285 245/245/300 244/244/299
f 232/232/285 233/233/286 246/246/301 245/245/300
s 4
f 372/433/288 371/432/287 375/436/302 376/437/303
f 374/435/290 373/434/289 377/438/304 378/439/305
s 5
f 236/236/292 237/237/291 250/250/306 249/249/307
f 237/237/291 238/238/293 251/251/308 250/250/306
f 238/238/293 239/239/294 252/252/309 251/251/308
f 239/239/294 240/240/295 253/253/310 252/252/309
f 240/240/295 241/241/296 254/254/311 253/253/310
f 241/241/296 242/242/297 255/255/312 254/254/311
f 242/242/297 243/243/298 256/256/313 255/255/312
f 243/243/298 244/244/299 257/257/314 256/256/313
f 244/244/299 245/245/300 258/258/315 257/257/314
f 245/245/300 246/246/301 259/259/316 258/258/315
s 4
f 376/437/303 375/436/302 379/440/317 380/441/318
f 378/439/305 377/438/304 381/442/319 382/443/320
s 5
f 249/249/307 250/250/306 263/263/321 262/262/322
f 250/250/306 251/251/308 264/264/323 263/263/321
f 251/251/308 252/252/309 265/265/324 264/264/323
f 252/252/309 253/253/310 266/266/325 265/265/324
f 253/253/310 254/254/311 267/267/326 266/266/325
f 254/254/311 255/255/312 268/268/327 267/267/326
f 255/255/312 256/256/313 269/269/328 268/268/327
f 256/256/313 257/257/314 270/270/329 269/269/328
f 257/257/314 258/258/315 271/271/330 270/270/329
f 258/258/315 259/259/316 272/272/331 271/271/330
s 4
f 380/441/318 379/440/317 383/444/332 384/445/333
f 382/443/320 381/442/319 385/446/334 386/447/335
s 5
f 262/262/322 263/263/321 276/276/336 275/275/337
f 263/263/321 264/264/323 277/277/338 276/276/336
f 264/264/323 265/265/324 278/278/339 277/277/338
f 265/265/324 266/266/325 279/279/340 278/278/339
f 266/266/325 267/267/326 280/280/341 279/279/340
f 267/267/326 268/268/327 281/281/342 280/280/341
f 268/268/327 269/269/328 282/282/343 281/281/342
f 269/269/328 270/270/329 283/283/344 282/282/343
f 270/270/329 271/271/330 284/284/345 283/283/344
f 271/271/330 272/272/331 285/285/346 284/284/345
s 4
f 384/445/333 383/444/332 387/448/347 388/449/348
f 386/447/335 385/446/334 389/450/349 390/451/350
s 5
f 275/275/337 276/276/336 289/289/351 288/288/352
f 276/276/336 277/277/338 290/290/353 289/289/351
f 277/277/338 278/278/339 291/291/354 290/290/353
f 278/278/339 279/279/340 292/292/355 291/291/354
f 279/279/340 280/280/341 293/293/356 292/292/355
f 280/280/341 281/281/342 294/294/357 293/293/356
f 281/281/342 282/282/343 295/295/358 294/294/357
f 282/282/343 283/283/344 296/296/359 295/295/358
f 283/283/344 284/284/345 297/297/360 296/296/359
f 284/284/345 285/285/346 298/298/361 297/297/360
s 4
f 388/449/348 387/448/347 391/452/362 392/453/363
f 390/451/350 389/450/349 393/454/364 394/455/365
s 5
f 288/288/352 289/289/351 302/302/366 301/301/367
f 289/289/351 290/290/353 303/303/368 302/302/366
f 290/290/353 291/291/354 304/304/369 303/303/368
f 291/291/354 292/292/355 305/305/370 304/304/369
f 292/292/355 293/293/356 306/306/371 305/305/370
f 293/293/356 294/294/357 307/307/372 306/306/371
f 294/294/357 295/295/358 308/308/373 307/307/372
f 295/295/358 296/296/359 309/309/374 308/308/373
f 296/296/359 297/297/360 310/310/375 309/309/374
f 297/297/360 298/298/361 311/311/376 310/310/375
s 4
f 392/453/363 391/452/362 395/456/377 396/457/378
f 394/455/365 393/454/364 397/458/379 398/459/380
s 5
f 301/301/367 302/302/366 315/315/381 314/314/382
f 302/302/366 303/303/368 316/316/383 315/315/381
f 303/303/368 304/304/369 317/317/384 316/316/383
f 304/304/369 305/305/370 318/318/385 317/317/384
f 305/305/370 306/306/371 319/319/386 318/318/385
f 306/306/371 307/307/372 320/320/387 319/319/386
f 307/307/372 308/308/373 321/321/388 320/320/387
f 308/308/373 309/309/374 322/322/389 321/321/388
f 309/309/374 310/310/375 323/323/390 322/322/389
f 310/310/375 311/311/376 324/324/391 323/323/390
s 4
f 396/457/378 395/456/377 399/460/392 400/461/393
f 398/459/380 397/458/379 401/462/394 402/463/395
s 5
f 314/314/382 315/315/381 328/328/396 327/327/397
f 315/315/381 316/316/383 329/329/398 328/328/396
f 316/316/383 317/317/384 330/330/399 329/329/398
f 317/317/384 318/318/385 331/331/400 330/330/399
f 318/318/385 319/319/386 332/332/401 331/331/400
f 319/319/386 320/320/387 333/333/402 332/332/401
f 320/320/387 321/321/388 334/334/403 333/333/402
f 321/321/388 322/322/389 335/335/404 334/334/403
f 322/322/389 323/323/390 336/336/405 335/335/404
f 323/323/390 324/324/391 337/337/406 336/336/405
s 4
f 400/461/393 399/460/392 403/464/407 404/465/408
f 402/463/395 401/462/394 405/466/409 406/467/410
f 401/462/394 407/468/411 408/469/412 405/466/409
f 407/468/411 409/470/413 410/471/414 408/469/412
f 409/470/413 411/472/415 412/473/416 410/471/414
f 411/472/415 413/474/417 414/475/418 412/473/416
f 413/474/417 415/476/419 416/477/420 414/475/418
f 415/476/419 417/478/421 418/479/422 416/477/420
f 417/478/421 419/480/423 420/481/424 418/479/422
f 419/480/423 421/482/425 422/483/426 420/481/424
f 421/482/425 423/484/427 424/485/428 422/483/426
f 423/484/427 404/465/408 425/486/429 424/485/428
f 404/465/408 403/464/407 426/487/430 425/486/429
s 6
f 208/353/431 195/352/432 182/364/433 169/365/434
f 221/354/435 208/353/431 169/365/434 156/366/436
f 234/355/437 221/354/435 156/366/436 143/367/438
f 247/356/439 234/355/437 143/367/438 130/368/440
f 260/357/441 247/356/439 130/368/440 117/369/442
f 273/358/443 260/357/441 117/369/442 104/370/444
f 286/359/445 273/358/443 104/370/444 91/371/446
f 299/360/447 286/359/445 91/371/446 78/372/448
f 312/361/449 299/360/447 78/372/448 65/373/450
f 325/362/451 312/361/449 65/373/450 52/374/452
f 338/363/453 325/362/451 52/374/452 39/375/454
f 13/13/455 338/363/453 39/375/454 26/26/456
s 7
f 183/376/457 196/377/458 157/389/459 170/388/460
f 196/377/458 209/378/461 144/390/462 157/389/459
f 209/378/461 222/379/463 131/391/464 144/390/462
f 222/379/463 235/380/465 118/392/466 131/391/464
f 235/380/465 248/381/467 105/393/468 118/392/466
f 248/381/467 261/382/469 92/394/470 105/393/468
f 261/382/469 274/383/471 79/395/472 92/394/470
f 274/383/471 287/384/473 66/396/474 79/395/472
f 287/384/473 300/385/475 53/397/476 66/396/474
f 300/385/475 313/386/477 40/398/478 53/397/476
f 313/386/477 326/387/479 27/399/480 40/398/478
f 326/387/479 1/1/481 14/14/482 27/399/480
s 3
f 183/183/199 184/184/198 474/535/483 427/488/484
s 7
f 196/196/458 183/183/457 427/488/485 428/489/486
s 3
f 184/184/198 185/185/201 473/534/487 474/535/483
s 8
f 198/198/488 197/197/489 475/536/490 476/537/491
s 3
f 185/185/201 186/186/203 472/533/492 473/534/487
s 8
f 199/199/493 198/198/488 476/537/491 477/538/494
s 3
f 186/186/203 187/187/205 471/532/495 472/533/492
s 8
f 200/200/496 199/199/493 477/538/494 478/539/497
s 3
f 187/187/205 188/188/207 470/531/498 471/532/495
s 8
f 201/201/499 200/200/496 478/539/497 479/540/500
s 3
f 188/188/207 189/189/209 469/530/501 470/531/498
s 8
f 202/202/502 201/201/499 479/540/500 480/541/503
s 3
f 189/189/209 190/190/211 468/529/504 469/530/501
s 8
f 203/203/505 202/202/502 480/541/503 481/542/506
s 3
f 190/190/211 191/191/213 467/528/507 468/529/504
s 8
f 204/204/508 203/203/505 481/542/506 482/543/509
s 3
f 191/191/213 192/192/215 466/527/510 467/528/507
s 8
f 205/205/511 204/204/508 482/543/509 483/544/512
s 3
f 192/192/215 193/193/217 465/526/513 466/527/510
s 8
f 206/206/514 205/205/511 483/544/512 484/545/515
s 3
f 193/193/217 194/194/219 464/525/516 465/526/513
s 8
f 207/207/517 206/206/514 484/545/515 485/546/518
s 3
f 194/194/219 195/195/221 463/524/519 464/525/516
s 6
f 195/195/432 208/208/431 462/523/520 463/524/521
s 9
f 197/197/522 210/210/523 514/575/524 475/536/525
s 7
f 209/209/461 196/196/458 428/489/486 429/490/526
s 6
f 208/208/431 221/221/435 461/522/527 462/523/520
s 10
f 220/220/528 207/207/529 485/546/530 486/547/531
s 9
f 210/210/523 223/223/532 513/574/533 514/575/524
s 7
f 222/222/463 209/209/461 429/490/526 430/491/534
s 6
f 221/221/435 234/234/437 460/521/535 461/522/527
s 10
f 233/233/536 220/220/528 486/547/531 487/548/537
s 9
f 223/223/532 236/236/538 512/573/539 513/574/533
s 7
f 235/235/465 222/222/463 430/491/534 431/492/540
s 6
f 234/234/437 247/247/439 459/520/541 460/521/535
s 10
f 246/246/542 233/233/536 487/548/537 488/549/543
s 9
f 236/236/538 249/249/544 511/572/545 512/573/539
s 7
f 248/248/467 235/235/465 431/492/540 432/493/546
s 6
f 247/247/439 260/260/441 458/519/547 459/520/541
s 10
f 259/259/548 246/246/542 488/549/543 489/550/549
s 9
f 249/249/544 262/262/550 510/571/551 511/572/545
s 7
f 261/261/469 248/248/467 432/493/546 433/494/552
s 6
f 260/260/441 273/273/443 457/518/553 458/519/547
s 10
f 272/272/554 259/259/548 489/550/549 490/551/555
s 9
f 262/262/550 275/275/556 509/570/557 510/571/551
s 7
f 274/274/471 261/261/469 433/494/552 434/495/558
s 6
f 273/273/443 286/286/445 456/517/559 457/518/553
s 10
f 285/285/560 272/272/554 490/551/555 491/552/561
s 9
f 275/275/556 288/288/562 508/569/563 509/570/557
s 7
f 287/287/473 274/274/471 434/495/558 435/496/564
s 6
f 286/286/445 299/299/447 455/516/565 456/517/559
s 10
f 298/298/566 285/285/560 491/552/561 492/553/567
s 9
f 288/288/562 301/301/568 507/568/569 508/569/563
s 7
f 300/300/475 287/287/473 435/496/564 436/497/570
s 6
f 299/299/447 312/312/449 454/515/571 455/516/565
s 10
f 311/311/572 298/298/566 492/553/567 493/554/573
s 9
f 301/301/568 314/314/574 506/567/575 507/568/569
s 7
f 313/313/477 300/300/475 436/497/570 437/498/576
s 6
f 312/312/449 325/325/451 453/514/577 454/515/571
s 10
f 324/324/578 311/311/572 493/554/573 494/555/579
s 9
f 314/314/574 327/327/580 505/566/581 506/567/575
s 7
f 326/326/479 313/313/477 437/498/576 438/499/582
s 6
f 325/325/451 338/338/453 452/513/583 453/514/577
s 10
f 337/337/584 324/324/578 494/555/579 495/556/585
s 1
f 2/340/2 1/339/1 439/500/586 440/501/587
s 7
f 1/339/481 326/326/479 438/499/582 439/500/588
s 11
f 327/327/589 328/328/590 504/565/591 505/566/592
s 1
f 3/341/5 2/340/2 440/501/587 441/502/593
s 11
f 328/328/590 329/329/594 503/564/595 504/565/591
s 1
f 4/342/7 3/341/5 441/502/593 442/503/596
s 11
f 329/329/594 330/330/597 502/563/598 503/564/595
s 1
f 5/343/9 4/342/7 442/503/596 443/504/599
s 11
f 330/330/597 331/331/600 501/562/601 502/563/598
s 1
f 6/344/11 5/343/9 443/504/599 444/505/602
s 11
f 331/331/600 332/332/603 500/561/604 501/562/601
s 1
f 7/345/13 6/344/11 444/505/602 445/506/605
s 11
f 332/332/603 333/333/606 499/560/607 500/561/604
s 1
f 8/346/15 7/345/13 445/506/605 446/507/608
s 11
f 333/333/606 334/334/609 498/559/610 499/560/607
s 1
f 9/347/17 8/346/15 446/507/608 447/508/611
s 11
f 334/334/609 335/335/612 497/558/613 498/559/610
s 1
f 10/348/19 9/347/17 447/508/611 448/509/614
s 11
f 335/335/612 336/336/615 496/557/616 497/558/613
s 1
f 11/349/21 10/348/19 448/509/614 449/510/617
s 11
f 336/336/615 337/337/618 495/556/619 496/557/616
s 1
f 12/350/23 11/349/21 449/510/617 450/511/620
s 6
f 338/338/453 13/351/455 451/512/621 452/513/583
s 1
f 13/351/25 12/350/23 450/511/620 451/512/622
s 7
f 428/489/486 427/488/485 339/400/623 342/402/624
f 429/490/526 428/489/486 342/402/624 366/427/625
f 430/491/534 429/490/526 366/427/625 370/431/626
f 431/492/540 430/491/534 370/431/626 374/435/627
f 432/493/546 431/492/540 374/435/627 378/439/628
f 433/494/552 432/493/546 378/439/628 382/443/629
f 434/495/558 433/494/552 382/443/629 386/447/630
f 435/496/564 434/495/558 386/447/630 390/451/631
f 436/497/570 435/496/564 390/451/631 394/455/632
f 437/498/576 436/497/570 394/455/632 398/459/633
f 438/499/582 437/498/576 398/459/633 402/463/634
f 439/500/588 438/499/582 402/463/634 406/467/635
s 1
f 440/501/587 439/500/586 406/467/636 405/466/637
f 441/502/593 440/501/587 405/466/637 408/469/638
f 442/503/596 441/502/593 408/469/638 410/471/639
f 443/504/599 442/503/596 410/471/639 412/473/640
f 444/505/602 443/504/599 412/473/640 414/475/641
f 445/506/605 444/505/602 414/475/641 416/477/642
f 446/507/608 445/506/605 416/477/642 418/479/643
f 447/508/611 446/507/608 418/479/643 420/481/644
f 448/509/614 447/508/611 420/481/644 422/483/645
f 449/510/617 448/509/614 422/483/645 424/485/646
f 450/511/620 449/510/617 424/485/646 425/486/647
f 451/512/622 450/511/620 425/486/647 426/487/648
s 6
f 452/513/583 451/512/621 426/487/649 403/464/650
f 453/514/577 452/513/583 403/464/650 399/460/651
f 454/515/571 453/514/577 399/460/651 395/456/652
f 455/516/565 454/515/571 395/456/652 391/452/653
f 456/517/559 455/516/565 391/452/653 387/448/654
f 457/518/553 456/517/559 387/448/654 383/444/655
f 458/519/547 457/518/553 383/444/655 379/440/656
f 459/520/541 458/519/547 379/440/656 375/436/657
f 460/521/535 459/520/541 375/436/657 371/432/658
f 461/522/527 460/521/535 371/432/658 367/428/659
f 462/523/520 461/522/527 367/428/659 364/425/660
f 463/524/521 462/523/520 364/425/660 363/424/661
s 3
f 464/525/516 463/524/519 363/424/662 361/422/663
f 465/526/513 464/525/516 361/422/663 359/420/664
f 466/527/510 465/526/513 359/420/664 357/418/665
f 467/528/507 466/527/510 357/418/665 355/416/666
f 468/529/504 467/528/507 355/416/666 353/414/667
f 469/530/501 468/529/504 353/414/667 351/412/668
f 470/531/498 469/530/501 351/412/668 349/410/669
f 471/532/495 470/531/498 349/410/669 347/408/670
f 472/533/492 471/532/495 347/408/670 345/406/671
f 473/534/487 472/533/492 345/406/671 343/403/672
f 474/535/483 473/534/487 343/403/672 340/401/673
f 427/488/484 474/535/483 340/401/673 339/400/674
s 8
f 476/537/491 475/536/490 341/405/675 344/404/676
f 477/538/494 476/537/491 344/404/676 346/407/677
f 478/539/497 477/538/494 346/407/677 348/409/678
f 479/540/500 478/539/497 348/409/678 350/411/679
f 480/541/503 479/540/500 350/411/679 352/413/680
f 481/542/506 480/541/503 352/413/680 354/415/681
f 482/543/509 481/542/506 354/415/681 356/417/682
f 483/544/512 482/543/509 356/417/682 358/419/683
f 484/545/515 483/544/512 358/419/683 360/421/684
f 485/546/518 484/545/515 360/421/684 362/423/685
s 10
f 486/547/531 485/546/530 362/423/686 368/429/687
f 487/548/537 486/547/531 368/429/687 372/433/688
f 488/549/543 487/548/537 372/433/688 376/437/689
f 489/550/549 488/549/543 376/437/689 380/441/690
f 490/551/555 489/550/549 380/441/690 384/445/691
f 491/552/561 490/551/555 384/445/691 388/449/692
f 492/553/567 491/552/561 388/449/692 392/453/693
f 493/554/573 492/553/567 392/453/693 396/457/694
f 494/555/579 493/554/573 396/457/694 400/461/695
f 495/556/585 494/555/579 400/461/695 404/465/696
s 11
f 496/557/616 495/556/619 404/465/697 423/484/698
f 497/558/613 496/557/616 423/484/698 421/482/699
f 498/559/610 497/558/613 421/482/699 419/480/700
f 499/560/607 498/559/610 419/480/700 417/478/701
s 12
f 516/576/702 515/577/703 517/578/704 518/579/705
f 519/580/706 516/576/702 518/579/705 520/581/707
s 11
f 502/563/598 501/562/601 413/474/708 411/472/709
f 503/564/595 502/563/598 411/472/709 409/470/710
f 504/565/591 503/564/595 409/470/710 407/468/711
f 505/566/592 504/565/591 407/468/711 401/462/712
s 9
f 506/567/575 505/566/581 401/462/713 397/458/714
f 507/568/569 506/567/575 397/458/714 393/454/715
f 508/569/563 507/568/569 393/454/715 389/450/716
f 509/570/557 508/569/563 389/450/716 385/446/717
f 510/571/551 509/570/557 385/446/717 381/442/718
f 511/572/545 510/571/551 381/442/718 377/438/719
f 512/573/539 511/572/545 377/438/719 373/434/720
f 513/574/533 512/573/539 373/434/720 369/430/721
f 514/575/524 513/574/533 369/430/721 365/426/722
f 475/536/525 514/575/524 365/426/722 341/405/723
s 13
f 500/561/724 499/560/725 515/577/726 516/576/727
s off
f 499/560/728 417/478/729 517/578/730 515/577/731
s 14
f 417/478/732 415/476/733 518/579/734 517/578/735
s 13
f 501/562/736 500/561/724 516/576/727 519/580/737
s 14
f 415/476/733 413/474/738 520/581/739 518/579/734
s off
f 413/474/740 501/562/741 519/580/742 520/581/743
