# This file uses meters as units for non-parametric coordinates.

mtllib CryoPillow.mtl
g default
v -0.785192 2.351097 -3.772610
v -0.174256 2.351097 -3.772610
v -0.785192 2.681129 -3.815295
v -0.174256 2.681129 -3.815295
v -0.785192 2.651752 -4.058825
v -0.174256 2.651752 -4.058825
v -0.785192 2.321720 -4.016140
v -0.174256 2.321720 -4.016140
v -0.479724 2.351097 -3.772610
v -0.479724 2.681129 -3.815295
v -0.479724 2.651752 -4.058825
v -0.479724 2.321720 -4.016140
v -0.632458 2.351097 -3.772610
v -0.632458 2.681129 -3.815295
v -0.632458 2.651752 -4.058825
v -0.632458 2.321720 -4.016140
v -0.326990 2.351097 -3.772610
v -0.326990 2.681129 -3.815295
v -0.326990 2.651752 -4.058825
v -0.326990 2.321720 -4.016140
v -0.785192 2.469639 -3.789089
v -0.785192 2.440263 -4.032619
v -0.632458 2.440263 -4.032619
v -0.479724 2.440263 -4.032619
v -0.326990 2.440263 -4.032619
v -0.174256 2.440263 -4.032619
v -0.174256 2.469639 -3.789089
v -0.326990 2.469639 -3.789089
v -0.479724 2.469639 -3.789089
v -0.632458 2.469639 -3.789089
v -0.479724 0.439861 -3.841659
v -0.479724 0.469238 -3.604583
v -0.326990 0.439861 -3.841659
v -0.326990 0.469238 -3.604583
v -0.632458 0.439861 -3.841659
v -0.632458 0.469238 -3.604583
v -0.479724 2.151389 -3.995034
v -0.632458 2.264979 -4.040594
v -0.632458 2.294356 -3.803519
v -0.479724 2.180765 -3.757958
v -0.326990 2.294356 -3.803519
v -0.326990 2.264979 -4.040594
v -0.931834 2.264979 -4.040594
v -0.931834 2.294356 -3.803519
v -1.082869 0.439861 -3.841659
v -1.082869 0.469238 -3.604583
v -0.027614 2.294356 -3.803519
v -0.027614 2.264979 -4.040594
v 0.123421 0.469238 -3.604583
v 0.123421 0.439861 -3.841659
v -0.479724 1.295625 -3.934864
v -0.632458 1.295625 -3.934864
v -1.007351 1.295625 -3.934864
v -1.007351 1.077515 -3.697649
v -0.632458 1.077515 -3.697649
v -0.479724 1.077515 -3.697649
v -0.326990 1.077515 -3.697649
v 0.047904 1.077515 -3.697649
v 0.047904 1.295625 -3.934864
v -0.326990 1.295625 -3.934864
v -0.479724 0.867743 -3.888261
v -0.632458 0.867743 -3.888261
v -1.045110 0.867743 -3.888261
v -1.045110 0.810174 -3.694784
v -0.632458 0.810174 -3.694784
v -0.479724 0.810174 -3.694784
v -0.326990 0.810174 -3.694784
v 0.085662 0.810174 -3.694784
v 0.085662 0.867743 -3.888261
v -0.326990 0.867743 -3.888261
v -0.479724 1.723507 -3.948431
v -0.632458 1.723507 -3.948431
v -0.969593 1.723507 -3.948431
v -0.969593 1.752401 -3.735141
v -0.632458 1.752401 -3.735141
v -0.479724 1.752401 -3.735141
v -0.326990 1.752401 -3.735141
v 0.010145 1.752401 -3.735141
v 0.010145 1.723507 -3.948431
v -0.326990 1.723507 -3.948431
v -0.782146 2.264979 -4.040594
v -0.782146 2.294356 -3.803519
v -0.801025 1.752401 -3.735141
v -0.819905 1.077515 -3.697649
v -0.838784 0.810174 -3.694784
v -0.857663 0.469238 -3.604583
v -0.857663 0.439861 -3.841659
v -0.838784 0.867743 -3.888261
v -0.819905 1.295625 -3.934864
v -0.801025 1.723507 -3.948431
v -0.177302 2.294356 -3.803519
v -0.177302 2.264979 -4.040594
v -0.158422 1.723507 -3.948431
v -0.139543 1.295625 -3.934864
v -0.120664 0.867743 -3.888261
v -0.101785 0.439861 -3.841659
v -0.101785 0.469238 -3.604583
v -0.120664 0.810174 -3.694784
v -0.139543 1.077515 -3.697649
v -0.158422 1.752401 -3.735141
vt 0.375000 0.000000
vt 0.625000 0.000000
vt 0.375000 0.250000
vt 0.625000 0.250000
vt 0.375000 0.500000
vt 0.625000 0.500000
vt 0.375000 0.750000
vt 0.625000 0.750000
vt 0.375000 1.000000
vt 0.625000 1.000000
vt 0.875000 0.000000
vt 0.875000 0.250000
vt 0.125000 0.000000
vt 0.125000 0.250000
vt 0.500000 0.000000
vt 0.500000 1.000000
vt 0.500000 0.250000
vt 0.500000 0.500000
vt 0.500000 0.750000
vt 0.437500 0.000000
vt 0.437500 1.000000
vt 0.437500 0.250000
vt 0.437500 0.500000
vt 0.437500 0.750000
vt 0.562500 0.000000
vt 0.562500 1.000000
vt 0.562500 0.250000
vt 0.562500 0.500000
vt 0.562500 0.750000
vt 0.375000 0.125000
vt 0.125000 0.125000
vt 0.375000 0.625000
vt 0.437500 0.625000
vt 0.500000 0.625000
vt 0.562500 0.625000
vt 0.625000 0.625000
vt 0.875000 0.125000
vt 0.625000 0.125000
vt 0.562500 0.125000
vt 0.500000 0.125000
vt 0.437500 0.125000
vt 0.500000 0.750000
vt 0.562500 0.750000
vt 0.562500 1.000000
vt 0.500000 1.000000
vt 0.437500 1.000000
vt 0.437500 0.750000
vt 0.500000 0.750000
vt 0.437500 0.750000
vt 0.437500 1.000000
vt 0.500000 1.000000
vt 0.562500 1.000000
vt 0.562500 0.750000
vt 0.437500 1.000000
vt 0.437500 0.750000
vt 0.437500 0.750000
vt 0.437500 1.000000
vt 0.562500 0.750000
vt 0.562500 1.000000
vt 0.562500 1.000000
vt 0.562500 0.750000
vt 0.500000 0.750000
vt 0.437500 0.750000
vt 0.437500 0.750000
vt 0.437500 1.000000
vt 0.437500 1.000000
vt 0.500000 1.000000
vt 0.562500 1.000000
vt 0.562500 1.000000
vt 0.562500 0.750000
vt 0.562500 0.750000
vt 0.500000 0.750000
vt 0.437500 0.750000
vt 0.437500 0.750000
vt 0.437500 1.000000
vt 0.437500 1.000000
vt 0.500000 1.000000
vt 0.562500 1.000000
vt 0.562500 1.000000
vt 0.562500 0.750000
vt 0.562500 0.750000
vt 0.500000 0.750000
vt 0.437500 0.750000
vt 0.437500 0.750000
vt 0.437500 1.000000
vt 0.437500 1.000000
vt 0.500000 1.000000
vt 0.562500 1.000000
vt 0.562500 1.000000
vt 0.562500 0.750000
vt 0.562500 0.750000
vt 0.437500 0.750000
vt 0.437500 1.000000
vt 0.437500 1.000000
vt 0.437500 1.000000
vt 0.437500 1.000000
vt 0.437500 1.000000
vt 0.437500 0.750000
vt 0.437500 0.750000
vt 0.437500 0.750000
vt 0.437500 0.750000
vt 0.562500 1.000000
vt 0.562500 0.750000
vt 0.562500 0.750000
vt 0.562500 0.750000
vt 0.562500 0.750000
vt 0.562500 0.750000
vt 0.562500 1.000000
vt 0.562500 1.000000
vt 0.562500 1.000000
vt 0.562500 1.000000
vn 0.000000 0.137686 0.990476
vn -0.056683 0.070525 0.995898
vn 0.000000 0.128267 0.991740
vn 0.000000 0.128267 0.991740
vn 0.000000 0.992803 -0.119760
vn 0.000000 0.992803 -0.119760
vn 0.000000 0.992803 -0.119760
vn 0.000000 0.992803 -0.119760
vn 0.000000 -0.128267 -0.991740
vn 0.000000 -0.128267 -0.991740
vn 0.049812 -0.088763 -0.994807
vn 0.000000 -0.137693 -0.990475
vn 0.000000 -0.992803 0.119760
vn 0.000000 -0.992803 0.119760
vn 0.000000 -0.992803 0.119760
vn 0.000000 -0.992803 0.119760
vn 1.000000 -0.000000 0.000000
vn 1.000000 -0.000000 0.000000
vn 1.000000 -0.000000 0.000000
vn 1.000000 -0.000000 0.000000
vn -1.000000 0.000000 -0.000000
vn -1.000000 0.000000 -0.000000
vn -1.000000 0.000000 -0.000000
vn -1.000000 0.000000 -0.000000
vn 0.000000 0.128267 0.991740
vn 0.000000 0.128267 0.991740
vn 0.000000 0.035959 0.999353
vn 0.056683 0.070525 0.995898
vn 0.000000 0.992803 -0.119760
vn 0.000000 0.992803 -0.119760
vn 0.000000 0.992803 -0.119760
vn 0.000000 0.992803 -0.119760
vn 0.000000 -0.063664 -0.997971
vn 0.000000 -0.128268 -0.991740
vn 0.000000 -0.128268 -0.991740
vn -0.049812 -0.088763 -0.994806
vn 0.000000 -0.992410 0.122972
vn 0.000000 -0.992410 0.122972
vn 0.000000 -0.992410 0.122973
vn 0.000000 -0.992410 0.122973
vn 0.000000 -0.992410 0.122973
vn 0.000000 -0.992410 0.122973
vn 0.000000 0.128267 0.991740
vn 0.000000 0.137686 0.990476
vn 0.000000 0.992803 -0.119760
vn 0.000000 0.992803 -0.119760
vn 0.000000 -0.128267 -0.991740
vn 0.000000 -0.137693 -0.990475
vn 0.000000 -0.992803 0.119760
vn 0.000000 -0.992803 0.119760
vn 0.000000 -0.992803 0.119760
vn 0.000000 -0.992803 0.119760
vn -1.000000 0.000000 0.000000
vn -1.000000 0.000000 0.000000
vn 0.000000 -0.122969 -0.992411
vn 0.000000 -0.122969 -0.992411
vn 0.000000 -0.122969 -0.992411
vn 0.000000 -0.122969 -0.992411
vn 0.000000 -0.122969 -0.992411
vn 1.000000 -0.000000 0.000000
vn 1.000000 -0.000000 0.000000
vn 0.000000 0.122972 0.992410
vn 0.000000 0.122972 0.992410
vn 0.000000 0.122972 0.992410
vn 0.000000 0.122972 0.992410
vn 0.000000 0.122972 0.992410
vn -0.045546 -0.135822 -0.989686
vn -0.000000 -0.130390 -0.991463
vn 1.000000 0.000000 -0.000000
vn 1.000000 0.000000 -0.000000
vn 1.000000 0.000000 -0.000000
vn 1.000000 0.000000 -0.000000
vn -0.000000 0.080803 0.996730
vn 0.053246 0.090604 0.994463
vn -1.000000 0.000000 -0.000000
vn -1.000000 0.000000 -0.000000
vn -1.000000 0.000000 -0.000000
vn -1.000000 0.000000 -0.000000
vn 0.045546 -0.135822 -0.989686
vn -0.053246 0.090604 0.994463
vn -0.000000 -0.090525 -0.995894
vn 0.023414 -0.098103 -0.994901
vn -0.997631 0.068229 -0.008828
vn -0.997631 0.068229 -0.008828
vn -0.997564 0.068959 0.010551
vn -0.997581 0.068909 0.009205
vn -0.021989 0.078592 0.996664
vn -0.000000 0.071443 0.997445
vn 0.021989 0.078592 0.996664
vn 0.997631 0.068229 -0.008828
vn 0.997631 0.068229 -0.008828
vn 0.997581 0.068909 0.009205
vn 0.997564 0.068959 0.010551
vn -0.023414 -0.098103 -0.994901
vn 0.000000 0.992410 -0.122973
vn 0.000000 0.992410 -0.122973
vn 0.000000 0.992410 -0.122973
vn 0.000000 0.992410 -0.122973
vn 0.000000 -0.104646 -0.994510
vn 0.000000 -0.167795 -0.985822
vn 0.000000 -0.992410 0.122973
vn 0.000000 -0.992410 0.122973
vn 0.000000 0.125177 0.992134
vn 0.000000 0.084756 0.996402
vn 0.000000 0.992410 -0.122973
vn 0.000000 0.992410 -0.122973
vn 0.000000 0.992410 -0.122973
vn 0.000000 0.992410 -0.122973
vn 0.000000 0.084756 0.996402
vn 0.000000 0.125177 0.992134
vn 0.000000 -0.992410 0.122973
vn 0.000000 -0.992410 0.122973
vn 0.000000 -0.167795 -0.985822
vn 0.000000 -0.104646 -0.994510
vn 0.000000 -0.071202 -0.997462
vn 0.000000 -0.070138 -0.997537
vn 0.000000 -0.108274 -0.994121
vn 0.000000 -0.108274 -0.994121
vn 0.000000 -0.108274 -0.994121
vn 0.000000 -0.072068 -0.997400
vn -0.994473 0.091679 0.051167
vn -0.996052 0.079645 0.039195
vn -0.993450 0.106392 0.041697
vn -0.993999 0.104447 0.032500
vn 0.000000 0.041856 0.999124
vn 0.000000 0.156728 0.987642
vn 0.000000 0.154402 0.988008
vn 0.000000 0.042281 0.999106
vn 0.000000 0.042792 0.999084
vn 0.000000 0.151239 0.988497
vn 0.000000 0.042281 0.999106
vn 0.000000 0.154402 0.988008
vn 0.000000 0.156728 0.987642
vn 0.000000 0.041856 0.999124
vn 0.996052 0.079645 0.039195
vn 0.994473 0.091679 0.051167
vn 0.993999 0.104447 0.032500
vn 0.993450 0.106392 0.041697
vn 0.000000 -0.072068 -0.997400
vn 0.000000 -0.108274 -0.994121
vn 0.000000 -0.108274 -0.994121
vn 0.000000 -0.071202 -0.997462
vn 0.000000 -0.108274 -0.994121
vn 0.000000 -0.108274 -0.994121
vn 0.000000 -0.108274 -0.994121
vn -0.995077 0.098894 0.006476
vn -0.995077 0.098894 0.006476
vn 0.000000 0.255769 0.966738
vn 0.000000 0.255769 0.966738
vn 0.000000 0.255769 0.966738
vn 0.000000 0.255769 0.966738
vn 0.000000 0.255769 0.966738
vn 0.995077 0.098894 0.006476
vn 0.995077 0.098894 0.006476
vn 0.000000 -0.108274 -0.994121
vn 0.000000 -0.108274 -0.994121
vn 0.000000 0.992410 -0.122973
vn 0.000000 0.992410 -0.122973
vn 0.000000 0.083817 0.996481
vn 0.000000 0.125177 0.992135
vn 0.000000 0.041039 0.999157
vn 0.000000 0.163145 0.986602
vn 0.000000 0.255769 0.966738
vn 0.000000 -0.992410 0.122973
vn 0.000000 -0.992410 0.122973
vn 0.000000 -0.108274 -0.994121
vn 0.000000 -0.108274 -0.994121
vn 0.000000 -0.073548 -0.997292
vn 0.000000 -0.102301 -0.994753
vn 0.000000 -0.167795 -0.985822
vn 0.000000 0.992410 -0.122973
vn 0.000000 0.992410 -0.122973
vn 0.000000 -0.102301 -0.994753
vn 0.000000 -0.167795 -0.985822
vn 0.000000 -0.073548 -0.997292
vn 0.000000 -0.108274 -0.994121
vn 0.000000 -0.108274 -0.994121
vn 0.000000 -0.992410 0.122973
vn 0.000000 -0.992410 0.122973
vn 0.000000 0.163145 0.986602
vn 0.000000 0.255769 0.966738
vn 0.000000 0.041039 0.999157
vn 0.000000 0.083817 0.996481
vn 0.000000 0.125177 0.992134
s 1
g pCube12 group11
usemtl initialShadingGroup
f 1/1/1 13/20/2 30/41/3 21/30/4
s 2
f 3/3/5 14/22/6 15/23/7 5/5/8
s 3
f 22/32/9 23/33/10 16/24/11 7/7/12
s off
f 7/7/13 16/24/14 13/21/15 1/9/16
s 4
f 2/2/17 8/11/18 26/37/19 27/38/20
s 5
f 7/13/21 1/1/22 21/30/23 22/31/24
s 1
f 28/39/25 29/40/26 9/15/27 17/25/28
s 2
f 11/18/29 10/17/30 18/27/31 19/28/32
s 3
f 12/19/33 24/34/34 25/35/35 20/29/36
s 7
f 32/45/37 31/42/38 33/43/39 34/44/40
s 1
f 29/40/26 30/41/3 13/20/2 9/15/27
s 2
f 15/23/7 14/22/6 10/17/30 11/18/29
s 3
f 16/24/11 23/33/10 24/34/34 12/19/33
s 7
f 36/46/41 35/47/42 31/42/38 32/45/37
s 1
f 27/38/43 28/39/25 17/25/28 2/2/44
s 2
f 19/28/32 18/27/31 4/4/45 6/6/46
s 3
f 20/29/36 25/35/35 26/36/47 8/8/48
s off
f 17/26/49 20/29/50 8/8/51 2/10/52
s 5
f 22/31/24 21/30/23 3/3/53 5/14/54
s 3
f 5/5/55 15/23/56 23/33/10 22/32/9
f 24/34/34 23/33/10 15/23/56 11/18/57
f 25/35/35 24/34/34 11/18/57 19/28/58
f 26/36/47 25/35/35 19/28/58 6/6/59
s 4
f 27/38/20 26/37/19 6/12/60 4/4/61
s 1
f 18/27/62 28/39/25 27/38/43 4/4/63
f 10/17/64 29/40/26 28/39/25 18/27/62
f 14/22/65 30/41/3 29/40/26 10/17/64
f 21/30/4 30/41/3 14/22/65 3/3/66
s 3
f 12/19/33 20/29/36 42/53/67 37/48/68
s off
f 20/29/69 17/26/70 41/52/71 42/53/72
s 1
f 17/26/28 9/16/27 40/51/73 41/52/74
s off
f 13/21/75 16/24/76 38/49/77 39/50/78
s 3
f 16/24/11 12/19/33 37/48/68 38/49/79
s 1
f 9/16/27 13/21/2 39/50/80 40/51/73
s 3
f 38/49/79 37/48/68 71/82/81 72/83/82
s 8
f 44/54/83 43/55/84 73/84/85 74/85/86
s 1
f 40/51/73 39/50/80 75/86/87 76/87/88
f 41/52/74 40/51/73 76/87/88 77/88/89
s 9
f 48/58/90 47/59/91 78/89/92 79/90/93
s 3
f 37/48/68 42/53/67 80/91/94 71/82/81
s 10
f 39/50/95 38/49/96 81/92/97 82/93/98
s 3
f 38/49/79 72/83/82 90/101/99 81/92/100
s 7
f 35/47/42 36/46/41 86/97/101 87/98/102
s 1
f 82/93/103 83/94/104 75/86/87 39/50/80
s 11
f 42/53/105 41/52/106 91/102/107 92/103/108
s 1
f 41/52/74 77/88/89 100/111/109 91/102/110
s 7
f 34/44/40 33/43/39 96/107/111 97/108/112
s 3
f 92/103/113 93/104/114 80/91/94 42/53/67
f 52/63/115 51/62/116 61/72/117 62/73/118
f 88/99/119 89/100/120 52/63/115 62/73/118
s 8
f 54/65/121 53/64/122 63/74/123 64/75/124
s 1
f 84/95/125 85/96/126 65/76/127 55/66/128
f 56/67/129 55/66/128 65/76/127 66/77/130
f 57/68/131 56/67/129 66/77/130 67/78/132
f 98/109/133 99/110/134 57/68/131 67/78/132
s 9
f 59/70/135 58/69/136 68/79/137 69/80/138
s 3
f 94/105/139 95/106/140 70/81/141 60/71/142
f 51/62/116 60/71/142 70/81/141 61/72/117
f 62/73/118 61/72/117 31/42/143 35/47/144
f 87/98/145 88/99/119 62/73/118 35/47/144
s 8
f 64/75/124 63/74/123 45/56/146 46/57/147
s 1
f 36/46/148 65/76/127 85/96/126 86/97/149
f 66/77/130 65/76/127 36/46/148 32/45/150
f 67/78/132 66/77/130 32/45/150 34/44/151
f 97/108/152 98/109/133 67/78/132 34/44/151
s 9
f 69/80/138 68/79/137 49/60/153 50/61/154
s 3
f 33/43/155 70/81/141 95/106/140 96/107/156
f 61/72/117 70/81/141 33/43/155 31/42/143
f 72/83/82 71/82/81 51/62/116 52/63/115
f 89/100/120 90/101/99 72/83/82 52/63/115
s 8
f 74/85/86 73/84/85 53/64/122 54/65/121
s 1
f 83/94/104 84/95/125 55/66/128 75/86/87
f 76/87/88 75/86/87 55/66/128 56/67/129
f 77/88/89 76/87/88 56/67/129 57/68/131
f 99/110/134 100/111/109 77/88/89 57/68/131
s 9
f 79/90/93 78/89/92 58/69/136 59/70/135
s 3
f 93/104/114 94/105/139 60/71/142 80/91/94
f 71/82/81 80/91/94 60/71/142 51/62/116
s 10
f 82/93/98 81/92/97 43/55/157 44/54/158
s 1
f 74/85/159 83/94/104 82/93/103 44/54/160
f 54/65/161 84/95/125 83/94/104 74/85/159
f 64/75/162 85/96/126 84/95/125 54/65/161
f 86/97/149 85/96/126 64/75/162 46/57/163
s 7
f 87/98/102 86/97/101 46/57/164 45/56/165
s 3
f 63/74/166 88/99/119 87/98/145 45/56/167
f 53/64/168 89/100/120 88/99/119 63/74/166
f 73/84/169 90/101/99 89/100/120 53/64/168
f 81/92/100 90/101/99 73/84/169 43/55/170
s 11
f 92/103/108 91/102/107 47/59/171 48/58/172
s 3
f 79/90/173 93/104/114 92/103/113 48/58/174
f 59/70/175 94/105/139 93/104/114 79/90/173
f 69/80/176 95/106/140 94/105/139 59/70/175
f 96/107/156 95/106/140 69/80/176 50/61/177
s 7
f 97/108/112 96/107/111 50/61/178 49/60/179
s 1
f 68/79/180 98/109/133 97/108/152 49/60/181
f 58/69/182 99/110/134 98/109/133 68/79/180
f 78/89/183 100/111/109 99/110/134 58/69/182
f 91/102/110 100/111/109 78/89/183 47/59/184
